Bevan.ufo
<glyph name="exclam" format="1">
  <advance width="679"/>
  <unicode hex="0021"/>
  <outline>
    <contour>
      <point x="335" y="-33" type="curve" smooth="yes"/>
      <point x="496" y="-33"/>
      <point x="622" y="55"/>
      <point x="622" y="212" type="curve" smooth="yes"/>
      <point x="622" y="368"/>
      <point x="493" y="463"/>
      <point x="336" y="463" type="curve" smooth="no"/>
      <point x="334" y="462" type="line" smooth="no"/>
      <point x="178" y="462"/>
      <point x="57" y="367"/>
      <point x="57" y="212" type="curve" smooth="yes"/>
      <point x="57" y="58"/>
      <point x="178" y="-33"/>
    </contour>
    <contour>
      <point x="547" y="558" type="line" smooth="no"/>
      <point x="126" y="556" type="line" smooth="no"/>
      <point x="44" y="1331" type="line" smooth="no"/>
      <point x="44" y="1630" type="line" smooth="no"/>
      <point x="631" y="1630" type="line" smooth="no"/>
      <point x="631" y="1331" type="line" smooth="no"/>
    </contour>
  </outline>
</glyph>
<glyph name="quotedbl" format="1">
  <advance width="1148"/>
  <unicode hex="0022"/>
  <outline>
    <contour>
      <point x="628" y="1624" type="line" smooth="no"/>
      <point x="1108" y="1624" type="line" smooth="no"/>
      <point x="1008" y="945" type="line" smooth="no"/>
      <point x="708" y="945" type="line" smooth="no"/>
    </contour>
    <contour>
      <point x="41" y="1624" type="line" smooth="no"/>
      <point x="521" y="1624" type="line" smooth="no"/>
      <point x="421" y="945" type="line" smooth="no"/>
      <point x="121" y="945" type="line" smooth="no"/>
    </contour>
  </outline>
</glyph>
<glyph name="numbersign" format="1">
  <advance width="1354"/>
  <unicode hex="0023"/>
  <outline>
    <contour>
      <point x="552" y="585" type="line" smooth="no"/>
      <point x="714" y="585" type="line" smooth="no"/>
      <point x="794" y="947" type="line" smooth="no"/>
      <point x="635" y="947" type="line" smooth="no"/>
    </contour>
    <contour>
      <point x="382" y="1246" type="line" smooth="no"/>
      <point x="466" y="1623" type="line" smooth="no"/>
      <point x="790" y="1623" type="line" smooth="no"/>
      <point x="703" y="1246" type="line" smooth="no"/>
      <point x="861" y="1246" type="line" smooth="no"/>
      <point x="945" y="1623" type="line" smooth="no"/>
      <point x="1269" y="1623" type="line" smooth="no"/>
      <point x="1182" y="1246" type="line" smooth="no"/>
      <point x="1322" y="1246" type="line" smooth="no"/>
      <point x="1259" y="947" type="line" smooth="no"/>
      <point x="1114" y="947" type="line" smooth="no"/>
      <point x="1031" y="585" type="line" smooth="no"/>
      <point x="1175" y="585" type="line" smooth="no"/>
      <point x="1112" y="286" type="line" smooth="no"/>
      <point x="962" y="286" type="line" smooth="no"/>
      <point x="897" y="0" type="line" smooth="no"/>
      <point x="584" y="0" type="line" smooth="no"/>
      <point x="647" y="286" type="line" smooth="no"/>
      <point x="483" y="286" type="line" smooth="no"/>
      <point x="418" y="0" type="line" smooth="no"/>
      <point x="105" y="0" type="line" smooth="no"/>
      <point x="168" y="286" type="line" smooth="no"/>
      <point x="32" y="286" type="line" smooth="no"/>
      <point x="95" y="585" type="line" smooth="no"/>
      <point x="235" y="585" type="line" smooth="no"/>
      <point x="315" y="947" type="line" smooth="no"/>
      <point x="179" y="947" type="line" smooth="no"/>
      <point x="242" y="1246" type="line" smooth="no"/>
    </contour>
  </outline>
</glyph>
<glyph name="dollar" format="1">
  <advance width="1294"/>
  <unicode hex="0024"/>
  <outline>
    <contour>
      <point x="547" y="1270" type="line" smooth="no"/>
      <point x="493" y="1272"/>
      <point x="432" y="1233"/>
      <point x="432" y="1181" type="curve" smooth="yes"/>
      <point x="432" y="1180" type="line" smooth="yes"/>
      <point x="432" y="1114"/>
      <point x="488" y="1071"/>
      <point x="547" y="1059" type="curve" smooth="no"/>
    </contour>
    <contour>
      <point x="771" y="293" type="line" smooth="no"/>
      <point x="818" y="293"/>
      <point x="872" y="338"/>
      <point x="872" y="385" type="curve" smooth="no"/>
      <point x="873" y="385" type="line" smooth="no"/>
      <point x="880" y="452"/>
      <point x="834" y="530"/>
      <point x="771" y="538" type="curve" smooth="no"/>
    </contour>
    <contour>
      <point x="965" y="1027" type="curve" smooth="no"/>
      <point x="965" y="1027"/>
      <point x="884" y="1254"/>
      <point x="781" y="1254" type="curve" smooth="no"/>
      <point x="781" y="990" type="line" smooth="no"/>
      <point x="1044" y="889"/>
      <point x="1422" y="663"/>
      <point x="1197" y="281" type="curve" smooth="yes"/>
      <point x="1120" y="150"/>
      <point x="970" y="43"/>
      <point x="780" y="34" type="curve" smooth="no"/>
      <point x="780" y="-167" type="line" smooth="no"/>
      <point x="549" y="-167" type="line" smooth="no"/>
      <point x="549" y="47" type="line" smooth="no"/>
      <point x="456" y="66"/>
      <point x="372" y="83"/>
      <point x="287" y="148" type="curve" smooth="no"/>
      <point x="253" y="66" type="line" smooth="no"/>
      <point x="58" y="66" type="line" smooth="no"/>
      <point x="58" y="545" type="line" smooth="no"/>
      <point x="298" y="546" type="line" smooth="no"/>
      <point x="307" y="445"/>
      <point x="437" y="299"/>
      <point x="542" y="299" type="curve" smooth="no"/>
      <point x="542" y="587" type="line" smooth="no"/>
      <point x="292" y="655"/>
      <point x="49" y="736"/>
      <point x="49" y="1053" type="curve" smooth="yes"/>
      <point x="49" y="1343"/>
      <point x="268" y="1497"/>
      <point x="552" y="1512" type="curve" smooth="no"/>
      <point x="552" y="1703" type="line" smooth="no"/>
      <point x="779" y="1703" type="line" smooth="no"/>
      <point x="779" y="1493" type="line" smooth="no"/>
      <point x="839" y="1484"/>
      <point x="943" y="1403"/>
      <point x="943" y="1403" type="curve" smooth="no"/>
      <point x="966" y="1476" type="line" smooth="no"/>
      <point x="1142" y="1476" type="line" smooth="no"/>
      <point x="1142" y="1027" type="line" smooth="no"/>
      <point x="1082" y="1025"/>
      <point x="965" y="1027"/>
    </contour>
  </outline>
</glyph>
<glyph name="percent" format="1">
  <advance width="2693"/>
  <unicode hex="0025"/>
  <outline>
    <contour>
      <point x="624" y="1137" type="line" smooth="yes"/>
      <point x="624" y="1230"/>
      <point x="608" y="1312"/>
      <point x="527" y="1312" type="curve" smooth="yes"/>
      <point x="437" y="1312"/>
      <point x="431" y="1215"/>
      <point x="431" y="1097" type="curve" smooth="yes"/>
      <point x="431" y="958"/>
      <point x="462" y="889"/>
      <point x="524" y="889" type="curve" smooth="yes"/>
      <point x="611" y="889"/>
      <point x="623" y="981"/>
      <point x="623" y="1069" type="curve" smooth="no"/>
      <point x="624" y="1095" type="line" smooth="no"/>
    </contour>
    <contour>
      <point x="550" y="539" type="curve" smooth="yes"/>
      <point x="223" y="539"/>
      <point x="32" y="750"/>
      <point x="32" y="1077" type="curve" smooth="yes"/>
      <point x="32" y="1394"/>
      <point x="211" y="1652"/>
      <point x="526" y="1652" type="curve" smooth="yes"/>
      <point x="851" y="1652"/>
      <point x="1027" y="1435"/>
      <point x="1027" y="1111" type="curve" smooth="yes"/>
      <point x="1027" y="796"/>
      <point x="867" y="539"/>
    </contour>
    <contour>
      <point x="914" y="0" type="line" smooth="no"/>
      <point x="1255" y="1623" type="line" smooth="no"/>
      <point x="1759" y="1623" type="line" smooth="no"/>
      <point x="1417" y="0" type="line" smooth="no"/>
    </contour>
    <contour>
      <point x="2248" y="580" type="curve" smooth="yes"/>
      <point x="2248" y="673"/>
      <point x="2232" y="755"/>
      <point x="2151" y="755" type="curve" smooth="yes"/>
      <point x="2062" y="755"/>
      <point x="2055" y="660"/>
      <point x="2055" y="540" type="curve" smooth="yes"/>
      <point x="2055" y="401"/>
      <point x="2086" y="332"/>
      <point x="2148" y="332" type="curve" smooth="yes"/>
      <point x="2235" y="332"/>
      <point x="2247" y="424"/>
      <point x="2247" y="512" type="curve" smooth="yes"/>
      <point x="2247" y="539" type="line" smooth="no"/>
      <point x="2248" y="556"/>
      <point x="2248" y="570"/>
    </contour>
    <contour>
      <point x="2174" y="-18" type="curve" smooth="yes"/>
      <point x="1847" y="-18"/>
      <point x="1656" y="193"/>
      <point x="1656" y="520" type="curve" smooth="yes"/>
      <point x="1656" y="837"/>
      <point x="1835" y="1095"/>
      <point x="2150" y="1095" type="curve" smooth="yes"/>
      <point x="2475" y="1095"/>
      <point x="2651" y="878"/>
      <point x="2651" y="554" type="curve" smooth="yes"/>
      <point x="2651" y="239"/>
      <point x="2491" y="-18"/>
    </contour>
  </outline>
</glyph>
<glyph name="ampersand" format="1">
  <advance width="1723"/>
  <unicode hex="0026"/>
  <outline>
    <contour>
      <point x="781" y="1269" type="curve" smooth="yes"/>
      <point x="730" y="1269"/>
      <point x="668" y="1227"/>
      <point x="668" y="1149" type="curve" smooth="yes"/>
      <point x="794" y="1020" type="line" smooth="no"/>
      <point x="794" y="1020"/>
      <point x="886" y="1080"/>
      <point x="886" y="1148" type="curve" smooth="yes"/>
      <point x="886" y="1216"/>
      <point x="849" y="1269"/>
    </contour>
    <contour>
      <point x="558" y="584" type="line" smooth="no"/>
      <point x="530" y="564"/>
      <point x="497" y="532"/>
      <point x="497" y="484" type="curve" smooth="yes"/>
      <point x="497" y="482" type="line" smooth="yes"/>
      <point x="497" y="395"/>
      <point x="563" y="330"/>
      <point x="651" y="330" type="curve" smooth="yes"/>
      <point x="692" y="330"/>
      <point x="730" y="343"/>
      <point x="765" y="370" type="curve" smooth="no"/>
    </contour>
    <contour>
      <point x="1142" y="1168" type="curve" smooth="yes"/>
      <point x="1142" y="988"/>
      <point x="1072" y="931"/>
      <point x="974" y="844" type="curve" smooth="no"/>
      <point x="1153" y="669" type="line" smooth="no"/>
      <point x="1180" y="693" type="line" smooth="yes"/>
      <point x="1200" y="711"/>
      <point x="1260" y="766"/>
      <point x="1260" y="797" type="curve" smooth="yes"/>
      <point x="1260" y="820"/>
      <point x="1251" y="832"/>
      <point x="1233" y="832" type="curve" smooth="yes"/>
      <point x="1186" y="832" type="line" smooth="no"/>
      <point x="1186" y="1127" type="line" smooth="no"/>
      <point x="1669" y="1127" type="line" smooth="no"/>
      <point x="1669" y="838" type="line" smooth="no"/>
      <point x="1559" y="800"/>
      <point x="1541.24" y="775.773"/>
      <point x="1459" y="694" type="curve" smooth="yes"/>
      <point x="1282" y="518" type="line" smooth="no"/>
      <point x="1285" y="517"/>
      <point x="1368" y="368"/>
      <point x="1505" y="368" type="curve" smooth="yes"/>
      <point x="1666" y="368" type="line" smooth="no"/>
      <point x="1666" y="0" type="line" smooth="no"/>
      <point x="1127" y="0" type="line" smooth="no"/>
      <point x="1127" y="-3" type="line" smooth="no"/>
      <point x="1094" y="30"/>
      <point x="1036" y="91"/>
      <point x="953" y="180" type="curve" smooth="no"/>
      <point x="830" y="44"/>
      <point x="676" y="-30"/>
      <point x="492" y="-30" type="curve" smooth="yes"/>
      <point x="235" y="-30"/>
      <point x="39" y="122"/>
      <point x="39" y="375" type="curve" smooth="yes"/>
      <point x="39" y="609"/>
      <point x="173" y="726"/>
      <point x="354" y="804" type="curve" smooth="no"/>
      <point x="277" y="889"/>
      <point x="235" y="990"/>
      <point x="235" y="1107" type="curve" smooth="yes"/>
      <point x="235" y="1374"/>
      <point x="449" y="1513"/>
      <point x="717" y="1513" type="curve" smooth="yes"/>
      <point x="938" y="1513"/>
      <point x="1142" y="1390"/>
    </contour>
  </outline>
</glyph>
<glyph name="parenleft" format="1">
  <advance width="915"/>
  <unicode hex="0028"/>
  <outline>
    <contour>
      <point x="874" y="-20" type="line" smooth="no"/>
      <point x="345" y="-20"/>
      <point x="19" y="294"/>
      <point x="19" y="816" type="curve" smooth="yes"/>
      <point x="19" y="1391"/>
      <point x="300" y="1653"/>
      <point x="879" y="1653" type="curve" smooth="no"/>
      <point x="879" y="1321" type="line" smooth="no"/>
      <point x="877" y="1319" type="line" smooth="no"/>
      <point x="592" y="1313"/>
      <point x="520" y="1107"/>
      <point x="520" y="817" type="curve" smooth="yes"/>
      <point x="520" y="543"/>
      <point x="599" y="311"/>
      <point x="874" y="311" type="curve" smooth="no"/>
    </contour>
  </outline>
</glyph>
<glyph name="parenright" format="1">
  <advance width="915"/>
  <unicode hex="0029"/>
  <outline>
    <contour>
      <point x="395" y="817" type="curve" smooth="yes"/>
      <point x="395" y="1107"/>
      <point x="323" y="1315"/>
      <point x="38" y="1321" type="curve" smooth="no"/>
      <point x="38" y="1652" type="line" smooth="no"/>
      <point x="616" y="1651"/>
      <point x="896" y="1389"/>
      <point x="896" y="815" type="curve" smooth="yes"/>
      <point x="896" y="291"/>
      <point x="567" y="-20"/>
      <point x="41" y="-20" type="curve" smooth="no"/>
      <point x="41" y="311" type="line" smooth="no"/>
      <point x="316" y="311"/>
      <point x="395" y="543"/>
    </contour>
    <contour>
      <point x="38" y="1652" type="line" smooth="no"/>
      <point x="38" y="1653" type="line" smooth="no"/>
      <point x="36" y="1652" type="line" smooth="no"/>
    </contour>
  </outline>
</glyph>
<glyph name="asterisk" format="1">
  <advance width="1243"/>
  <unicode hex="002a"/>
  <outline>
    <contour>
      <point x="17.8406" y="647.562" type="curve" smooth="yes"/>
      <point x="17.8406" y="841.941"/>
      <point x="350.661" y="890.788"/>
      <point x="509" y="944" type="curve" smooth="no"/>
      <point x="382.848" y="990.342"/>
      <point x="12.9226" y="1057.3"/>
      <point x="12.9226" y="1232.11" type="curve" smooth="yes"/>
      <point x="12.9226" y="1261"/>
      <point x="23.0252" y="1292.83"/>
      <point x="46" y="1328" type="curve" smooth="no"/>
      <point x="36" y="1320" type="line" smooth="no"/>
      <point x="65.2899" y="1367.22"/>
      <point x="111.016" y="1392.65"/>
      <point x="163.14" y="1392.65" type="curve" smooth="yes"/>
      <point x="335.409" y="1392.65"/>
      <point x="453.859" y="1177.23"/>
      <point x="540" y="1078" type="curve" smooth="no"/>
      <point x="509" y="1192"/>
      <point x="455" y="1317"/>
      <point x="455" y="1454" type="curve" smooth="yes"/>
      <point x="455" y="1555"/>
      <point x="520" y="1634"/>
      <point x="616" y="1634" type="curve" smooth="yes"/>
      <point x="712" y="1634"/>
      <point x="777" y="1555"/>
      <point x="777" y="1454" type="curve" smooth="yes"/>
      <point x="777" y="1313"/>
      <point x="728" y="1192"/>
      <point x="693" y="1080" type="curve" smooth="no"/>
      <point x="783.425" y="1180.35"/>
      <point x="894.767" y="1391.74"/>
      <point x="1065.79" y="1391.74" type="curve" smooth="yes"/>
      <point x="1156.27" y="1391.74"/>
      <point x="1223.16" y="1317"/>
      <point x="1223.16" y="1234.44" type="curve" smooth="yes"/>
      <point x="1223.16" y="1038.91"/>
      <point x="888.953" y="994.83"/>
      <point x="733" y="938" type="curve" smooth="no"/>
      <point x="863.273" y="890.862"/>
      <point x="1233.75" y="829.032"/>
      <point x="1233.75" y="651.782" type="curve" smooth="yes"/>
      <point x="1233.75" y="565.897"/>
      <point x="1154.99" y="480.351"/>
      <point x="1072.28" y="480.351" type="curve" smooth="yes"/>
      <point x="899.95" y="480.351"/>
      <point x="780.518" y="697.678"/>
      <point x="693" y="796" type="curve" smooth="no"/>
      <point x="729" y="687"/>
      <point x="780" y="556"/>
      <point x="780" y="422" type="curve" smooth="yes"/>
      <point x="780" y="321"/>
      <point x="715" y="242"/>
      <point x="619" y="242" type="curve" smooth="yes"/>
      <point x="523" y="242"/>
      <point x="458" y="321"/>
      <point x="458" y="422" type="curve" smooth="yes"/>
      <point x="458" y="559"/>
      <point x="510" y="690"/>
      <point x="544" y="800" type="curve" smooth="no"/>
      <point x="464.613" y="693.778"/>
      <point x="338.113" y="490.264"/>
      <point x="175.214" y="490.264" type="curve" smooth="yes"/>
      <point x="84.7265" y="490.264"/>
      <point x="17.8406" y="565.002"/>
    </contour>
  </outline>
</glyph>
<glyph name="plus" format="1">
  <advance width="816"/>
  <unicode hex="002b"/>
  <outline>
    <contour>
      <point x="12" y="762" type="line" smooth="no"/>
      <point x="284" y="762" type="line" smooth="no"/>
      <point x="284" y="1051" type="line" smooth="no"/>
      <point x="539" y="1051" type="line" smooth="no"/>
      <point x="539" y="762" type="line" smooth="no"/>
      <point x="804" y="762" type="line" smooth="no"/>
      <point x="804" y="517" type="line" smooth="no"/>
      <point x="539" y="517" type="line" smooth="no"/>
      <point x="539" y="238" type="line" smooth="no"/>
      <point x="284" y="238" type="line" smooth="no"/>
      <point x="284" y="517" type="line" smooth="no"/>
      <point x="12" y="517" type="line" smooth="no"/>
    </contour>
  </outline>
</glyph>
<glyph name="comma" format="1">
  <advance width="596"/>
  <unicode hex="002c"/>
  <outline>
    <contour>
      <point x="37" y="-223" type="line" smooth="no"/>
      <point x="36" y="-224" type="line" smooth="yes"/>
      <point x="37" y="-224" type="line" smooth="yes"/>
    </contour>
    <contour>
      <point x="37" y="-224" type="line" smooth="no"/>
      <point x="195" y="-224"/>
      <point x="227" y="-161"/>
      <point x="227" y="-1" type="curve" smooth="no"/>
      <point x="38" y="-1" type="line" smooth="no"/>
      <point x="38" y="365" type="line" smooth="no"/>
      <point x="548" y="365" type="line" smooth="no"/>
      <point x="564" y="262"/>
      <point x="572" y="170"/>
      <point x="572" y="88" type="curve" smooth="yes"/>
      <point x="572" y="-281"/>
      <point x="405" y="-448"/>
      <point x="37" y="-448" type="curve" smooth="no"/>
    </contour>
  </outline>
</glyph>
<glyph name="hyphen" format="1">
  <advance width="759"/>
  <unicode hex="002d"/>
  <outline>
    <contour>
      <point x="723" y="836" type="line" smooth="no"/>
      <point x="723" y="537" type="line" smooth="no"/>
      <point x="36" y="537" type="line" smooth="no"/>
      <point x="36" y="836" type="line" smooth="no"/>
    </contour>
  </outline>
</glyph>
<glyph name="period" format="1">
  <advance width="617"/>
  <unicode hex="002e"/>
  <outline>
    <contour>
      <point x="591" y="223" type="curve" smooth="yes"/>
      <point x="591" y="66"/>
      <point x="463" y="-27"/>
      <point x="305" y="-27" type="curve" smooth="no"/>
      <point x="303" y="-28" type="line" smooth="no"/>
      <point x="148" y="-28"/>
      <point x="26" y="68"/>
      <point x="26" y="223" type="curve" smooth="yes"/>
      <point x="26" y="377"/>
      <point x="147" y="468"/>
      <point x="304" y="468" type="curve" smooth="yes"/>
      <point x="465" y="468"/>
      <point x="591" y="380"/>
    </contour>
  </outline>
</glyph>
<glyph name="slash" format="1">
  <advance width="893"/>
  <unicode hex="002f"/>
  <outline>
    <contour>
      <point x="19" y="0" type="line" smooth="no"/>
      <point x="510" y="1623" type="line" smooth="no"/>
      <point x="874" y="1623" type="line" smooth="no"/>
      <point x="372" y="0" type="line" smooth="no"/>
    </contour>
  </outline>
</glyph>
<glyph name="zero" format="1">
  <advance width="1298"/>
  <unicode hex="0030"/>
  <outline>
    <contour>
      <point x="516" y="667" type="line" smooth="yes"/>
      <point x="516" y="539"/>
      <point x="520" y="348"/>
      <point x="647" y="348" type="curve" smooth="no"/>
      <point x="648" y="343" type="line" smooth="no"/>
      <point x="777" y="343"/>
      <point x="779" y="535"/>
      <point x="779" y="665" type="curve" smooth="yes"/>
      <point x="779" y="749" type="line" smooth="yes"/>
      <point x="779" y="864"/>
      <point x="761" y="995"/>
      <point x="646" y="995" type="curve" smooth="yes"/>
      <point x="515" y="995"/>
      <point x="510" y="829"/>
      <point x="516" y="695" type="curve" smooth="no"/>
    </contour>
    <contour>
      <point x="652" y="-26" type="curve" smooth="yes"/>
      <point x="229" y="-26"/>
      <point x="30" y="269"/>
      <point x="30" y="694" type="curve" smooth="yes"/>
      <point x="30" y="1086"/>
      <point x="263" y="1366"/>
      <point x="650" y="1366" type="curve" smooth="yes"/>
      <point x="1037" y="1366"/>
      <point x="1268" y="1085"/>
      <point x="1268" y="695" type="curve" smooth="yes"/>
      <point x="1268" y="272"/>
      <point x="1073" y="-26"/>
    </contour>
  </outline>
</glyph>
<glyph name="one" format="1">
  <advance width="823"/>
  <unicode hex="0031"/>
  <outline>
    <contour>
      <point x="52" y="0" type="line" smooth="no"/>
      <point x="51" y="325" type="line" smooth="no"/>
      <point x="191" y="324" type="line" smooth="no"/>
      <point x="191" y="951" type="line" smooth="no"/>
      <point x="27" y="950" type="line" smooth="no"/>
      <point x="27" y="1208" type="line" smooth="no"/>
      <point x="689" y="1375" type="line" smooth="no"/>
      <point x="691" y="324" type="line" smooth="no"/>
      <point x="791" y="324" type="line" smooth="no"/>
      <point x="791" y="0" type="line" smooth="no"/>
    </contour>
  </outline>
</glyph>
<glyph name="two" format="1">
  <advance width="1247"/>
  <unicode hex="0032"/>
  <outline>
    <contour>
      <point x="824" y="317" type="line" smooth="no"/>
      <point x="942" y="321"/>
      <point x="1039" y="343"/>
      <point x="1039" y="465" type="curve" smooth="no"/>
      <point x="1212" y="465" type="line" smooth="no"/>
      <point x="1217" y="0" type="line" smooth="no"/>
      <point x="74" y="0" type="line" smooth="no"/>
      <point x="74" y="303" type="line" smooth="no"/>
      <point x="305" y="391"/>
      <point x="619" y="557"/>
      <point x="619" y="857" type="curve" smooth="yes"/>
      <point x="619" y="942"/>
      <point x="563" y="1029"/>
      <point x="481" y="1029" type="curve" smooth="yes"/>
      <point x="397" y="1029"/>
      <point x="347" y="970"/>
      <point x="347" y="887" type="curve" smooth="yes"/>
      <point x="347" y="835"/>
      <point x="385" y="780"/>
      <point x="409" y="756" type="curve" smooth="no"/>
      <point x="183" y="582" type="line" smooth="no"/>
      <point x="93" y="661"/>
      <point x="34" y="785"/>
      <point x="34" y="945" type="curve" smooth="yes"/>
      <point x="34" y="1540"/>
      <point x="1129" y="1511"/>
      <point x="1129" y="921" type="curve" smooth="yes"/>
      <point x="1129" y="629"/>
      <point x="844" y="451"/>
      <point x="663" y="317" type="curve" smooth="no"/>
    </contour>
  </outline>
</glyph>
<glyph name="three" format="1">
  <advance width="1201"/>
  <unicode hex="0033"/>
  <outline>
    <contour>
      <point x="522" y="-18" type="curve" smooth="yes"/>
      <point x="315" y="-18"/>
      <point x="47" y="-70"/>
      <point x="47" y="78" type="curve" smooth="yes"/>
      <point x="47" y="424" type="line" smooth="no"/>
      <point x="168" y="327"/>
      <point x="291" y="278"/>
      <point x="417" y="278" type="curve" smooth="yes"/>
      <point x="526" y="278"/>
      <point x="639" y="316"/>
      <point x="639" y="425" type="curve" smooth="yes"/>
      <point x="639" y="551"/>
      <point x="518" y="592"/>
      <point x="392" y="592" type="curve" smooth="yes"/>
      <point x="359" y="592"/>
      <point x="288" y="572"/>
      <point x="265" y="572" type="curve" smooth="yes"/>
      <point x="253" y="572"/>
      <point x="244" y="573"/>
      <point x="244" y="582" type="curve" smooth="yes"/>
      <point x="244" y="740" type="line" smooth="no"/>
      <point x="586" y="1031" type="line" smooth="no"/>
      <point x="586" y="1041" type="line" smooth="no"/>
      <point x="366" y="1041" type="line" smooth="yes"/>
      <point x="263" y="1041"/>
      <point x="329" y="897"/>
      <point x="229" y="898" type="curve" smooth="yes"/>
      <point x="35" y="899" type="line" smooth="no"/>
      <point x="35" y="1352" type="line" smooth="no"/>
      <point x="1104" y="1352" type="line" smooth="no"/>
      <point x="1104" y="1088" type="line" smooth="yes"/>
      <point x="1104" y="1086"/>
      <point x="1009" y="1007"/>
      <point x="820" y="851" type="curve" smooth="no"/>
      <point x="1001" y="834"/>
      <point x="1170" y="666"/>
      <point x="1170" y="473" type="curve" smooth="yes"/>
      <point x="1170" y="131"/>
      <point x="882" y="-18"/>
    </contour>
  </outline>
</glyph>
<glyph name="four" format="1">
  <advance width="1268"/>
  <unicode hex="0034"/>
  <unicode hex="2074"/>
  <outline>
    <contour>
      <point x="555" y="677" type="line" smooth="no"/>
      <point x="555" y="911" type="line" smooth="no"/>
      <point x="366" y="678" type="line" smooth="no"/>
    </contour>
    <contour>
      <point x="1011" y="288" type="line" smooth="no"/>
      <point x="1133" y="288" type="line" smooth="no"/>
      <point x="1133" y="0" type="line" smooth="no"/>
      <point x="428" y="0" type="line" smooth="no"/>
      <point x="428" y="288" type="line" smooth="no"/>
      <point x="555" y="288" type="line" smooth="no"/>
      <point x="555" y="420" type="line" smooth="no"/>
      <point x="22" y="419" type="line" smooth="no"/>
      <point x="22" y="688" type="line" smooth="no"/>
      <point x="573" y="1342" type="line" smooth="no"/>
      <point x="1012" y="1341" type="line" smooth="no"/>
      <point x="1012" y="675" type="line" smooth="no"/>
      <point x="1239" y="677" type="line" smooth="no"/>
      <point x="1239" y="420" type="line" smooth="no"/>
      <point x="1011" y="420" type="line" smooth="no"/>
    </contour>
  </outline>
</glyph>
<glyph name="five" format="1">
  <advance width="1057"/>
  <unicode hex="0035"/>
  <outline>
    <contour>
      <point x="1027" y="511" type="curve" smooth="yes"/>
      <point x="1027" y="148"/>
      <point x="764" y="-20"/>
      <point x="402" y="-20" type="curve" smooth="yes"/>
      <point x="278" y="-20"/>
      <point x="99" y="13"/>
      <point x="37" y="73" type="curve" smooth="no"/>
      <point x="38" y="75" type="line" smooth="no"/>
      <point x="38" y="347" type="line" smooth="no"/>
      <point x="74" y="330" type="line" smooth="yes"/>
      <point x="112" y="313"/>
      <point x="199" y="280"/>
      <point x="250" y="280" type="curve" smooth="yes"/>
      <point x="361" y="280"/>
      <point x="478" y="330"/>
      <point x="478" y="445" type="curve" smooth="yes"/>
      <point x="478" y="566"/>
      <point x="346" y="617"/>
      <point x="225" y="617" type="curve" smooth="yes"/>
      <point x="164" y="617"/>
      <point x="105" y="596"/>
      <point x="48" y="553" type="curve" smooth="no"/>
      <point x="36" y="564" type="line" smooth="no"/>
      <point x="36" y="1358" type="line" smooth="no"/>
      <point x="952" y="1358" type="line" smooth="no"/>
      <point x="952" y="1061" type="line" smooth="no"/>
      <point x="341" y="1061" type="line" smooth="no"/>
      <point x="341" y="922" type="line" smooth="no"/>
      <point x="366" y="926" type="line" smooth="yes"/>
      <point x="410" y="934"/>
      <point x="494" y="939"/>
      <point x="552" y="939" type="curve" smooth="yes"/>
      <point x="807" y="939"/>
      <point x="1027" y="763"/>
    </contour>
  </outline>
</glyph>
<glyph name="six" format="1">
  <advance width="1303"/>
  <unicode hex="0036"/>
  <outline>
    <contour>
      <point x="658" y="746" type="curve" smooth="yes"/>
      <point x="549" y="746"/>
      <point x="540" y="645"/>
      <point x="540" y="531" type="curve" smooth="yes"/>
      <point x="540" y="438"/>
      <point x="551" y="309"/>
      <point x="644" y="309" type="curve" smooth="yes"/>
      <point x="757" y="309"/>
      <point x="760" y="472"/>
      <point x="760" y="526" type="curve" smooth="yes"/>
      <point x="760" y="606"/>
      <point x="738" y="746"/>
    </contour>
    <contour>
      <point x="1262" y="542" type="curve" smooth="yes"/>
      <point x="1262" y="254"/>
      <point x="1011" y="-19"/>
      <point x="655" y="-19" type="curve" smooth="yes"/>
      <point x="305" y="-19"/>
      <point x="28" y="186"/>
      <point x="28" y="534" type="curve" smooth="yes"/>
      <point x="28" y="919"/>
      <point x="362" y="1151"/>
      <point x="557" y="1346" type="curve" smooth="no"/>
      <point x="562" y="1345" type="line" smooth="no"/>
      <point x="1098" y="1345" type="line" smooth="no"/>
      <point x="1098" y="1345"/>
      <point x="829" y="1062"/>
      <point x="802" y="993" type="curve" smooth="no"/>
      <point x="1114" y="978"/>
      <point x="1262" y="767"/>
    </contour>
  </outline>
</glyph>
<glyph name="seven" format="1">
  <advance width="1199"/>
  <unicode hex="0037"/>
  <outline>
    <contour>
      <point x="381" y="1020" type="line" smooth="yes"/>
      <point x="281" y="1020"/>
      <point x="250" y="983"/>
      <point x="250" y="877" type="curve" smooth="no"/>
      <point x="32" y="878" type="line" smooth="no"/>
      <point x="32" y="1337" type="line" smooth="no"/>
      <point x="1175" y="1337" type="line" smooth="no"/>
      <point x="1175" y="1067" type="line" smooth="no"/>
      <point x="649" y="0" type="line" smooth="no"/>
      <point x="117" y="0" type="line" smooth="no"/>
      <point x="622" y="1020" type="line" smooth="no"/>
    </contour>
  </outline>
</glyph>
<glyph name="eight" format="1">
  <advance width="1261"/>
  <unicode hex="0038"/>
  <outline>
    <contour>
      <point x="714" y="984" type="curve" smooth="yes"/>
      <point x="714" y="1055"/>
      <point x="702" y="1121"/>
      <point x="634" y="1121" type="curve" smooth="yes"/>
      <point x="562" y="1121"/>
      <point x="550" y="1059"/>
      <point x="550" y="984" type="curve" smooth="yes"/>
      <point x="550" y="876"/>
      <point x="581" y="824"/>
      <point x="636" y="824" type="curve" smooth="yes"/>
      <point x="688" y="824"/>
      <point x="714" y="876"/>
    </contour>
    <contour>
      <point x="550" y="404" type="curve" smooth="yes"/>
      <point x="550" y="293"/>
      <point x="577" y="238"/>
      <point x="630" y="238" type="curve" smooth="yes"/>
      <point x="683" y="238"/>
      <point x="710" y="293"/>
      <point x="710" y="404" type="curve" smooth="yes"/>
      <point x="710" y="519"/>
      <point x="684" y="576"/>
      <point x="632" y="576" type="curve" smooth="yes"/>
      <point x="577" y="576"/>
      <point x="550" y="519"/>
    </contour>
    <contour>
      <point x="632" y="-18" type="curve" smooth="yes"/>
      <point x="329" y="-18"/>
      <point x="30" y="70"/>
      <point x="30" y="373" type="curve" smooth="yes"/>
      <point x="30" y="543"/>
      <point x="117" y="661"/>
      <point x="291" y="728" type="curve" smooth="no"/>
      <point x="184" y="769"/>
      <point x="108" y="866"/>
      <point x="108" y="1008" type="curve" smooth="yes"/>
      <point x="108" y="1283"/>
      <point x="363" y="1377"/>
      <point x="632" y="1377" type="curve" smooth="yes"/>
      <point x="898" y="1377"/>
      <point x="1153" y="1284"/>
      <point x="1153" y="1010" type="curve" smooth="yes"/>
      <point x="1153" y="868"/>
      <point x="1077" y="771"/>
      <point x="970" y="730" type="curve" smooth="no"/>
      <point x="1144" y="663"/>
      <point x="1231" y="545"/>
      <point x="1231" y="375" type="curve" smooth="yes"/>
      <point x="1231" y="72"/>
      <point x="935" y="-18"/>
    </contour>
  </outline>
</glyph>
<glyph name="nine" format="1">
  <advance width="1308"/>
  <unicode hex="0039"/>
  <outline>
    <contour>
      <point x="757" y="818" type="curve" smooth="yes"/>
      <point x="757" y="902"/>
      <point x="744" y="1040"/>
      <point x="661" y="1040" type="curve" smooth="yes"/>
      <point x="587" y="1040"/>
      <point x="550" y="963"/>
      <point x="550" y="810" type="curve" smooth="yes"/>
      <point x="550" y="671"/>
      <point x="586" y="601"/>
      <point x="659" y="601" type="curve" smooth="yes"/>
      <point x="724" y="601"/>
      <point x="757" y="673"/>
    </contour>
    <contour>
      <point x="1280" y="811" type="curve" smooth="yes"/>
      <point x="1280" y="444"/>
      <point x="747" y="-2"/>
      <point x="747" y="-2" type="curve" smooth="no"/>
      <point x="209" y="0" type="line" smooth="no"/>
      <point x="297" y="86"/>
      <point x="455" y="260"/>
      <point x="533" y="361" type="curve" smooth="no"/>
      <point x="265" y="361"/>
      <point x="28" y="546"/>
      <point x="28" y="811" type="curve" smooth="yes"/>
      <point x="28" y="1161"/>
      <point x="311" y="1367"/>
      <point x="670" y="1367" type="curve" smooth="yes"/>
      <point x="1013" y="1367"/>
      <point x="1280" y="1151"/>
    </contour>
  </outline>
</glyph>
<glyph name="colon" format="1">
  <advance width="629"/>
  <unicode hex="003a"/>
  <outline>
    <contour>
      <point x="596" y="231" type="curve" smooth="yes"/>
      <point x="596" y="74"/>
      <point x="468" y="-19"/>
      <point x="310" y="-19" type="curve" smooth="no"/>
      <point x="308" y="-20" type="line" smooth="no"/>
      <point x="153" y="-20"/>
      <point x="31" y="76"/>
      <point x="31" y="231" type="curve" smooth="yes"/>
      <point x="31" y="385"/>
      <point x="152" y="476"/>
      <point x="309" y="476" type="curve" smooth="yes"/>
      <point x="470" y="476"/>
      <point x="596" y="388"/>
    </contour>
    <contour>
      <point x="598" y="846" type="curve" smooth="yes"/>
      <point x="598" y="689"/>
      <point x="470" y="596"/>
      <point x="312" y="596" type="curve" smooth="no"/>
      <point x="310" y="595" type="line" smooth="no"/>
      <point x="155" y="595"/>
      <point x="33" y="691"/>
      <point x="33" y="846" type="curve" smooth="yes"/>
      <point x="33" y="1000"/>
      <point x="154" y="1091"/>
      <point x="311" y="1091" type="curve" smooth="yes"/>
      <point x="472" y="1091"/>
      <point x="598" y="1003"/>
    </contour>
  </outline>
</glyph>
<glyph name="semicolon" format="1">
  <advance width="627"/>
  <unicode hex="003b"/>
  <outline>
    <contour>
      <point x="598" y="843" type="curve" smooth="yes"/>
      <point x="598" y="686"/>
      <point x="470" y="593"/>
      <point x="312" y="593" type="curve" smooth="no"/>
      <point x="310" y="592" type="line" smooth="no"/>
      <point x="155" y="592"/>
      <point x="33" y="688"/>
      <point x="33" y="843" type="curve" smooth="yes"/>
      <point x="33" y="997"/>
      <point x="154" y="1088"/>
      <point x="311" y="1088" type="curve" smooth="yes"/>
      <point x="472" y="1088"/>
      <point x="598" y="1000"/>
    </contour>
    <contour>
      <point x="235" y="-3" type="line" smooth="no"/>
      <point x="235" y="-161"/>
      <point x="202" y="-223"/>
      <point x="44" y="-223" type="curve" smooth="no"/>
      <point x="44" y="-448" type="line" smooth="no"/>
      <point x="45" y="-450" type="line" smooth="no"/>
      <point x="413" y="-450"/>
      <point x="580" y="-284"/>
      <point x="580" y="86" type="curve" smooth="yes"/>
      <point x="580" y="168"/>
      <point x="556" y="363"/>
      <point x="556" y="363" type="curve" smooth="no"/>
      <point x="46" y="363" type="line" smooth="no"/>
      <point x="46" y="-3" type="line" smooth="no"/>
    </contour>
  </outline>
</glyph>
<glyph name="less" format="1">
  <advance width="766"/>
  <unicode hex="003c"/>
  <unicode hex="2039"/>
  <outline>
    <contour>
      <point x="15" y="946" type="line" smooth="no"/>
      <point x="730" y="1542" type="line" smooth="no"/>
      <point x="730" y="1077" type="line" smooth="no"/>
      <point x="397" y="761" type="line" smooth="no"/>
      <point x="730" y="445" type="line" smooth="no"/>
      <point x="730" y="-20" type="line" smooth="no"/>
      <point x="15" y="576" type="line" smooth="no"/>
    </contour>
  </outline>
</glyph>
<glyph name="equal" format="1">
  <advance width="719"/>
  <unicode hex="003d"/>
  <outline>
    <contour>
      <point x="683" y="761" type="line" smooth="no"/>
      <point x="683" y="538" type="line" smooth="no"/>
      <point x="36" y="538" type="line" smooth="no"/>
      <point x="36" y="761" type="line" smooth="no"/>
    </contour>
    <contour>
      <point x="683" y="392" type="line" smooth="no"/>
      <point x="683" y="169" type="line" smooth="no"/>
      <point x="36" y="169" type="line" smooth="no"/>
      <point x="36" y="392" type="line" smooth="no"/>
    </contour>
  </outline>
</glyph>
<glyph name="greater" format="1">
  <advance width="766"/>
  <unicode hex="003e"/>
  <unicode hex="203a"/>
  <outline>
    <contour>
      <point x="751" y="576" type="line" smooth="no"/>
      <point x="36" y="-20" type="line" smooth="no"/>
      <point x="36" y="445" type="line" smooth="no"/>
      <point x="369" y="761" type="line" smooth="no"/>
      <point x="36" y="1077" type="line" smooth="no"/>
      <point x="36" y="1542" type="line" smooth="no"/>
      <point x="751" y="946" type="line" smooth="no"/>
    </contour>
  </outline>
</glyph>
<glyph name="question" format="1">
  <advance width="1259"/>
  <unicode hex="003f"/>
  <outline>
    <contour>
      <point x="793" y="225" type="curve" smooth="yes"/>
      <point x="793" y="68"/>
      <point x="665" y="-25"/>
      <point x="507" y="-25" type="curve" smooth="no"/>
      <point x="505" y="-26" type="line" smooth="no"/>
      <point x="350" y="-26"/>
      <point x="228" y="70"/>
      <point x="228" y="225" type="curve" smooth="yes"/>
      <point x="228" y="379"/>
      <point x="349" y="470"/>
      <point x="506" y="470" type="curve" smooth="yes"/>
      <point x="667" y="470"/>
      <point x="793" y="382"/>
    </contour>
    <contour>
      <point x="1236" y="1273" type="curve" smooth="yes"/>
      <point x="1236" y="936"/>
      <point x="928" y="813"/>
      <point x="674" y="726" type="curve" smooth="no"/>
      <point x="674" y="539" type="line" smooth="no"/>
      <point x="327" y="539" type="line" smooth="no"/>
      <point x="328" y="891" type="line" smooth="no"/>
      <point x="328" y="893" type="line" smooth="no"/>
      <point x="592" y="1012"/>
      <point x="724" y="1131"/>
      <point x="724" y="1250" type="curve" smooth="yes"/>
      <point x="724" y="1318"/>
      <point x="698" y="1381"/>
      <point x="628" y="1381" type="curve" smooth="yes"/>
      <point x="548" y="1381"/>
      <point x="505" y="1327"/>
      <point x="498" y="1219" type="curve" smooth="no"/>
      <point x="26" y="1219" type="line" smooth="no"/>
      <point x="44" y="1527"/>
      <point x="304" y="1737"/>
      <point x="635" y="1737" type="curve" smooth="yes"/>
      <point x="947" y="1737"/>
      <point x="1236" y="1577"/>
    </contour>
  </outline>
</glyph>
<glyph name="at" format="1">
  <advance width="1817"/>
  <unicode hex="0040"/>
  <outline>
    <contour>
      <point x="952" y="813" type="curve" smooth="yes"/>
      <point x="870" y="813"/>
      <point x="872" y="665"/>
      <point x="872" y="579" type="curve" smooth="no"/>
      <point x="871" y="577" type="line" smooth="no"/>
      <point x="871" y="498"/>
      <point x="883" y="370"/>
      <point x="944" y="370" type="curve" smooth="yes"/>
      <point x="981" y="370"/>
      <point x="1028" y="375"/>
      <point x="1028" y="405" type="curve" smooth="yes"/>
      <point x="1028" y="667" type="line" smooth="yes"/>
      <point x="1028" y="752"/>
      <point x="1022" y="813"/>
    </contour>
    <contour>
      <point x="950" y="964" type="curve" smooth="yes"/>
      <point x="1195" y="964"/>
      <point x="1342" y="852"/>
      <point x="1342" y="603" type="curve" smooth="no"/>
      <point x="1343" y="398" type="line" smooth="no"/>
      <point x="1348" y="395" type="line" smooth="no"/>
      <point x="1485" y="395"/>
      <point x="1506" y="531"/>
      <point x="1506" y="675" type="curve" smooth="yes"/>
      <point x="1506" y="978"/>
      <point x="1263" y="1115"/>
      <point x="935" y="1115" type="curve" smooth="yes"/>
      <point x="574" y="1115"/>
      <point x="345" y="916"/>
      <point x="345" y="565" type="curve" smooth="yes"/>
      <point x="345" y="209"/>
      <point x="621" y="34"/>
      <point x="985" y="34" type="curve" smooth="yes"/>
      <point x="1043" y="34"/>
      <point x="1097" y="41"/>
      <point x="1148" y="56" type="curve" smooth="no"/>
      <point x="1200" y="-172" type="line" smooth="no"/>
      <point x="1127" y="-191"/>
      <point x="1055" y="-201"/>
      <point x="985" y="-201" type="curve" smooth="yes"/>
      <point x="460" y="-201"/>
      <point x="30" y="52"/>
      <point x="30" y="563" type="curve" smooth="yes"/>
      <point x="30" y="1075"/>
      <point x="413" y="1368"/>
      <point x="934" y="1368" type="curve" smooth="yes"/>
      <point x="1405" y="1368"/>
      <point x="1790" y="1133"/>
      <point x="1790" y="674" type="curve" smooth="yes"/>
      <point x="1790" y="339"/>
      <point x="1557" y="202"/>
      <point x="1213" y="202" type="curve" smooth="yes"/>
      <point x="1063" y="202" type="line" smooth="no"/>
      <point x="1025" y="292" type="line" smooth="no"/>
      <point x="986" y="236"/>
      <point x="901" y="189"/>
      <point x="813" y="189" type="curve" smooth="yes"/>
      <point x="629" y="189"/>
      <point x="527" y="387"/>
      <point x="527" y="587" type="curve" smooth="yes"/>
      <point x="527" y="838"/>
      <point x="692" y="964"/>
    </contour>
  </outline>
</glyph>
<glyph name="A" format="1">
  <advance width="1690"/>
  <unicode hex="0041"/>
  <outline>
    <contour>
      <point x="752" y="1251" type="line" smooth="no"/>
      <point x="640" y="763" type="line" smooth="no"/>
      <point x="869" y="763" type="line" smooth="no"/>
    </contour>
    <contour>
      <point x="917" y="523" type="curve" smooth="no"/>
      <point x="594" y="523" type="line" smooth="no"/>
      <point x="567" y="359" type="line" smooth="no"/>
      <point x="710" y="359" type="line" smooth="no"/>
      <point x="710" y="0" type="line" smooth="no"/>
      <point x="32" y="0" type="line" smooth="no"/>
      <point x="32" y="359" type="line" smooth="no"/>
      <point x="189" y="359" type="line" smooth="no"/>
      <point x="431" y="1240" type="line" smooth="no"/>
      <point x="219" y="1240" type="line" smooth="no"/>
      <point x="219" y="1593" type="line" smooth="no"/>
      <point x="1213" y="1593" type="line" smooth="no"/>
      <point x="1535" y="360" type="line" smooth="no"/>
      <point x="1662" y="360" type="line" smooth="no"/>
      <point x="1662" y="0" type="line" smooth="no"/>
      <point x="835" y="0" type="line" smooth="no"/>
      <point x="835" y="359" type="line" smooth="no"/>
      <point x="955" y="359" type="line" smooth="no"/>
      <point x="956" y="359"/>
      <point x="956" y="360"/>
      <point x="956" y="362" type="curve" smooth="yes"/>
      <point x="956" y="385"/>
      <point x="917" y="523"/>
    </contour>
  </outline>
</glyph>
<glyph name="B" format="1">
  <advance width="1595"/>
  <unicode hex="0042"/>
  <outline>
    <contour>
      <point x="1000" y="1101" type="curve" smooth="yes"/>
      <point x="1000" y="1185"/>
      <point x="942" y="1240"/>
      <point x="862" y="1240" type="curve" smooth="yes"/>
      <point x="736" y="1240" type="line" smooth="no"/>
      <point x="736" y="951" type="line" smooth="no"/>
      <point x="777" y="951" type="line" smooth="yes"/>
      <point x="915" y="951"/>
      <point x="1000" y="977"/>
    </contour>
    <contour>
      <point x="1008" y="527" type="curve" smooth="yes"/>
      <point x="1008" y="645"/>
      <point x="934" y="690"/>
      <point x="810" y="690" type="curve" smooth="yes"/>
      <point x="803" y="690"/>
      <point x="778" y="690"/>
      <point x="736" y="689" type="curve" smooth="no"/>
      <point x="736" y="359" type="line" smooth="no"/>
      <point x="758" y="359" type="line" smooth="yes"/>
      <point x="891" y="359"/>
      <point x="1008" y="368"/>
    </contour>
    <contour>
      <point x="1494" y="1174" type="curve" smooth="yes"/>
      <point x="1494" y="1007"/>
      <point x="1382" y="888"/>
      <point x="1249" y="840" type="curve" smooth="no"/>
      <point x="1438" y="785"/>
      <point x="1563" y="651"/>
      <point x="1563" y="420" type="curve" smooth="yes"/>
      <point x="1563" y="101"/>
      <point x="1299" y="0"/>
      <point x="978" y="0" type="curve" smooth="yes"/>
      <point x="36" y="0" type="line" smooth="no"/>
      <point x="36" y="359" type="line" smooth="no"/>
      <point x="209" y="359" type="line" smooth="no"/>
      <point x="209" y="1240" type="line" smooth="no"/>
      <point x="43" y="1240" type="line" smooth="no"/>
      <point x="43" y="1593" type="line" smooth="no"/>
      <point x="857" y="1593" type="line" smooth="yes"/>
      <point x="1214" y="1593"/>
      <point x="1494" y="1529"/>
    </contour>
  </outline>
</glyph>
<glyph name="D" format="1">
  <advance width="1718"/>
  <unicode hex="0044"/>
  <outline>
    <contour>
      <point x="1094" y="797" type="curve" smooth="yes"/>
      <point x="1094" y="1032"/>
      <point x="1040" y="1241"/>
      <point x="799" y="1241" type="curve" smooth="yes"/>
      <point x="752" y="1241" type="line" smooth="no"/>
      <point x="752" y="359" type="line" smooth="no"/>
      <point x="787" y="359" type="line" smooth="yes"/>
      <point x="1026" y="359"/>
      <point x="1094" y="568"/>
    </contour>
    <contour>
      <point x="1688" y="796" type="curve" smooth="yes"/>
      <point x="1688" y="350"/>
      <point x="1375" y="0"/>
      <point x="844" y="0" type="curve" smooth="yes"/>
      <point x="42" y="0" type="line" smooth="no"/>
      <point x="42" y="359" type="line" smooth="no"/>
      <point x="205" y="359" type="line" smooth="no"/>
      <point x="205" y="1241" type="line" smooth="no"/>
      <point x="36" y="1241" type="line" smooth="no"/>
      <point x="36" y="1593" type="line" smooth="no"/>
      <point x="866" y="1593" type="line" smooth="yes"/>
      <point x="1407" y="1593"/>
      <point x="1688" y="1325"/>
    </contour>
  </outline>
</glyph>
<glyph name="E" format="1">
  <advance width="1359"/>
  <unicode hex="0045"/>
  <outline>
    <contour>
      <point x="1036" y="959" type="line" smooth="no"/>
      <point x="960" y="1240" type="line" smooth="no"/>
      <point x="747" y="1240" type="line" smooth="no"/>
      <point x="747" y="978" type="line" smooth="no"/>
      <point x="952" y="978" type="line" smooth="no"/>
      <point x="952" y="716" type="line" smooth="no"/>
      <point x="747" y="716" type="line" smooth="no"/>
      <point x="747" y="359" type="line" smooth="no"/>
      <point x="965" y="359" type="line" smooth="no"/>
      <point x="1042" y="677" type="line" smooth="no"/>
      <point x="1315" y="677" type="line" smooth="no"/>
      <point x="1315" y="0" type="line" smooth="no"/>
      <point x="36" y="0" type="line" smooth="no"/>
      <point x="36" y="359" type="line" smooth="no"/>
      <point x="194" y="359" type="line" smooth="no"/>
      <point x="194" y="1240" type="line" smooth="no"/>
      <point x="36" y="1240" type="line" smooth="no"/>
      <point x="36" y="1593" type="line" smooth="no"/>
      <point x="1304" y="1593" type="line" smooth="no"/>
      <point x="1304" y="959" type="line" smooth="no"/>
    </contour>
  </outline>
</glyph>
<glyph name="F" format="1">
  <advance width="1338"/>
  <unicode hex="0046"/>
  <outline>
    <contour>
      <point x="961" y="683" type="line" smooth="no"/>
      <point x="759" y="683" type="line" smooth="no"/>
      <point x="759" y="359" type="line" smooth="no"/>
      <point x="913" y="359" type="line" smooth="no"/>
      <point x="913" y="0" type="line" smooth="no"/>
      <point x="36" y="0" type="line" smooth="no"/>
      <point x="36" y="359" type="line" smooth="no"/>
      <point x="194" y="359" type="line" smooth="no"/>
      <point x="194" y="1240" type="line" smooth="no"/>
      <point x="36" y="1240" type="line" smooth="no"/>
      <point x="36" y="1593" type="line" smooth="no"/>
      <point x="1311" y="1593" type="line" smooth="no"/>
      <point x="1311" y="949" type="line" smooth="no"/>
      <point x="1027" y="949" type="line" smooth="no"/>
      <point x="963" y="1240" type="line" smooth="no"/>
      <point x="759" y="1240" type="line" smooth="no"/>
      <point x="759" y="939" type="line" smooth="no"/>
      <point x="961" y="939" type="line" smooth="no"/>
    </contour>
  </outline>
</glyph>
<glyph name="G" format="1">
  <advance width="1632"/>
  <unicode hex="0047"/>
  <outline>
    <contour>
      <point x="629" y="801" type="curve" smooth="yes"/>
      <point x="629" y="590"/>
      <point x="738" y="378"/>
      <point x="951" y="378" type="curve" smooth="yes"/>
      <point x="1050" y="378"/>
      <point x="1141" y="416"/>
      <point x="1141" y="416" type="curve" smooth="no"/>
      <point x="1141" y="558" type="line" smooth="no"/>
      <point x="973" y="558" type="line" smooth="no"/>
      <point x="973" y="862" type="line" smooth="no"/>
      <point x="1598" y="862" type="line" smooth="no"/>
      <point x="1598" y="140" type="line" smooth="no"/>
      <point x="1393" y="30"/>
      <point x="1150" y="-29"/>
      <point x="918" y="-29" type="curve" smooth="yes"/>
      <point x="454" y="-29"/>
      <point x="30" y="211"/>
      <point x="30" y="792" type="curve" smooth="yes"/>
      <point x="30" y="1233"/>
      <point x="293" y="1622"/>
      <point x="832" y="1622" type="curve" smooth="yes"/>
      <point x="961" y="1622"/>
      <point x="1066" y="1581"/>
      <point x="1145" y="1485" type="curve" smooth="no"/>
      <point x="1179" y="1593" type="line" smooth="no"/>
      <point x="1524" y="1593" type="line" smooth="no"/>
      <point x="1524" y="993" type="line" smooth="no"/>
      <point x="1216" y="993" type="line" smooth="no"/>
      <point x="1173" y="1177"/>
      <point x="1065" y="1260"/>
      <point x="953" y="1260" type="curve" smooth="yes"/>
      <point x="756" y="1260"/>
      <point x="629" y="1089"/>
    </contour>
  </outline>
</glyph>
<glyph name="H" format="1">
  <advance width="1771"/>
  <unicode hex="0048"/>
  <outline>
    <contour>
      <point x="36" y="359" type="line" smooth="no"/>
      <point x="183" y="359" type="line" smooth="no"/>
      <point x="183" y="1240" type="line" smooth="no"/>
      <point x="36" y="1240" type="line" smooth="no"/>
      <point x="36" y="1593" type="line" smooth="no"/>
      <point x="845" y="1593" type="line" smooth="no"/>
      <point x="845" y="1240" type="line" smooth="no"/>
      <point x="750" y="1240" type="line" smooth="no"/>
      <point x="750" y="976" type="line" smooth="no"/>
      <point x="1019" y="976" type="line" smooth="no"/>
      <point x="1019" y="1240" type="line" smooth="no"/>
      <point x="931" y="1240" type="line" smooth="no"/>
      <point x="931" y="1593" type="line" smooth="no"/>
      <point x="1729" y="1593" type="line" smooth="no"/>
      <point x="1729" y="1240" type="line" smooth="no"/>
      <point x="1588" y="1240" type="line" smooth="no"/>
      <point x="1588" y="359" type="line" smooth="no"/>
      <point x="1735" y="359" type="line" smooth="no"/>
      <point x="1735" y="0" type="line" smooth="no"/>
      <point x="935" y="0" type="line" smooth="no"/>
      <point x="935" y="359" type="line" smooth="no"/>
      <point x="1019" y="359" type="line" smooth="no"/>
      <point x="1019" y="635" type="line" smooth="no"/>
      <point x="750" y="635" type="line" smooth="no"/>
      <point x="750" y="359" type="line" smooth="no"/>
      <point x="846" y="359" type="line" smooth="no"/>
      <point x="846" y="0" type="line" smooth="no"/>
      <point x="36" y="0" type="line" smooth="no"/>
    </contour>
  </outline>
</glyph>
<glyph name="I" format="1">
  <advance width="940"/>
  <unicode hex="0049"/>
  <outline>
    <contour>
      <point x="904" y="1240" type="line" smooth="no"/>
      <point x="757" y="1240" type="line" smooth="no"/>
      <point x="757" y="359" type="line" smooth="no"/>
      <point x="898" y="359" type="line" smooth="no"/>
      <point x="898" y="0" type="line" smooth="no"/>
      <point x="36" y="0" type="line" smooth="no"/>
      <point x="36" y="359" type="line" smooth="no"/>
      <point x="183" y="359" type="line" smooth="no"/>
      <point x="183" y="1240" type="line" smooth="no"/>
      <point x="40" y="1240" type="line" smooth="no"/>
      <point x="40" y="1593" type="line" smooth="no"/>
      <point x="904" y="1593" type="line" smooth="no"/>
    </contour>
  </outline>
</glyph>
<glyph name="K" format="1">
  <advance width="1729"/>
  <unicode hex="004b"/>
  <outline>
    <contour>
      <point x="1010" y="307" type="curve" smooth="yes"/>
      <point x="1010" y="482" type="line" smooth="yes"/>
      <point x="1010" y="543"/>
      <point x="962" y="630"/>
      <point x="900" y="630" type="curve" smooth="yes"/>
      <point x="730" y="630" type="line" smooth="no"/>
      <point x="730" y="359" type="line" smooth="no"/>
      <point x="857" y="359" type="line" smooth="no"/>
      <point x="864" y="0" type="line" smooth="no"/>
      <point x="36" y="0" type="line" smooth="no"/>
      <point x="36" y="359" type="line" smooth="no"/>
      <point x="183" y="359" type="line" smooth="no"/>
      <point x="183" y="1240" type="line" smooth="no"/>
      <point x="36" y="1240" type="line" smooth="no"/>
      <point x="36" y="1592" type="line" smooth="no"/>
      <point x="857" y="1592" type="line" smooth="no"/>
      <point x="857" y="1240" type="line" smooth="no"/>
      <point x="730" y="1240" type="line" smooth="no"/>
      <point x="730" y="877" type="line" smooth="no"/>
      <point x="1017" y="1240" type="line" smooth="no"/>
      <point x="1017" y="1592" type="line" smooth="no"/>
      <point x="1641" y="1592" type="line" smooth="no"/>
      <point x="1641" y="1240" type="line" smooth="no"/>
      <point x="1504" y="1240" type="line" smooth="no"/>
      <point x="1185" y="854" type="line" smooth="no"/>
      <point x="1185" y="840" type="line" smooth="no"/>
      <point x="1381" y="840"/>
      <point x="1531" y="788"/>
      <point x="1531" y="592" type="curve" smooth="yes"/>
      <point x="1531" y="451" type="line" smooth="yes"/>
      <point x="1531" y="412"/>
      <point x="1555" y="359"/>
      <point x="1598" y="359" type="curve" smooth="yes"/>
      <point x="1688" y="359" type="line" smooth="no"/>
      <point x="1694" y="0" type="line" smooth="no"/>
      <point x="1346" y="0" type="line" smooth="yes"/>
      <point x="1122" y="0"/>
      <point x="1010" y="102"/>
    </contour>
  </outline>
</glyph>
<glyph name="L" format="1">
  <advance width="1341"/>
  <unicode hex="004c"/>
  <outline>
    <contour>
      <point x="750" y="359" type="line" smooth="no"/>
      <point x="941" y="359" type="line" smooth="no"/>
      <point x="1028" y="709" type="line" smooth="no"/>
      <point x="1314" y="709" type="line" smooth="no"/>
      <point x="1314" y="0" type="line" smooth="no"/>
      <point x="41" y="0" type="line" smooth="no"/>
      <point x="41" y="359" type="line" smooth="no"/>
      <point x="183" y="359" type="line" smooth="no"/>
      <point x="183" y="1240" type="line" smooth="no"/>
      <point x="36" y="1240" type="line" smooth="no"/>
      <point x="36" y="1592" type="line" smooth="no"/>
      <point x="904" y="1592" type="line" smooth="no"/>
      <point x="904" y="1240" type="line" smooth="no"/>
      <point x="750" y="1240" type="line" smooth="no"/>
    </contour>
  </outline>
</glyph>
<glyph name="M" format="1">
  <advance width="2284"/>
  <unicode hex="004d"/>
  <outline>
    <contour>
      <point x="691" y="359" type="curve" smooth="no"/>
      <point x="691" y="0" type="line" smooth="no"/>
      <point x="40" y="0" type="line" smooth="no"/>
      <point x="40" y="359" type="line" smooth="no"/>
      <point x="153" y="359"/>
      <point x="204" y="360"/>
      <point x="204" y="360" type="curve" smooth="no"/>
      <point x="204" y="1240" type="line" smooth="no"/>
      <point x="36" y="1240" type="line" smooth="no"/>
      <point x="36" y="1593" type="line" smooth="no"/>
      <point x="871" y="1593" type="line" smooth="no"/>
      <point x="1181" y="826" type="line" smooth="no"/>
      <point x="1457" y="1593" type="line" smooth="no"/>
      <point x="2241" y="1593" type="line" smooth="no"/>
      <point x="2241" y="1240" type="line" smooth="no"/>
      <point x="2094" y="1240" type="line" smooth="no"/>
      <point x="2094" y="359" type="line" smooth="no"/>
      <point x="2248" y="359" type="line" smooth="no"/>
      <point x="2248" y="0" type="line" smooth="no"/>
      <point x="1445" y="0" type="line" smooth="no"/>
      <point x="1445" y="359" type="line" smooth="no"/>
      <point x="1568" y="359" type="line" smooth="no"/>
      <point x="1568" y="947" type="line" smooth="no"/>
      <point x="1226" y="0" type="line" smooth="no"/>
      <point x="945" y="0" type="line" smooth="no"/>
      <point x="529" y="969" type="line" smooth="no"/>
      <point x="529" y="360" type="line" smooth="no"/>
      <point x="529" y="360"/>
      <point x="595" y="359"/>
    </contour>
  </outline>
</glyph>
<glyph name="N" format="1">
  <advance width="1785"/>
  <unicode hex="004e"/>
  <outline>
    <contour>
      <point x="1752" y="1240" type="line" smooth="no"/>
      <point x="1594" y="1240" type="line" smooth="no"/>
      <point x="1594" y="0" type="line" smooth="no"/>
      <point x="988" y="0" type="line" smooth="no"/>
      <point x="515" y="878" type="line" smooth="no"/>
      <point x="515" y="360" type="line" smooth="no"/>
      <point x="515" y="360"/>
      <point x="561" y="360"/>
      <point x="673" y="359" type="curve" smooth="no"/>
      <point x="673" y="0" type="line" smooth="no"/>
      <point x="36" y="0" type="line" smooth="no"/>
      <point x="36" y="359" type="line" smooth="no"/>
      <point x="138" y="359"/>
      <point x="199" y="360"/>
      <point x="199" y="360" type="curve" smooth="no"/>
      <point x="199" y="1242" type="line" smooth="no"/>
      <point x="42" y="1242" type="line" smooth="no"/>
      <point x="42" y="1593" type="line" smooth="no"/>
      <point x="777" y="1593" type="line" smooth="no"/>
      <point x="1273" y="647" type="line" smooth="no"/>
      <point x="1273" y="1240" type="line" smooth="no"/>
      <point x="1115" y="1240" type="line" smooth="no"/>
      <point x="1115" y="1592" type="line" smooth="no"/>
      <point x="1752" y="1592" type="line" smooth="no"/>
    </contour>
  </outline>
</glyph>
<glyph name="O" format="1">
  <advance width="1700"/>
  <unicode hex="004f"/>
  <outline>
    <contour>
      <point x="850" y="-29" type="curve" smooth="yes"/>
      <point x="369" y="-29"/>
      <point x="30" y="323"/>
      <point x="30" y="798" type="curve" smooth="yes"/>
      <point x="30" y="1295"/>
      <point x="345" y="1623"/>
      <point x="850" y="1623" type="curve" smooth="yes"/>
      <point x="1355" y="1623"/>
      <point x="1670" y="1295"/>
      <point x="1670" y="798" type="curve" smooth="yes"/>
      <point x="1670" y="323"/>
      <point x="1331" y="-29"/>
    </contour>
    <contour>
      <point x="850" y="318" type="curve" smooth="yes"/>
      <point x="1000" y="318"/>
      <point x="1070" y="564"/>
      <point x="1070" y="806" type="curve" smooth="yes"/>
      <point x="1070" y="1037"/>
      <point x="1006" y="1260"/>
      <point x="850" y="1260" type="curve" smooth="yes"/>
      <point x="694" y="1260"/>
      <point x="630" y="1037"/>
      <point x="630" y="806" type="curve" smooth="yes"/>
      <point x="630" y="564"/>
      <point x="700" y="318"/>
    </contour>
  </outline>
</glyph>
<glyph name="P" format="1">
  <advance width="1588"/>
  <unicode hex="0050"/>
  <outline>
    <contour>
      <point x="836" y="1240" type="curve" smooth="yes"/>
      <point x="752" y="1240" type="line" smooth="no"/>
      <point x="752" y="885" type="line" smooth="no"/>
      <point x="793" y="885" type="line" smooth="yes"/>
      <point x="944" y="885"/>
      <point x="1020" y="952"/>
      <point x="1020" y="1086" type="curve" smooth="yes"/>
      <point x="1020" y="1186"/>
      <point x="946" y="1240"/>
    </contour>
    <contour>
      <point x="901" y="559" type="curve" smooth="yes"/>
      <point x="854" y="559"/>
      <point x="804" y="562"/>
      <point x="751" y="569" type="curve" smooth="no"/>
      <point x="751" y="359" type="line" smooth="no"/>
      <point x="897" y="359" type="line" smooth="no"/>
      <point x="897" y="0" type="line" smooth="no"/>
      <point x="36" y="0" type="line" smooth="no"/>
      <point x="36" y="359" type="line" smooth="no"/>
      <point x="192" y="359" type="line" smooth="no"/>
      <point x="192" y="1240" type="line" smooth="no"/>
      <point x="41" y="1240" type="line" smooth="no"/>
      <point x="41" y="1593" type="line" smooth="no"/>
      <point x="892" y="1593" type="line" smooth="yes"/>
      <point x="1214" y="1593"/>
      <point x="1563" y="1519"/>
      <point x="1563" y="1133" type="curve" smooth="yes"/>
      <point x="1563" y="714"/>
      <point x="1326" y="559"/>
    </contour>
  </outline>
</glyph>
<glyph name="Q" format="1">
  <advance width="1753"/>
  <unicode hex="0051"/>
  <outline>
    <contour>
      <point x="850" y="318" type="curve" smooth="yes"/>
      <point x="1000" y="318"/>
      <point x="1070" y="564"/>
      <point x="1070" y="806" type="curve" smooth="yes"/>
      <point x="1070" y="1037"/>
      <point x="1006" y="1260"/>
      <point x="850" y="1260" type="curve" smooth="yes"/>
      <point x="694" y="1260"/>
      <point x="630" y="1037"/>
      <point x="630" y="806" type="curve" smooth="yes"/>
      <point x="630" y="564"/>
      <point x="700" y="318"/>
    </contour>
    <contour>
      <point x="850" y="-29" type="curve" smooth="yes"/>
      <point x="369" y="-29"/>
      <point x="30" y="323"/>
      <point x="30" y="798" type="curve" smooth="yes"/>
      <point x="30" y="1295"/>
      <point x="345" y="1623"/>
      <point x="850" y="1623" type="curve" smooth="yes"/>
      <point x="1355" y="1623"/>
      <point x="1670" y="1295"/>
      <point x="1670" y="798" type="curve" smooth="yes"/>
      <point x="1670" y="633"/>
      <point x="1629" y="484"/>
      <point x="1556" y="359" type="curve" smooth="no"/>
      <point x="1559" y="360" type="line" smooth="no"/>
      <point x="1722" y="360" type="line" smooth="no"/>
      <point x="1722" y="1" type="line" smooth="no"/>
      <point x="1084" y="1" type="line" smooth="no"/>
      <point x="1011" y="-18"/>
      <point x="932" y="-29"/>
    </contour>
  </outline>
</glyph>
<glyph name="T" format="1">
  <advance width="1557"/>
  <unicode hex="0054"/>
  <outline>
    <contour>
      <point x="1246" y="965" type="line" smooth="no"/>
      <point x="1204" y="1240" type="line" smooth="no"/>
      <point x="1058" y="1240" type="line" smooth="no"/>
      <point x="1058" y="360" type="line" smooth="no"/>
      <point x="1222" y="360" type="line" smooth="no"/>
      <point x="1222" y="0" type="line" smooth="no"/>
      <point x="331" y="0" type="line" smooth="no"/>
      <point x="331" y="360" type="line" smooth="no"/>
      <point x="495" y="360" type="line" smooth="no"/>
      <point x="495" y="1240" type="line" smooth="no"/>
      <point x="355" y="1240" type="line" smooth="no"/>
      <point x="311" y="965" type="line" smooth="no"/>
      <point x="30" y="965" type="line" smooth="no"/>
      <point x="30" y="1592" type="line" smooth="no"/>
      <point x="1527" y="1592" type="line" smooth="no"/>
      <point x="1527" y="965" type="line" smooth="no"/>
    </contour>
  </outline>
</glyph>
<glyph name="V" format="1">
  <advance width="1690"/>
  <unicode hex="0056"/>
  <outline>
    <contour>
      <point x="865" y="1240" type="line" smooth="no"/>
      <point x="749" y="1240" type="line" smooth="no"/>
      <point x="951" y="517" type="line" smooth="no"/>
      <point x="1126" y="1239" type="line" smooth="no"/>
      <point x="996" y="1239" type="line" smooth="no"/>
      <point x="996" y="1592" type="line" smooth="no"/>
      <point x="1690" y="1592" type="line" smooth="no"/>
      <point x="1690" y="1240" type="line" smooth="no"/>
      <point x="1510" y="1240" type="line" smooth="no"/>
      <point x="1111" y="0" type="line" smooth="no"/>
      <point x="527" y="0" type="line" smooth="no"/>
      <point x="166" y="1240" type="line" smooth="no"/>
      <point x="0" y="1240" type="line" smooth="no"/>
      <point x="0" y="1592" type="line" smooth="no"/>
      <point x="865" y="1592" type="line" smooth="no"/>
    </contour>
  </outline>
</glyph>
<glyph name="W" format="1">
  <advance width="2497"/>
  <unicode hex="0057"/>
  <outline>
    <contour>
      <point x="0" y="1240" type="line" smooth="no"/>
      <point x="0" y="1593" type="line" smooth="no"/>
      <point x="891" y="1593" type="line" smooth="no"/>
      <point x="891" y="1240" type="line" smooth="no"/>
      <point x="740" y="1240" type="line" smooth="no"/>
      <point x="899" y="672" type="line" smooth="no"/>
      <point x="1159" y="1593" type="line" smooth="no"/>
      <point x="1568" y="1593" type="line" smooth="no"/>
      <point x="1821" y="703" type="line" smooth="no"/>
      <point x="1976" y="1240" type="line" smooth="no"/>
      <point x="1836" y="1240" type="line" smooth="no"/>
      <point x="1836" y="1593" type="line" smooth="no"/>
      <point x="2497" y="1593" type="line" smooth="no"/>
      <point x="2497" y="1240" type="line" smooth="no"/>
      <point x="2328" y="1240" type="line" smooth="no"/>
      <point x="1987" y="0" type="line" smooth="no"/>
      <point x="1444" y="0" type="line" smooth="no"/>
      <point x="1251" y="706" type="line" smooth="no"/>
      <point x="1049" y="0" type="line" smooth="no"/>
      <point x="512" y="0" type="line" smooth="no"/>
      <point x="163" y="1240" type="line" smooth="no"/>
    </contour>
  </outline>
</glyph>
<glyph name="X" format="1">
  <advance width="1921"/>
  <unicode hex="0058"/>
  <outline>
    <contour>
      <point x="857" y="359" type="line" smooth="no"/>
      <point x="857" y="0" type="line" smooth="no"/>
      <point x="35" y="0" type="line" smooth="no"/>
      <point x="35" y="359" type="line" smooth="no"/>
      <point x="194" y="359" type="line" smooth="no"/>
      <point x="628" y="842" type="line" smooth="no"/>
      <point x="257" y="1240" type="line" smooth="no"/>
      <point x="86" y="1240" type="line" smooth="no"/>
      <point x="86" y="1593" type="line" smooth="no"/>
      <point x="1004" y="1593" type="line" smooth="no"/>
      <point x="1004" y="1240" type="line" smooth="no"/>
      <point x="922" y="1240" type="line" smooth="no"/>
      <point x="1084" y="1044" type="line" smooth="no"/>
      <point x="1232" y="1240" type="line" smooth="no"/>
      <point x="1088" y="1240" type="line" smooth="no"/>
      <point x="1088" y="1593" type="line" smooth="no"/>
      <point x="1835" y="1593" type="line" smooth="no"/>
      <point x="1835" y="1240" type="line" smooth="no"/>
      <point x="1638" y="1240" type="line" smooth="no"/>
      <point x="1305" y="809" type="line" smooth="no"/>
      <point x="1734" y="360" type="line" smooth="no"/>
      <point x="1886" y="360" type="line" smooth="no"/>
      <point x="1886" y="0" type="line" smooth="no"/>
      <point x="957" y="0" type="line" smooth="no"/>
      <point x="957" y="359" type="line" smooth="no"/>
      <point x="1083" y="359" type="line" smooth="no"/>
      <point x="840" y="614" type="line" smooth="no"/>
      <point x="634" y="359" type="line" smooth="no"/>
    </contour>
  </outline>
</glyph>
<glyph name="Y" format="1">
  <advance width="1635"/>
  <unicode hex="0059"/>
  <outline>
    <contour>
      <point x="1116" y="1240" type="line" smooth="no"/>
      <point x="969" y="1240" type="line" smooth="no"/>
      <point x="969" y="1592" type="line" smooth="no"/>
      <point x="1606" y="1592" type="line" smooth="no"/>
      <point x="1606" y="1240" type="line" smooth="no"/>
      <point x="1427" y="1240" type="line" smooth="no"/>
      <point x="1118" y="704" type="line" smooth="no"/>
      <point x="1118" y="359" type="line" smooth="no"/>
      <point x="1275" y="359" type="line" smooth="no"/>
      <point x="1275" y="0" type="line" smooth="no"/>
      <point x="406" y="0" type="line" smooth="no"/>
      <point x="406" y="359" type="line" smooth="no"/>
      <point x="561" y="359" type="line" smooth="no"/>
      <point x="561" y="652" type="line" smooth="no"/>
      <point x="140" y="1240" type="line" smooth="no"/>
      <point x="28" y="1240" type="line" smooth="no"/>
      <point x="28" y="1592" type="line" smooth="no"/>
      <point x="880" y="1592" type="line" smooth="no"/>
      <point x="880" y="1240" type="line" smooth="no"/>
      <point x="789" y="1240" type="line" smooth="no"/>
      <point x="972" y="973" type="line" smooth="no"/>
    </contour>
  </outline>
</glyph>
<glyph name="Z" format="1">
  <advance width="1487"/>
  <unicode hex="005a"/>
  <outline>
    <contour>
      <point x="1430" y="1263" type="line" smooth="no"/>
      <point x="753" y="359" type="line" smooth="no"/>
      <point x="1062" y="359" type="line" smooth="no"/>
      <point x="1169" y="695" type="line" smooth="no"/>
      <point x="1451" y="695" type="line" smooth="no"/>
      <point x="1451" y="0" type="line" smooth="no"/>
      <point x="41" y="0" type="line" smooth="no"/>
      <point x="41" y="350" type="line" smooth="no"/>
      <point x="719" y="1240" type="line" smooth="no"/>
      <point x="404" y="1240" type="line" smooth="no"/>
      <point x="324" y="928" type="line" smooth="no"/>
      <point x="36" y="928" type="line" smooth="no"/>
      <point x="36" y="1592" type="line" smooth="no"/>
      <point x="1430" y="1592" type="line" smooth="no"/>
    </contour>
  </outline>
</glyph>
<glyph name="bracketleft" format="1">
  <advance width="786"/>
  <unicode hex="005b"/>
  <outline>
    <contour>
      <point x="36" y="0" type="line" smooth="no"/>
      <point x="36" y="1623" type="line" smooth="no"/>
      <point x="750" y="1623" type="line" smooth="no"/>
      <point x="750" y="1322" type="line" smooth="no"/>
      <point x="553" y="1322" type="line" smooth="no"/>
      <point x="553" y="311" type="line" smooth="no"/>
      <point x="746" y="311" type="line" smooth="no"/>
      <point x="745" y="0" type="line" smooth="no"/>
    </contour>
  </outline>
</glyph>
<glyph name="bracketright" format="1">
  <advance width="786"/>
  <unicode hex="005d"/>
  <outline>
    <contour>
      <point x="41" y="0" type="line" smooth="no"/>
      <point x="40" y="311" type="line" smooth="no"/>
      <point x="233" y="311" type="line" smooth="no"/>
      <point x="233" y="1322" type="line" smooth="no"/>
      <point x="36" y="1322" type="line" smooth="no"/>
      <point x="36" y="1623" type="line" smooth="no"/>
      <point x="750" y="1623" type="line" smooth="no"/>
      <point x="750" y="0" type="line" smooth="no"/>
    </contour>
  </outline>
</glyph>
<glyph name="asciicircum" format="1">
  <advance width="1438"/>
  <unicode hex="005e"/>
  <outline>
    <contour>
      <point x="902" y="1624" type="line" smooth="no"/>
      <point x="1398" y="909" type="line" smooth="no"/>
      <point x="933" y="909" type="line" smooth="no"/>
      <point x="717" y="1242" type="line" smooth="no"/>
      <point x="501" y="909" type="line" smooth="no"/>
      <point x="36" y="909" type="line" smooth="no"/>
      <point x="532" y="1624" type="line" smooth="no"/>
    </contour>
  </outline>
</glyph>
<glyph name="underscore" format="1">
  <advance width="1328"/>
  <unicode hex="005f"/>
  <outline>
    <contour>
      <point x="1262" y="-1" type="line" smooth="no"/>
      <point x="1262" y="-224" type="line" smooth="no"/>
      <point x="69" y="-224" type="line" smooth="no"/>
      <point x="69" y="-1" type="line" smooth="no"/>
    </contour>
  </outline>
</glyph>
<glyph name="grave" format="1">
  <advance width="756"/>
  <unicode hex="0060"/>
  <outline>
    <contour>
      <point x="232" y="1708" type="line" smooth="no"/>
      <point x="706" y="1271" type="line" smooth="no"/>
      <point x="602" y="1130" type="line" smooth="no"/>
      <point x="48" y="1443" type="line" smooth="no"/>
    </contour>
  </outline>
</glyph>
<glyph name="a" format="1">
  <advance width="1323"/>
  <unicode hex="0061"/>
  <outline>
    <contour>
      <point x="602" y="224" type="curve" smooth="yes"/>
      <point x="646" y="224"/>
      <point x="709" y="236"/>
      <point x="709" y="260" type="curve" smooth="yes"/>
      <point x="709" y="427" type="line" smooth="no"/>
      <point x="684" y="432"/>
      <point x="647" y="438"/>
      <point x="611" y="438" type="curve" smooth="yes"/>
      <point x="538" y="438"/>
      <point x="502" y="382"/>
      <point x="502" y="327" type="curve" smooth="yes"/>
      <point x="502" y="275"/>
      <point x="535" y="224"/>
    </contour>
    <contour>
      <point x="451" y="630" type="curve" smooth="yes"/>
      <point x="552" y="630"/>
      <point x="633" y="617"/>
      <point x="709" y="592" type="curve" smooth="no"/>
      <point x="709" y="637" type="line" smooth="yes"/>
      <point x="709" y="748"/>
      <point x="643" y="803"/>
      <point x="495" y="803" type="curve" smooth="yes"/>
      <point x="400" y="803"/>
      <point x="280" y="708"/>
      <point x="280" y="708" type="curve" smooth="no"/>
      <point x="105" y="708" type="line" smooth="no"/>
      <point x="105" y="1022" type="line" smooth="no"/>
      <point x="266" y="1064"/>
      <point x="464" y="1091"/>
      <point x="588" y="1091" type="curve" smooth="yes"/>
      <point x="885" y="1091"/>
      <point x="1196" y="1032"/>
      <point x="1196" y="750" type="curve" smooth="yes"/>
      <point x="1196" y="305" type="line" smooth="no"/>
      <point x="1292" y="305" type="line" smooth="no"/>
      <point x="1292" y="0" type="line" smooth="no"/>
      <point x="760" y="0" type="line" smooth="no"/>
      <point x="709" y="119" type="line" smooth="no"/>
      <point x="652" y="44"/>
      <point x="529" y="-18"/>
      <point x="405" y="-18" type="curve" smooth="yes"/>
      <point x="208" y="-18"/>
      <point x="32" y="104"/>
      <point x="32" y="308" type="curve" smooth="yes"/>
      <point x="32" y="529"/>
      <point x="239" y="630"/>
    </contour>
  </outline>
</glyph>
<glyph name="b" format="1">
  <advance width="1438"/>
  <unicode hex="0062"/>
  <outline>
    <contour>
      <point x="942" y="509" type="curve" smooth="yes"/>
      <point x="942" y="646"/>
      <point x="918" y="779"/>
      <point x="796" y="779" type="curve" smooth="yes"/>
      <point x="728" y="779"/>
      <point x="661" y="713"/>
      <point x="661" y="713" type="curve" smooth="no"/>
      <point x="661" y="344" type="line" smooth="no"/>
      <point x="688" y="321"/>
      <point x="736" y="294"/>
      <point x="796" y="294" type="curve" smooth="yes"/>
      <point x="896" y="294"/>
      <point x="942" y="389"/>
    </contour>
    <contour>
      <point x="31" y="1495" type="line" smooth="no"/>
      <point x="656" y="1560" type="line" smooth="no"/>
      <point x="656" y="965" type="line" smooth="no"/>
      <point x="761" y="1050"/>
      <point x="863" y="1092"/>
      <point x="962" y="1092" type="curve" smooth="yes"/>
      <point x="1260" y="1092"/>
      <point x="1414" y="837"/>
      <point x="1414" y="538" type="curve" smooth="yes"/>
      <point x="1414" y="228"/>
      <point x="1254" y="-18"/>
      <point x="941" y="-18" type="curve" smooth="yes"/>
      <point x="808" y="-18"/>
      <point x="721" y="38"/>
      <point x="665" y="102" type="curve" smooth="no"/>
      <point x="625" y="0" type="line" smooth="no"/>
      <point x="174" y="0" type="line" smooth="no"/>
      <point x="174" y="1222" type="line" smooth="no"/>
      <point x="31" y="1222" type="line" smooth="no"/>
    </contour>
  </outline>
</glyph>
<glyph name="c" format="1">
  <advance width="1100"/>
  <unicode hex="0063"/>
  <outline>
    <contour>
      <point x="656" y="778" type="curve" smooth="yes"/>
      <point x="543" y="778"/>
      <point x="501" y="649"/>
      <point x="501" y="513" type="curve" smooth="yes"/>
      <point x="501" y="399"/>
      <point x="542" y="295"/>
      <point x="656" y="295" type="curve" smooth="yes"/>
      <point x="738" y="295"/>
      <point x="783" y="425"/>
      <point x="783" y="425" type="curve" smooth="no"/>
      <point x="1023" y="425" type="line" smooth="no"/>
      <point x="1023" y="124" type="line" smooth="no"/>
      <point x="1023" y="124"/>
      <point x="832" y="-18"/>
      <point x="580" y="-18" type="curve" smooth="yes"/>
      <point x="238" y="-18"/>
      <point x="30" y="200"/>
      <point x="30" y="546" type="curve" smooth="yes"/>
      <point x="30" y="860"/>
      <point x="231" y="1092"/>
      <point x="547" y="1092" type="curve" smooth="yes"/>
      <point x="638" y="1092"/>
      <point x="724" y="1060"/>
      <point x="805" y="995" type="curve" smooth="no"/>
      <point x="846" y="1072" type="line" smooth="no"/>
      <point x="1021" y="1072" type="line" smooth="no"/>
      <point x="1021" y="628" type="line" smooth="no"/>
      <point x="779" y="628" type="line" smooth="no"/>
      <point x="779" y="707"/>
      <point x="731" y="778"/>
    </contour>
  </outline>
</glyph>
<glyph name="d" format="1">
  <advance width="1419"/>
  <unicode hex="0064"/>
  <outline>
    <contour>
      <point x="496" y="558" type="curve" smooth="yes"/>
      <point x="496" y="426"/>
      <point x="526" y="294"/>
      <point x="648" y="294" type="curve" smooth="yes"/>
      <point x="716" y="294"/>
      <point x="783" y="370"/>
      <point x="783" y="370" type="curve" smooth="no"/>
      <point x="783" y="709" type="line" smooth="no"/>
      <point x="756" y="740"/>
      <point x="708" y="779"/>
      <point x="648" y="779" type="curve" smooth="yes"/>
      <point x="548" y="779"/>
      <point x="496" y="685"/>
    </contour>
    <contour>
      <point x="488" y="-19" type="curve" smooth="yes"/>
      <point x="184" y="-19"/>
      <point x="25" y="246"/>
      <point x="25" y="550" type="curve" smooth="yes"/>
      <point x="25" y="835"/>
      <point x="193" y="1090"/>
      <point x="480" y="1090" type="curve" smooth="yes"/>
      <point x="624" y="1090"/>
      <point x="704" y="1040"/>
      <point x="783" y="960" type="curve" smooth="no"/>
      <point x="783" y="1222" type="line" smooth="no"/>
      <point x="629" y="1222" type="line" smooth="no"/>
      <point x="629" y="1495" type="line" smooth="no"/>
      <point x="1270" y="1560" type="line" smooth="no"/>
      <point x="1270" y="305" type="line" smooth="no"/>
      <point x="1387" y="305" type="line" smooth="no"/>
      <point x="1387" y="0" type="line" smooth="no"/>
      <point x="783" y="0" type="line" smooth="no"/>
      <point x="783" y="128" type="line" smooth="no"/>
      <point x="722" y="47"/>
      <point x="620" y="-19"/>
    </contour>
  </outline>
</glyph>
<glyph name="e" format="1">
  <advance width="1176"/>
  <unicode hex="0065"/>
  <outline>
    <contour>
      <point x="503" y="678" type="curve" smooth="yes"/>
      <point x="503" y="649" type="line" smooth="no"/>
      <point x="718" y="649" type="line" smooth="no"/>
      <point x="718" y="670" type="line" smooth="yes"/>
      <point x="718" y="758"/>
      <point x="700" y="836"/>
      <point x="611" y="836" type="curve" smooth="yes"/>
      <point x="536" y="836"/>
      <point x="503" y="754"/>
    </contour>
    <contour>
      <point x="604" y="1092" type="curve" smooth="yes"/>
      <point x="930" y="1092"/>
      <point x="1145" y="891"/>
      <point x="1145" y="576" type="curve" smooth="yes"/>
      <point x="1145" y="531"/>
      <point x="1129" y="473"/>
      <point x="1129" y="473" type="curve" smooth="no"/>
      <point x="501" y="473" type="line" smooth="no"/>
      <point x="501" y="342"/>
      <point x="560" y="223"/>
      <point x="678" y="223" type="curve" smooth="yes"/>
      <point x="769" y="223"/>
      <point x="816" y="276"/>
      <point x="819" y="375" type="curve" smooth="no"/>
      <point x="1126" y="375" type="line" smooth="no"/>
      <point x="1126" y="128" type="line" smooth="no"/>
      <point x="970" y="31"/>
      <point x="831" y="-17"/>
      <point x="598" y="-17" type="curve" smooth="yes"/>
      <point x="267" y="-17"/>
      <point x="30" y="201"/>
      <point x="30" y="542" type="curve" smooth="yes"/>
      <point x="30" y="881"/>
      <point x="254" y="1092"/>
    </contour>
  </outline>
</glyph>
<glyph name="g" format="1">
  <advance width="1407"/>
  <unicode hex="0067"/>
  <outline>
    <contour>
      <point x="647" y="304" type="curve" smooth="yes"/>
      <point x="718" y="304"/>
      <point x="783" y="348"/>
      <point x="783" y="348" type="curve" smooth="no"/>
      <point x="783" y="745" type="line" smooth="no"/>
      <point x="752" y="766"/>
      <point x="693" y="779"/>
      <point x="639" y="779" type="curve" smooth="yes"/>
      <point x="530" y="779"/>
      <point x="502" y="653"/>
      <point x="502" y="532" type="curve" smooth="yes"/>
      <point x="502" y="418"/>
      <point x="535" y="304"/>
    </contour>
    <contour>
      <point x="152" y="-328" type="curve" smooth="no"/>
      <point x="152" y="-19" type="line" smooth="no"/>
      <point x="276" y="-64"/>
      <point x="397" y="-87"/>
      <point x="516" y="-87" type="curve" smooth="yes"/>
      <point x="686" y="-87"/>
      <point x="785" y="-53"/>
      <point x="785" y="117" type="curve" smooth="no"/>
      <point x="716" y="73"/>
      <point x="611" y="38"/>
      <point x="498" y="38" type="curve" smooth="yes"/>
      <point x="205" y="38"/>
      <point x="31" y="255"/>
      <point x="31" y="548" type="curve" smooth="yes"/>
      <point x="31" y="836"/>
      <point x="227" y="1090"/>
      <point x="510" y="1090" type="curve" smooth="yes"/>
      <point x="611" y="1090"/>
      <point x="719" y="1059"/>
      <point x="834" y="997" type="curve" smooth="no"/>
      <point x="867" y="1072" type="line" smooth="no"/>
      <point x="1377" y="1072" type="line" smooth="no"/>
      <point x="1377" y="761" type="line" smooth="no"/>
      <point x="1270" y="761" type="line" smooth="no"/>
      <point x="1270" y="135" type="line" smooth="yes"/>
      <point x="1270" y="-214"/>
      <point x="1030" y="-389"/>
      <point x="539" y="-389" type="curve" smooth="yes"/>
      <point x="405" y="-389"/>
      <point x="152" y="-328"/>
    </contour>
  </outline>
</glyph>
<glyph name="h" format="1">
  <advance width="1426"/>
  <unicode hex="0068"/>
  <outline>
    <contour>
      <point x="942" y="1090" type="curve" smooth="yes"/>
      <point x="1178" y="1090"/>
      <point x="1297" y="944"/>
      <point x="1297" y="702" type="curve" smooth="yes"/>
      <point x="1297" y="305" type="line" smooth="no"/>
      <point x="1403" y="305" type="line" smooth="no"/>
      <point x="1403" y="0" type="line" smooth="no"/>
      <point x="810" y="0" type="line" smooth="no"/>
      <point x="810" y="654" type="line" smooth="yes"/>
      <point x="810" y="737"/>
      <point x="782" y="779"/>
      <point x="727" y="779" type="curve" smooth="yes"/>
      <point x="660" y="779"/>
      <point x="626" y="740"/>
      <point x="626" y="661" type="curve" smooth="yes"/>
      <point x="626" y="305" type="line" smooth="no"/>
      <point x="719" y="305" type="line" smooth="no"/>
      <point x="719" y="0" type="line" smooth="no"/>
      <point x="40" y="0" type="line" smooth="no"/>
      <point x="40" y="305" type="line" smooth="no"/>
      <point x="139" y="305" type="line" smooth="no"/>
      <point x="139" y="1222" type="line" smooth="no"/>
      <point x="35" y="1222" type="line" smooth="no"/>
      <point x="35" y="1495" type="line" smooth="no"/>
      <point x="626" y="1560" type="line" smooth="no"/>
      <point x="626" y="916" type="line" smooth="no"/>
      <point x="675" y="1004"/>
      <point x="776" y="1090"/>
    </contour>
  </outline>
</glyph>
<glyph name="i" format="1">
  <advance width="762"/>
  <unicode hex="0069"/>
  <outline>
    <contour>
      <point x="629" y="1385" type="curve" smooth="yes"/>
      <point x="629" y="1229"/>
      <point x="500" y="1135"/>
      <point x="342" y="1135" type="curve" smooth="yes"/>
      <point x="187" y="1135"/>
      <point x="65" y="1230"/>
      <point x="65" y="1385" type="curve" smooth="yes"/>
      <point x="65" y="1540"/>
      <point x="185" y="1630"/>
      <point x="342" y="1630" type="curve" smooth="yes"/>
      <point x="503" y="1630"/>
      <point x="629" y="1542"/>
    </contour>
    <contour>
      <point x="629" y="1072" type="line" smooth="no"/>
      <point x="629" y="305" type="line" smooth="no"/>
      <point x="733" y="305" type="line" smooth="no"/>
      <point x="733" y="0" type="line" smooth="no"/>
      <point x="40" y="0" type="line" smooth="no"/>
      <point x="40" y="305" type="line" smooth="no"/>
      <point x="142" y="305" type="line" smooth="no"/>
      <point x="142" y="761" type="line" smooth="no"/>
      <point x="33" y="761" type="line" smooth="no"/>
      <point x="33" y="1072" type="line" smooth="no"/>
    </contour>
  </outline>
</glyph>
<glyph name="j" format="1">
  <advance width="692"/>
  <unicode hex="006a"/>
  <outline>
    <contour>
      <point x="659" y="1385" type="curve" smooth="yes"/>
      <point x="659" y="1229"/>
      <point x="530" y="1135"/>
      <point x="372" y="1135" type="curve" smooth="yes"/>
      <point x="217" y="1135"/>
      <point x="95" y="1230"/>
      <point x="95" y="1385" type="curve" smooth="yes"/>
      <point x="95" y="1540"/>
      <point x="215" y="1630"/>
      <point x="372" y="1630" type="curve" smooth="yes"/>
      <point x="533" y="1630"/>
      <point x="659" y="1542"/>
    </contour>
    <contour>
      <point x="169" y="-9" type="line" smooth="no"/>
      <point x="167" y="-65"/>
      <point x="97" y="-72"/>
      <point x="44" y="-72" type="curve" smooth="yes"/>
      <point x="32" y="-72" type="line" smooth="no"/>
      <point x="32" y="-398" type="line" smooth="no"/>
      <point x="449" y="-398"/>
      <point x="656" y="-269"/>
      <point x="656" y="129" type="curve" smooth="yes"/>
      <point x="656" y="1072" type="line" smooth="no"/>
      <point x="39" y="1072" type="line" smooth="no"/>
      <point x="39" y="761" type="line" smooth="no"/>
      <point x="169" y="761" type="line" smooth="no"/>
    </contour>
  </outline>
</glyph>
<glyph name="l" format="1">
  <advance width="774"/>
  <unicode hex="006c"/>
  <outline>
    <contour>
      <point x="645" y="304" type="line" smooth="no"/>
      <point x="743" y="304" type="line" smooth="no"/>
      <point x="743" y="0" type="line" smooth="no"/>
      <point x="43" y="0" type="line" smooth="no"/>
      <point x="43" y="304" type="line" smooth="no"/>
      <point x="158" y="304" type="line" smooth="no"/>
      <point x="158" y="1222" type="line" smooth="no"/>
      <point x="33" y="1222" type="line" smooth="no"/>
      <point x="33" y="1495" type="line" smooth="no"/>
      <point x="645" y="1560" type="line" smooth="no"/>
    </contour>
  </outline>
</glyph>
<glyph name="m" format="1">
  <advance width="2075"/>
  <unicode hex="006d"/>
  <outline>
    <contour>
      <point x="35" y="1032" type="line" smooth="no"/>
      <point x="591" y="1092" type="line" smooth="no"/>
      <point x="591" y="902" type="line" smooth="no"/>
      <point x="664" y="1003"/>
      <point x="788" y="1092"/>
      <point x="956" y="1092" type="curve" smooth="yes"/>
      <point x="1091" y="1092"/>
      <point x="1177" y="996"/>
      <point x="1224" y="891" type="curve" smooth="no"/>
      <point x="1314" y="1025"/>
      <point x="1430" y="1092"/>
      <point x="1573" y="1092" type="curve" smooth="yes"/>
      <point x="1798" y="1092"/>
      <point x="1923" y="958"/>
      <point x="1923" y="729" type="curve" smooth="yes"/>
      <point x="1923" y="305" type="line" smooth="no"/>
      <point x="2042" y="305" type="line" smooth="no"/>
      <point x="2042" y="0" type="line" smooth="no"/>
      <point x="1468" y="0" type="line" smooth="no"/>
      <point x="1468" y="671" type="line" smooth="no"/>
      <point x="1462" y="731"/>
      <point x="1432" y="779"/>
      <point x="1368" y="779" type="curve" smooth="yes"/>
      <point x="1279" y="779"/>
      <point x="1248" y="702"/>
      <point x="1248" y="615" type="curve" smooth="yes"/>
      <point x="1248" y="305" type="line" smooth="no"/>
      <point x="1333" y="305" type="line" smooth="no"/>
      <point x="1333" y="0" type="line" smooth="no"/>
      <point x="811" y="0" type="line" smooth="no"/>
      <point x="811" y="674" type="line" smooth="yes"/>
      <point x="811" y="741"/>
      <point x="774" y="779"/>
      <point x="699" y="779" type="curve" smooth="yes"/>
      <point x="610" y="779"/>
      <point x="591" y="671"/>
      <point x="591" y="582" type="curve" smooth="yes"/>
      <point x="591" y="304" type="line" smooth="no"/>
      <point x="671" y="304" type="line" smooth="no"/>
      <point x="671" y="0" type="line" smooth="no"/>
      <point x="35" y="0" type="line" smooth="no"/>
      <point x="35" y="305" type="line" smooth="no"/>
      <point x="149" y="305" type="line" smooth="no"/>
      <point x="149" y="761" type="line" smooth="no"/>
      <point x="35" y="761" type="line" smooth="no"/>
    </contour>
  </outline>
</glyph>
<glyph name="n" format="1">
  <advance width="1470"/>
  <unicode hex="006e"/>
  <outline>
    <contour>
      <point x="996" y="1092" type="curve" smooth="yes"/>
      <point x="1216" y="1092"/>
      <point x="1319" y="955"/>
      <point x="1319" y="680" type="curve" smooth="yes"/>
      <point x="1319" y="305" type="line" smooth="no"/>
      <point x="1439" y="305" type="line" smooth="no"/>
      <point x="1439" y="0" type="line" smooth="no"/>
      <point x="832" y="0" type="line" smooth="no"/>
      <point x="832" y="669" type="line" smooth="yes"/>
      <point x="832" y="726"/>
      <point x="796" y="779"/>
      <point x="742" y="779" type="curve" smooth="yes"/>
      <point x="680" y="779"/>
      <point x="638" y="728"/>
      <point x="638" y="666" type="curve" smooth="yes"/>
      <point x="638" y="305" type="line" smooth="no"/>
      <point x="726" y="305" type="line" smooth="no"/>
      <point x="726" y="0" type="line" smooth="no"/>
      <point x="35" y="0" type="line" smooth="no"/>
      <point x="35" y="305" type="line" smooth="no"/>
      <point x="151" y="305" type="line" smooth="no"/>
      <point x="151" y="761" type="line" smooth="no"/>
      <point x="35" y="761" type="line" smooth="no"/>
      <point x="35" y="1032" type="line" smooth="no"/>
      <point x="638" y="1092" type="line" smooth="no"/>
      <point x="638" y="916" type="line" smooth="no"/>
      <point x="706" y="1021"/>
      <point x="829" y="1092"/>
    </contour>
  </outline>
</glyph>
<glyph name="o" format="1">
  <advance width="1262"/>
  <unicode hex="006f"/>
  <outline>
    <contour>
      <point x="631" y="294" type="curve" smooth="yes"/>
      <point x="715" y="294"/>
      <point x="761" y="422"/>
      <point x="761" y="546" type="curve" smooth="yes"/>
      <point x="761" y="664"/>
      <point x="720" y="779"/>
      <point x="631" y="779" type="curve" smooth="yes"/>
      <point x="542" y="779"/>
      <point x="501" y="664"/>
      <point x="501" y="546" type="curve" smooth="yes"/>
      <point x="501" y="422"/>
      <point x="546" y="294"/>
    </contour>
    <contour>
      <point x="631" y="1091" type="curve" smooth="yes"/>
      <point x="991" y="1091"/>
      <point x="1232" y="902"/>
      <point x="1232" y="547" type="curve" smooth="yes"/>
      <point x="1232" y="187"/>
      <point x="992" y="-18"/>
      <point x="631" y="-18" type="curve" smooth="yes"/>
      <point x="270" y="-18"/>
      <point x="30" y="187"/>
      <point x="30" y="547" type="curve" smooth="yes"/>
      <point x="30" y="902"/>
      <point x="271" y="1091"/>
    </contour>
  </outline>
</glyph>
<glyph name="p" format="1">
  <advance width="1431"/>
  <unicode hex="0070"/>
  <outline>
    <contour>
      <point x="934" y="535" type="curve" smooth="yes"/>
      <point x="934" y="699"/>
      <point x="880" y="779"/>
      <point x="771" y="779" type="curve" smooth="yes"/>
      <point x="701" y="779"/>
      <point x="639" y="685"/>
      <point x="639" y="685" type="curve" smooth="no"/>
      <point x="639" y="390" type="line" smooth="no"/>
      <point x="639" y="390"/>
      <point x="700" y="294"/>
      <point x="767" y="294" type="curve" smooth="yes"/>
      <point x="893" y="294"/>
      <point x="934" y="405"/>
    </contour>
    <contour>
      <point x="953" y="1093" type="curve" smooth="yes"/>
      <point x="1249" y="1093"/>
      <point x="1405" y="839"/>
      <point x="1405" y="541" type="curve" smooth="yes"/>
      <point x="1405" y="242"/>
      <point x="1252" y="-17"/>
      <point x="951" y="-17" type="curve" smooth="yes"/>
      <point x="805" y="-17"/>
      <point x="721" y="53"/>
      <point x="639" y="119" type="curve" smooth="no"/>
      <point x="639" y="-96" type="line" smooth="no"/>
      <point x="750" y="-96" type="line" smooth="no"/>
      <point x="750" y="-397" type="line" smooth="no"/>
      <point x="35" y="-397" type="line" smooth="no"/>
      <point x="35" y="-94" type="line" smooth="no"/>
      <point x="152" y="-94" type="line" smooth="no"/>
      <point x="152" y="761" type="line" smooth="no"/>
      <point x="35" y="761" type="line" smooth="no"/>
      <point x="35" y="1030" type="line" smooth="no"/>
      <point x="639" y="1092" type="line" smooth="no"/>
      <point x="639" y="922" type="line" smooth="no"/>
      <point x="696" y="1003"/>
      <point x="795" y="1093"/>
    </contour>
  </outline>
</glyph>
<glyph name="q" format="1">
  <advance width="1411"/>
  <unicode hex="0071"/>
  <outline>
    <contour>
      <point x="643" y="329" type="curve" smooth="yes"/>
      <point x="707" y="329"/>
      <point x="772" y="384"/>
      <point x="772" y="384" type="curve" smooth="no"/>
      <point x="772" y="711" type="line" smooth="no"/>
      <point x="772" y="711"/>
      <point x="705" y="768"/>
      <point x="640" y="768" type="curve" smooth="yes"/>
      <point x="545" y="768"/>
      <point x="497" y="697"/>
      <point x="497" y="554" type="curve" smooth="yes"/>
      <point x="497" y="440"/>
      <point x="530" y="329"/>
    </contour>
    <contour>
      <point x="490" y="1092" type="curve" smooth="yes"/>
      <point x="624" y="1092"/>
      <point x="692" y="1055"/>
      <point x="772" y="985" type="curve" smooth="no"/>
      <point x="845" y="1072" type="line" smooth="no"/>
      <point x="1353" y="1072" type="line" smooth="no"/>
      <point x="1353" y="761" type="line" smooth="no"/>
      <point x="1259" y="761" type="line" smooth="no"/>
      <point x="1259" y="-94" type="line" smooth="no"/>
      <point x="1377" y="-94" type="line" smooth="no"/>
      <point x="1377" y="-398" type="line" smooth="no"/>
      <point x="661" y="-398" type="line" smooth="no"/>
      <point x="661" y="-96" type="line" smooth="no"/>
      <point x="772" y="-96" type="line" smooth="no"/>
      <point x="772" y="128" type="line" smooth="no"/>
      <point x="704" y="50"/>
      <point x="613" y="-17"/>
      <point x="472" y="-17" type="curve" smooth="yes"/>
      <point x="163" y="-17"/>
      <point x="26" y="257"/>
      <point x="26" y="571" type="curve" smooth="yes"/>
      <point x="26" y="859"/>
      <point x="203" y="1092"/>
    </contour>
  </outline>
</glyph>
<glyph name="r" format="1">
  <advance width="981"/>
  <unicode hex="0072"/>
  <outline>
    <contour>
      <point x="34" y="1032" type="line" smooth="no"/>
      <point x="637" y="1092" type="line" smooth="no"/>
      <point x="637" y="917" type="line" smooth="no"/>
      <point x="704" y="1026"/>
      <point x="851" y="1091"/>
      <point x="951" y="1091" type="curve" smooth="no"/>
      <point x="911" y="707" type="line" smooth="no"/>
      <point x="882" y="714"/>
      <point x="855" y="717"/>
      <point x="830" y="717" type="curve" smooth="yes"/>
      <point x="699" y="717"/>
      <point x="619" y="627"/>
      <point x="619" y="496" type="curve" smooth="yes"/>
      <point x="619" y="305" type="line" smooth="no"/>
      <point x="756" y="305" type="line" smooth="no"/>
      <point x="756" y="0" type="line" smooth="no"/>
      <point x="35" y="0" type="line" smooth="no"/>
      <point x="35" y="305" type="line" smooth="no"/>
      <point x="151" y="305" type="line" smooth="no"/>
      <point x="151" y="761" type="line" smooth="no"/>
      <point x="34" y="761" type="line" smooth="no"/>
    </contour>
  </outline>
</glyph>
<glyph name="r" format="1">
  <advance width="981"/>
  <unicode hex="0072"/>
  <outline>
    <contour>
      <point x="34" y="1032" type="line" smooth="no"/>
      <point x="637" y="1092" type="line" smooth="no"/>
      <point x="637" y="917" type="line" smooth="no"/>
      <point x="699.732" y="1026"/>
      <point x="837.369" y="1091"/>
      <point x="931" y="1091" type="curve" smooth="no"/>
      <point x="929" y="707" type="line" smooth="no"/>
      <point x="893.556" y="714"/>
      <point x="860.556" y="717"/>
      <point x="830" y="717" type="curve" smooth="yes"/>
      <point x="699" y="717"/>
      <point x="619" y="627"/>
      <point x="619" y="496" type="curve" smooth="yes"/>
      <point x="619" y="305" type="line" smooth="no"/>
      <point x="756" y="305" type="line" smooth="no"/>
      <point x="756" y="0" type="line" smooth="no"/>
      <point x="35" y="0" type="line" smooth="no"/>
      <point x="35" y="305" type="line" smooth="no"/>
      <point x="151" y="305" type="line" smooth="no"/>
      <point x="151" y="761" type="line" smooth="no"/>
      <point x="34" y="761" type="line" smooth="no"/>
    </contour>
  </outline>
</glyph>
<glyph name="s" format="1">
  <advance width="1120"/>
  <unicode hex="0073"/>
  <outline>
    <contour>
      <point x="579" y="830" type="curve" smooth="yes"/>
      <point x="579" y="766"/>
      <point x="656" y="741"/>
      <point x="719" y="724" type="curve" smooth="yes"/>
      <point x="919" y="672"/>
      <point x="1050" y="570"/>
      <point x="1050" y="355" type="curve" smooth="yes"/>
      <point x="1050" y="118.5"/>
      <point x="884" y="-18"/>
      <point x="599" y="-18" type="curve" smooth="yes"/>
      <point x="456" y="-18"/>
      <point x="344.5" y="42.5"/>
      <point x="280" y="116" type="curve" smooth="no"/>
      <point x="264" y="0" type="line" smooth="no"/>
      <point x="67" y="0" type="line" smooth="no"/>
      <point x="67" y="397" type="line" smooth="no"/>
      <point x="295" y="397" type="line" smooth="no"/>
      <point x="310" y="314"/>
      <point x="345" y="229"/>
      <point x="445" y="229" type="curve" smooth="yes"/>
      <point x="497" y="229"/>
      <point x="523" y="255"/>
      <point x="523" y="307" type="curve" smooth="yes"/>
      <point x="523" y="361"/>
      <point x="479" y="390"/>
      <point x="434" y="406" type="curve" smooth="yes"/>
      <point x="242" y="476"/>
      <point x="74" y="535.5"/>
      <point x="74" y="756" type="curve" smooth="yes"/>
      <point x="74" y="996"/>
      <point x="257" y="1091"/>
      <point x="510" y="1091" type="curve" smooth="yes"/>
      <point x="708.5" y="1091"/>
      <point x="814" y="982"/>
      <point x="814" y="982" type="curve" smooth="no"/>
      <point x="851" y="1072" type="line" smooth="no"/>
      <point x="1019" y="1072" type="line" smooth="no"/>
      <point x="1019" y="741" type="line" smooth="no"/>
      <point x="818" y="741" type="line" smooth="no"/>
      <point x="782" y="830"/>
      <point x="771" y="897"/>
      <point x="671" y="897" type="curve" smooth="yes"/>
      <point x="624" y="897"/>
      <point x="579" y="877"/>
    </contour>
  </outline>
</glyph>
<glyph name="u" format="1">
  <advance width="1466"/>
  <unicode hex="0075"/>
  <outline>
    <contour>
      <point x="728" y="1032" type="line" smooth="no"/>
      <point x="1314" y="1092" type="line" smooth="no"/>
      <point x="1314" y="305" type="line" smooth="no"/>
      <point x="1434" y="305" type="line" smooth="no"/>
      <point x="1434" y="0" type="line" smooth="no"/>
      <point x="828" y="0" type="line" smooth="no"/>
      <point x="828" y="156" type="line" smooth="no"/>
      <point x="760" y="51"/>
      <point x="638" y="-18"/>
      <point x="470" y="-18" type="curve" smooth="yes"/>
      <point x="257" y="-18"/>
      <point x="147" y="116"/>
      <point x="147" y="385" type="curve" smooth="yes"/>
      <point x="147" y="761" type="line" smooth="no"/>
      <point x="31" y="761" type="line" smooth="no"/>
      <point x="31" y="1032" type="line" smooth="no"/>
      <point x="634" y="1092" type="line" smooth="no"/>
      <point x="634" y="438" type="line" smooth="yes"/>
      <point x="634" y="378"/>
      <point x="668" y="318"/>
      <point x="724" y="318" type="curve" smooth="yes"/>
      <point x="787" y="318"/>
      <point x="827" y="372"/>
      <point x="827" y="436" type="curve" smooth="yes"/>
      <point x="827" y="761" type="line" smooth="no"/>
      <point x="728" y="761" type="line" smooth="no"/>
    </contour>
  </outline>
</glyph>
<glyph name="v" format="1">
  <advance width="1405"/>
  <unicode hex="0076"/>
  <outline>
    <contour>
      <point x="174" y="761" type="line" smooth="no"/>
      <point x="27" y="761" type="line" smooth="no"/>
      <point x="27" y="1072" type="line" smooth="no"/>
      <point x="713" y="1072" type="line" smooth="no"/>
      <point x="713" y="761" type="line" smooth="no"/>
      <point x="620" y="761" type="line" smooth="no"/>
      <point x="787" y="298" type="line" smooth="no"/>
      <point x="930" y="761" type="line" smooth="no"/>
      <point x="827" y="761" type="line" smooth="no"/>
      <point x="827" y="1072" type="line" smooth="no"/>
      <point x="1378" y="1072" type="line" smooth="no"/>
      <point x="1378" y="761" type="line" smooth="no"/>
      <point x="1235" y="761" type="line" smooth="no"/>
      <point x="944" y="0" type="line" smooth="no"/>
      <point x="481" y="0" type="line" smooth="no"/>
    </contour>
  </outline>
</glyph>
<glyph name="w" format="1">
  <advance width="1956"/>
  <unicode hex="0077"/>
  <outline>
    <contour>
      <point x="1487" y="761" type="line" smooth="no"/>
      <point x="1369" y="761" type="line" smooth="no"/>
      <point x="1369" y="1072" type="line" smooth="no"/>
      <point x="1926" y="1072" type="line" smooth="no"/>
      <point x="1926" y="761" type="line" smooth="no"/>
      <point x="1784" y="761" type="line" smooth="no"/>
      <point x="1558" y="0" type="line" smooth="no"/>
      <point x="1083" y="0" type="line" smooth="no"/>
      <point x="953" y="430" type="line" smooth="no"/>
      <point x="802" y="0" type="line" smooth="no"/>
      <point x="358" y="0" type="line" smooth="no"/>
      <point x="100" y="761" type="line" smooth="no"/>
      <point x="31" y="761" type="line" smooth="no"/>
      <point x="31" y="1072" type="line" smooth="no"/>
      <point x="695" y="1072" type="line" smooth="no"/>
      <point x="695" y="761" type="line" smooth="no"/>
      <point x="581" y="761" type="line" smooth="no"/>
      <point x="694" y="392" type="line" smooth="no"/>
      <point x="904" y="1072" type="line" smooth="no"/>
      <point x="1170" y="1072" type="line" smooth="no"/>
      <point x="1388" y="379" type="line" smooth="no"/>
    </contour>
  </outline>
</glyph>
<glyph name="x" format="1">
  <advance width="1236"/>
  <unicode hex="0078"/>
  <outline>
    <contour>
      <point x="1201" y="0" type="line" smooth="no"/>
      <point x="728" y="0" type="line" smooth="no"/>
      <point x="539" y="277" type="line" smooth="no"/>
      <point x="332" y="0" type="line" smooth="no"/>
      <point x="35" y="0" type="line" smooth="no"/>
      <point x="35" y="305" type="line" smooth="no"/>
      <point x="186" y="305" type="line" smooth="no"/>
      <point x="366" y="512" type="line" smooth="no"/>
      <point x="184" y="761" type="line" smooth="no"/>
      <point x="55" y="761" type="line" smooth="no"/>
      <point x="55" y="1072" type="line" smooth="no"/>
      <point x="549" y="1072" type="line" smooth="no"/>
      <point x="711" y="821" type="line" smooth="no"/>
      <point x="896" y="1072" type="line" smooth="no"/>
      <point x="1170" y="1072" type="line" smooth="no"/>
      <point x="1170" y="761" type="line" smooth="no"/>
      <point x="1040" y="761" type="line" smooth="no"/>
      <point x="877" y="580" type="line" smooth="no"/>
      <point x="1070" y="305" type="line" smooth="no"/>
      <point x="1201" y="305" type="line" smooth="no"/>
    </contour>
  </outline>
</glyph>
<glyph name="y" format="1">
  <advance width="1475"/>
  <unicode hex="0079"/>
  <outline>
    <contour>
      <point x="315" y="-377" type="line" smooth="no"/>
      <point x="315" y="-62" type="line" smooth="no"/>
      <point x="567" y="-62" type="line" smooth="no"/>
      <point x="622" y="31" type="line" smooth="no"/>
      <point x="156" y="761" type="line" smooth="no"/>
      <point x="28" y="761" type="line" smooth="no"/>
      <point x="28" y="1072" type="line" smooth="no"/>
      <point x="778" y="1072" type="line" smooth="no"/>
      <point x="778" y="761" type="line" smooth="no"/>
      <point x="680" y="761" type="line" smooth="no"/>
      <point x="846" y="454" type="line" smooth="no"/>
      <point x="998" y="761" type="line" smooth="no"/>
      <point x="888" y="761" type="line" smooth="no"/>
      <point x="888" y="1072" type="line" smooth="no"/>
      <point x="1448" y="1072" type="line" smooth="no"/>
      <point x="1448" y="761" type="line" smooth="no"/>
      <point x="1339" y="761" type="line" smooth="no"/>
      <point x="764" y="-374" type="line" smooth="no"/>
    </contour>
  </outline>
</glyph>
<glyph name="z" format="1">
  <advance width="1155"/>
  <unicode hex="007a"/>
  <outline>
    <contour>
      <point x="323" y="779" type="line" smooth="no"/>
      <point x="259" y="636" type="line" smooth="no"/>
      <point x="62" y="636" type="line" smooth="no"/>
      <point x="62" y="1072" type="line" smooth="no"/>
      <point x="1084" y="1072" type="line" smooth="no"/>
      <point x="1084" y="795" type="line" smooth="no"/>
      <point x="615" y="294" type="line" smooth="no"/>
      <point x="902" y="294" type="line" smooth="no"/>
      <point x="937" y="451" type="line" smooth="no"/>
      <point x="1120" y="451" type="line" smooth="no"/>
      <point x="1120" y="0" type="line" smooth="no"/>
      <point x="35" y="0" type="line" smooth="no"/>
      <point x="35" y="283" type="line" smooth="no"/>
      <point x="529" y="779" type="line" smooth="no"/>
    </contour>
  </outline>
</glyph>
<glyph name="braceleft" format="1">
  <advance width="858"/>
  <unicode hex="007b"/>
  <outline>
    <contour>
      <point x="822" y="-18" type="line" smooth="no"/>
      <point x="438" y="-18"/>
      <point x="177" y="183"/>
      <point x="177" y="559" type="curve" smooth="yes"/>
      <point x="177" y="670"/>
      <point x="123" y="718"/>
      <point x="12" y="722" type="curve" smooth="no"/>
      <point x="12" y="962" type="line" smooth="no"/>
      <point x="122" y="966"/>
      <point x="176" y="1014"/>
      <point x="176" y="1125" type="curve" smooth="yes"/>
      <point x="176" y="1501"/>
      <point x="438" y="1702"/>
      <point x="822" y="1702" type="curve" smooth="no"/>
      <point x="822" y="1371" type="line" smooth="no"/>
      <point x="714" y="1371"/>
      <point x="660" y="1289"/>
      <point x="660" y="1125" type="curve" smooth="yes"/>
      <point x="660" y="998"/>
      <point x="576" y="903"/>
      <point x="409" y="841" type="curve" smooth="no"/>
      <point x="576" y="780"/>
      <point x="660" y="686"/>
      <point x="660" y="559" type="curve" smooth="yes"/>
      <point x="660" y="395"/>
      <point x="714" y="313"/>
      <point x="822" y="313" type="curve" smooth="no"/>
    </contour>
    <contour>
      <point x="12" y="962" type="line" smooth="yes"/>
      <point x="12" y="965" type="line" smooth="no"/>
      <point x="11" y="962" type="line" smooth="yes"/>
    </contour>
  </outline>
</glyph>
<glyph name="bar" format="1">
  <advance width="467"/>
  <unicode hex="007c"/>
  <outline>
    <contour>
      <point x="431" y="1623" type="line" smooth="no"/>
      <point x="431" y="0" type="line" smooth="no"/>
      <point x="36" y="0" type="line" smooth="no"/>
      <point x="36" y="1623" type="line" smooth="no"/>
    </contour>
  </outline>
</glyph>
<glyph name="braceright" format="1">
  <advance width="858"/>
  <unicode hex="007d"/>
  <outline>
    <contour>
      <point x="36" y="1704" type="line" smooth="no"/>
      <point x="420" y="1704"/>
      <point x="681" y="1504"/>
      <point x="681" y="1128" type="curve" smooth="yes"/>
      <point x="681" y="1017"/>
      <point x="735" y="969"/>
      <point x="846" y="965" type="curve" smooth="no"/>
      <point x="846" y="724" type="line" smooth="no"/>
      <point x="736" y="720"/>
      <point x="682" y="672"/>
      <point x="682" y="561" type="curve" smooth="yes"/>
      <point x="682" y="185"/>
      <point x="420" y="-16"/>
      <point x="36" y="-16" type="curve" smooth="no"/>
      <point x="36" y="315" type="line" smooth="no"/>
      <point x="144" y="315"/>
      <point x="198" y="397"/>
      <point x="198" y="561" type="curve" smooth="yes"/>
      <point x="198" y="688"/>
      <point x="282" y="782"/>
      <point x="449" y="843" type="curve" smooth="no"/>
      <point x="282" y="905"/>
      <point x="198" y="1000"/>
      <point x="198" y="1127" type="curve" smooth="yes"/>
      <point x="198" y="1291"/>
      <point x="144" y="1373"/>
      <point x="36" y="1373" type="curve" smooth="no"/>
    </contour>
    <contour>
      <point x="846" y="724" type="line" smooth="yes"/>
      <point x="846" y="722" type="line" smooth="no"/>
      <point x="847" y="724" type="line" smooth="yes"/>
    </contour>
  </outline>
</glyph>
<glyph name="asciitilde" format="1">
  <advance width="1270"/>
  <unicode hex="007e"/>
  <outline>
    <contour>
      <point x="907" y="922" type="curve" smooth="yes"/>
      <point x="985" y="922"/>
      <point x="1117" y="1116"/>
      <point x="1117" y="1116" type="curve" smooth="no"/>
      <point x="1246" y="1031" type="line" smooth="no"/>
      <point x="1156" y="897"/>
      <point x="1112" y="629"/>
      <point x="895" y="629" type="curve" smooth="no"/>
      <point x="893" y="631" type="line" smooth="no"/>
      <point x="667" y="631"/>
      <point x="578" y="833"/>
      <point x="367" y="833" type="curve" smooth="yes"/>
      <point x="288" y="833"/>
      <point x="155" y="634"/>
      <point x="155" y="634" type="curve" smooth="no"/>
      <point x="24" y="720" type="line" smooth="no"/>
      <point x="113" y="856"/>
      <point x="160" y="1121"/>
      <point x="378" y="1121" type="curve" smooth="yes"/>
      <point x="604" y="1121"/>
      <point x="694" y="922"/>
    </contour>
  </outline>
</glyph>
<glyph name="exclamdown" format="1">
  <advance width="689"/>
  <unicode hex="00a1"/>
  <outline>
    <contour>
      <point x="631" y="1408" type="curve" smooth="yes"/>
      <point x="631" y="1251"/>
      <point x="503" y="1158"/>
      <point x="345" y="1158" type="curve" smooth="no"/>
      <point x="343" y="1157" type="line" smooth="no"/>
      <point x="188" y="1157"/>
      <point x="66" y="1253"/>
      <point x="66" y="1408" type="curve" smooth="yes"/>
      <point x="66" y="1562"/>
      <point x="187" y="1653"/>
      <point x="344" y="1653" type="curve" smooth="yes"/>
      <point x="505" y="1653"/>
      <point x="631" y="1565"/>
    </contour>
    <contour>
      <point x="556" y="1072" type="line" smooth="no"/>
      <point x="135" y="1074" type="line" smooth="no"/>
      <point x="53" y="299" type="line" smooth="no"/>
      <point x="53" y="0" type="line" smooth="no"/>
      <point x="640" y="0" type="line" smooth="no"/>
      <point x="640" y="299" type="line" smooth="no"/>
    </contour>
  </outline>
</glyph>
<glyph name="cent" format="1">
  <advance width="1101"/>
  <unicode hex="00a2"/>
  <outline>
    <contour>
      <point x="520" y="512" type="curve" smooth="yes"/>
      <point x="520" y="421"/>
      <point x="550" y="337"/>
      <point x="612" y="308" type="curve" smooth="no"/>
      <point x="612" y="758" type="line" smooth="no"/>
      <point x="551" y="719"/>
      <point x="520" y="637"/>
    </contour>
    <contour>
      <point x="45" y="545" type="curve" smooth="yes"/>
      <point x="45" y="859"/>
      <point x="248" y="1092"/>
      <point x="564" y="1092" type="curve" smooth="yes"/>
      <point x="579" y="1092"/>
      <point x="594" y="1091"/>
      <point x="609" y="1089" type="curve" smooth="no"/>
      <point x="609" y="1362" type="line" smooth="no"/>
      <point x="721" y="1362" type="line" smooth="no"/>
      <point x="724" y="1056" type="line" smooth="no"/>
      <point x="757" y="1041"/>
      <point x="790" y="1020"/>
      <point x="823" y="994" type="curve" smooth="no"/>
      <point x="864" y="1071" type="line" smooth="no"/>
      <point x="1039" y="1071" type="line" smooth="no"/>
      <point x="1039" y="627" type="line" smooth="no"/>
      <point x="797" y="627" type="line" smooth="no"/>
      <point x="797" y="693"/>
      <point x="766" y="744"/>
      <point x="722" y="766" type="curve" smooth="no"/>
      <point x="722" y="305" type="line" smooth="no"/>
      <point x="761" y="320"/>
      <point x="799" y="375"/>
      <point x="799" y="425" type="curve" smooth="no"/>
      <point x="1039" y="425" type="line" smooth="no"/>
      <point x="1039" y="124" type="line" smooth="no"/>
      <point x="970" y="55"/>
      <point x="721" y="-9"/>
      <point x="721" y="-9" type="curve" smooth="no"/>
      <point x="721" y="-261" type="line" smooth="no"/>
      <point x="609" y="-261" type="line" smooth="no"/>
      <point x="609" y="-18" type="line" smooth="no"/>
      <point x="596" y="-18" type="line" smooth="yes"/>
      <point x="254" y="-18"/>
      <point x="45" y="199"/>
    </contour>
  </outline>
</glyph>
<glyph name="sterling" format="1">
  <advance width="1235"/>
  <unicode hex="00a3"/>
  <outline>
    <contour>
      <point x="952" y="1264" type="curve" smooth="yes"/>
      <point x="823" y="1264"/>
      <point x="723" y="1237"/>
      <point x="723" y="1117" type="curve" smooth="yes"/>
      <point x="723" y="993" type="line" smooth="no"/>
      <point x="976" y="993" type="line" smooth="no"/>
      <point x="976" y="760" type="line" smooth="no"/>
      <point x="723" y="760" type="line" smooth="no"/>
      <point x="723" y="365" type="line" smooth="no"/>
      <point x="754" y="355" type="line" smooth="no"/>
      <point x="816" y="340"/>
      <point x="931" y="330"/>
      <point x="1018" y="330" type="curve" smooth="yes"/>
      <point x="1069" y="330"/>
      <point x="1127" y="333"/>
      <point x="1193" y="339" type="curve" smooth="no"/>
      <point x="1193" y="28" type="line" smooth="no"/>
      <point x="1102" y="-3"/>
      <point x="1011" y="-19"/>
      <point x="921" y="-19" type="curve" smooth="yes"/>
      <point x="752" y="-19"/>
      <point x="667" y="38"/>
      <point x="667" y="152" type="curve" smooth="no"/>
      <point x="598" y="37"/>
      <point x="484" y="-20"/>
      <point x="325" y="-20" type="curve" smooth="yes"/>
      <point x="250" y="-20"/>
      <point x="42" y="28"/>
      <point x="42" y="28" type="curve" smooth="no"/>
      <point x="42" y="339" type="line" smooth="no"/>
      <point x="81" y="330"/>
      <point x="113" y="326"/>
      <point x="138" y="326" type="curve" smooth="yes"/>
      <point x="238" y="326"/>
      <point x="248" y="402"/>
      <point x="248" y="520" type="curve" smooth="yes"/>
      <point x="248" y="760" type="line" smooth="no"/>
      <point x="124" y="760" type="line" smooth="no"/>
      <point x="124" y="993" type="line" smooth="no"/>
      <point x="248" y="993" type="line" smooth="no"/>
      <point x="248" y="1207" type="line" smooth="yes"/>
      <point x="248" y="1503"/>
      <point x="544" y="1608"/>
      <point x="842" y="1608" type="curve" smooth="yes"/>
      <point x="965" y="1608"/>
      <point x="1159" y="1562"/>
      <point x="1159" y="1562" type="curve" smooth="no"/>
      <point x="1159" y="1251" type="line" smooth="no"/>
      <point x="1078" y="1260"/>
      <point x="1009" y="1264"/>
    </contour>
  </outline>
</glyph>
<glyph name="currency" format="1">
  <advance width="1234"/>
  <unicode hex="00a4"/>
  <outline>
    <contour>
      <point x="613" y="701" type="curve" smooth="yes"/>
      <point x="843" y="701"/>
      <point x="994" y="864"/>
      <point x="994" y="1099" type="curve" smooth="yes"/>
      <point x="994" y="1162"/>
      <point x="983" y="1219"/>
      <point x="961" y="1270" type="curve" smooth="no"/>
      <point x="958" y="1268" type="line" smooth="no"/>
      <point x="906" y="1397"/>
      <point x="784" y="1493"/>
      <point x="612" y="1493" type="curve" smooth="yes"/>
      <point x="382" y="1493"/>
      <point x="232" y="1331"/>
      <point x="232" y="1097" type="curve" smooth="yes"/>
      <point x="232" y="862"/>
      <point x="383" y="701"/>
    </contour>
    <contour>
      <point x="40" y="1097" type="curve" smooth="yes"/>
      <point x="40" y="1098" type="line" smooth="yes"/>
      <point x="40" y="1238"/>
      <point x="78" y="1356"/>
      <point x="155" y="1451" type="curve" smooth="no"/>
      <point x="88" y="1519" type="line" smooth="no"/>
      <point x="191" y="1622" type="line" smooth="no"/>
      <point x="262" y="1550" type="line" smooth="no"/>
      <point x="364" y="1620"/>
      <point x="481" y="1655"/>
      <point x="614" y="1655" type="curve" smooth="yes"/>
      <point x="751" y="1655"/>
      <point x="870" y="1618"/>
      <point x="972" y="1545" type="curve" smooth="no"/>
      <point x="1049" y="1622" type="line" smooth="no"/>
      <point x="1152" y="1519" type="line" smooth="no"/>
      <point x="1078" y="1445" type="line" smooth="no"/>
      <point x="1151" y="1350"/>
      <point x="1188" y="1234"/>
      <point x="1188" y="1097" type="curve" smooth="yes"/>
      <point x="1188" y="955"/>
      <point x="1149" y="836"/>
      <point x="1071" y="741" type="curve" smooth="no"/>
      <point x="1152" y="660" type="line" smooth="no"/>
      <point x="1049" y="557" type="line" smooth="no"/>
      <point x="963" y="643" type="line" smooth="no"/>
      <point x="862" y="574"/>
      <point x="746" y="540"/>
      <point x="614" y="540" type="curve" smooth="yes"/>
      <point x="485" y="540"/>
      <point x="371" y="573"/>
      <point x="272" y="638" type="curve" smooth="no"/>
      <point x="191" y="557" type="line" smooth="no"/>
      <point x="88" y="660" type="line" smooth="no"/>
      <point x="162" y="734" type="line" smooth="no"/>
      <point x="81" y="831"/>
      <point x="40" y="952"/>
    </contour>
  </outline>
</glyph>
<glyph name="yen" format="1">
  <advance width="1662"/>
  <unicode hex="00a5"/>
  <outline>
    <contour>
      <point x="1099" y="1221" type="curve" smooth="yes"/>
      <point x="1099" y="1278"/>
      <point x="1060" y="1272"/>
      <point x="982" y="1272" type="curve" smooth="no"/>
      <point x="982" y="1622" type="line" smooth="no"/>
      <point x="1619" y="1622" type="line" smooth="no"/>
      <point x="1619" y="1272" type="line" smooth="no"/>
      <point x="1545" y="1272" type="line" smooth="yes"/>
      <point x="1412" y="1272"/>
      <point x="1385" y="1178"/>
      <point x="1331" y="1093" type="curve" smooth="yes"/>
      <point x="1230" y="934" type="line" smooth="no"/>
      <point x="1541" y="934" type="line" smooth="no"/>
      <point x="1541" y="760" type="line" smooth="no"/>
      <point x="1127" y="760" type="line" smooth="no"/>
      <point x="1127" y="628" type="line" smooth="no"/>
      <point x="1541" y="628" type="line" smooth="no"/>
      <point x="1541" y="454" type="line" smooth="no"/>
      <point x="1127" y="454" type="line" smooth="no"/>
      <point x="1127" y="369" type="line" smooth="no"/>
      <point x="1284" y="369" type="line" smooth="no"/>
      <point x="1284" y="-2" type="line" smooth="no"/>
      <point x="415" y="-2" type="line" smooth="no"/>
      <point x="415" y="369" type="line" smooth="no"/>
      <point x="570" y="369" type="line" smooth="no"/>
      <point x="570" y="454" type="line" smooth="no"/>
      <point x="148" y="454" type="line" smooth="no"/>
      <point x="148" y="628" type="line" smooth="no"/>
      <point x="570" y="628" type="line" smooth="no"/>
      <point x="570" y="670" type="line" smooth="no"/>
      <point x="507" y="760" type="line" smooth="no"/>
      <point x="148" y="760" type="line" smooth="no"/>
      <point x="151" y="936" type="line" smooth="no"/>
      <point x="388" y="936" type="line" smooth="no"/>
      <point x="152" y="1274" type="line" smooth="no"/>
      <point x="40" y="1274" type="line" smooth="no"/>
      <point x="40" y="1622" type="line" smooth="no"/>
      <point x="892" y="1622" type="line" smooth="no"/>
      <point x="892" y="1274" type="line" smooth="no"/>
      <point x="801" y="1274" type="line" smooth="no"/>
      <point x="819" y="1250"/>
      <point x="968" y="1019"/>
      <point x="985" y="993" type="curve" smooth="no"/>
      <point x="1061" y="1108"/>
      <point x="1099" y="1184"/>
    </contour>
  </outline>
</glyph>
<glyph name="brokenbar" format="1">
  <advance width="544"/>
  <unicode hex="00a6"/>
  <outline>
    <contour>
      <point x="469" y="1623" type="line" smooth="no"/>
      <point x="469" y="902" type="line" smooth="no"/>
      <point x="74" y="902" type="line" smooth="no"/>
      <point x="74" y="1623" type="line" smooth="no"/>
    </contour>
    <contour>
      <point x="469" y="721" type="line" smooth="no"/>
      <point x="469" y="0" type="line" smooth="no"/>
      <point x="74" y="0" type="line" smooth="no"/>
      <point x="74" y="721" type="line" smooth="no"/>
    </contour>
  </outline>
</glyph>
<glyph name="section" format="1">
  <advance width="1016"/>
  <unicode hex="00a7"/>
  <outline>
    <contour>
      <point x="678" y="817" type="curve" smooth="yes"/>
      <point x="678" y="915"/>
      <point x="450" y="985"/>
      <point x="450" y="985" type="curve" smooth="no"/>
      <point x="450" y="985"/>
      <point x="348" y="915"/>
      <point x="348" y="875" type="curve" smooth="yes"/>
      <point x="348" y="785"/>
      <point x="592" y="685"/>
      <point x="592" y="685" type="curve" smooth="no"/>
      <point x="592" y="685"/>
      <point x="678" y="766"/>
    </contour>
    <contour>
      <point x="475" y="209" type="curve" smooth="yes"/>
      <point x="522" y="209"/>
      <point x="563" y="238"/>
      <point x="563" y="286" type="curve" smooth="yes"/>
      <point x="563" y="525"/>
      <point x="40" y="567"/>
      <point x="40" y="837" type="curve" smooth="no"/>
      <point x="31" y="833" type="line" smooth="no"/>
      <point x="31" y="963"/>
      <point x="131" y="1056"/>
      <point x="234" y="1093" type="curve" smooth="no"/>
      <point x="124" y="1172"/>
      <point x="69" y="1258"/>
      <point x="69" y="1351" type="curve" smooth="yes"/>
      <point x="69" y="1522"/>
      <point x="242" y="1634"/>
      <point x="421" y="1634" type="curve" smooth="yes"/>
      <point x="520" y="1634"/>
      <point x="636" y="1617"/>
      <point x="684" y="1569" type="curve" smooth="no"/>
      <point x="711" y="1620" type="line" smooth="no"/>
      <point x="879" y="1620" type="line" smooth="no"/>
      <point x="879" y="1297" type="line" smooth="no"/>
      <point x="678" y="1297" type="line" smooth="no"/>
      <point x="635" y="1392" type="line" smooth="no"/>
      <point x="618" y="1425"/>
      <point x="579" y="1463"/>
      <point x="533" y="1463" type="curve" smooth="yes"/>
      <point x="486" y="1463"/>
      <point x="451" y="1423"/>
      <point x="451" y="1373" type="curve" smooth="yes"/>
      <point x="451" y="1175"/>
      <point x="974" y="1105"/>
      <point x="974" y="852" type="curve" smooth="yes"/>
      <point x="974" y="702"/>
      <point x="883" y="589"/>
      <point x="762" y="553" type="curve" smooth="no"/>
      <point x="869" y="488"/>
      <point x="923" y="402"/>
      <point x="923" y="295" type="curve" smooth="yes"/>
      <point x="923" y="121"/>
      <point x="749" y="-18"/>
      <point x="567" y="-18" type="curve" smooth="yes"/>
      <point x="435" y="-18"/>
      <point x="347" y="0"/>
      <point x="279" y="68" type="curve" smooth="no"/>
      <point x="243" y="1" type="line" smooth="no"/>
      <point x="73" y="1" type="line" smooth="no"/>
      <point x="73" y="379" type="line" smooth="no"/>
      <point x="294" y="379" type="line" smooth="no"/>
      <point x="309" y="294"/>
      <point x="377" y="209"/>
    </contour>
  </outline>
</glyph>
<glyph name="dieresis" format="1">
  <advance width="1184"/>
  <unicode hex="00a8"/>
  <outline>
    <contour>
      <point x="671" y="1343" type="curve" smooth="yes"/>
      <point x="671" y="1477"/>
      <point x="768" y="1570"/>
      <point x="897" y="1570" type="curve" smooth="yes"/>
      <point x="1027" y="1570"/>
      <point x="1123" y="1477"/>
      <point x="1123" y="1341" type="curve" smooth="no"/>
      <point x="1121" y="1340" type="line" smooth="no"/>
      <point x="1121" y="1205"/>
      <point x="1027" y="1110"/>
      <point x="898" y="1110" type="curve" smooth="yes"/>
      <point x="767" y="1110"/>
      <point x="671" y="1206"/>
    </contour>
    <contour>
      <point x="56" y="1344" type="curve" smooth="yes"/>
      <point x="56" y="1478"/>
      <point x="153" y="1571"/>
      <point x="282" y="1571" type="curve" smooth="yes"/>
      <point x="412" y="1571"/>
      <point x="508" y="1478"/>
      <point x="508" y="1342" type="curve" smooth="no"/>
      <point x="506" y="1341" type="line" smooth="no"/>
      <point x="506" y="1206"/>
      <point x="412" y="1111"/>
      <point x="283" y="1111" type="curve" smooth="yes"/>
      <point x="152" y="1111"/>
      <point x="56" y="1207"/>
    </contour>
  </outline>
</glyph>
<glyph name="copyright" format="1">
  <advance width="1770"/>
  <unicode hex="00a9"/>
  <outline>
    <contour>
      <point x="918" y="485" type="curve" smooth="yes"/>
      <point x="1019" y="485"/>
      <point x="1060" y="552"/>
      <point x="1063" y="656" type="curve" smooth="no"/>
      <point x="1254" y="656" type="line" smooth="no"/>
      <point x="1254" y="396" type="line" smooth="no"/>
      <point x="1236" y="374" type="line" smooth="no"/>
      <point x="1151" y="303"/>
      <point x="1008" y="245"/>
      <point x="853" y="245" type="curve" smooth="yes"/>
      <point x="535" y="245"/>
      <point x="366" y="454"/>
      <point x="366" y="774" type="curve" smooth="yes"/>
      <point x="366" y="1069"/>
      <point x="503" y="1315"/>
      <point x="799" y="1315" type="curve" smooth="yes"/>
      <point x="907" y="1315"/>
      <point x="983" y="1294"/>
      <point x="1027" y="1251" type="curve" smooth="no"/>
      <point x="1049" y="1296" type="line" smooth="no"/>
      <point x="1246" y="1296" type="line" smooth="no"/>
      <point x="1246" y="895" type="line" smooth="no"/>
      <point x="1057" y="895" type="line" smooth="no"/>
      <point x="1060" y="996"/>
      <point x="1011" y="1085"/>
      <point x="910" y="1085" type="curve" smooth="yes"/>
      <point x="775" y="1085"/>
      <point x="759" y="944"/>
      <point x="759" y="808" type="curve" smooth="yes"/>
      <point x="759" y="731" type="line" smooth="yes"/>
      <point x="759" y="602"/>
      <point x="788" y="485"/>
    </contour>
    <contour>
      <point x="1549" y="788" type="curve" smooth="yes"/>
      <point x="1549" y="1162"/>
      <point x="1258" y="1446"/>
      <point x="883" y="1446" type="curve" smooth="yes"/>
      <point x="882" y="1446" type="line" smooth="yes"/>
      <point x="504" y="1446"/>
      <point x="216" y="1165"/>
      <point x="216" y="788" type="curve" smooth="yes"/>
      <point x="216" y="411"/>
      <point x="506" y="130"/>
      <point x="883" y="130" type="curve" smooth="yes"/>
      <point x="1258" y="130"/>
      <point x="1549" y="414"/>
    </contour>
    <contour>
      <point x="884" y="-18" type="curve" smooth="yes"/>
      <point x="412" y="-18"/>
      <point x="44" y="322"/>
      <point x="44" y="792" type="curve" smooth="yes"/>
      <point x="44" y="1262"/>
      <point x="413" y="1600"/>
      <point x="884" y="1600" type="curve" smooth="yes"/>
      <point x="1356" y="1600"/>
      <point x="1724" y="1262"/>
      <point x="1724" y="791" type="curve" smooth="yes"/>
      <point x="1724" y="320"/>
      <point x="1356" y="-18"/>
    </contour>
  </outline>
</glyph>
<glyph name="ordfeminine" format="1">
  <advance width="991"/>
  <unicode hex="00aa"/>
  <outline>
    <contour>
      <point x="476" y="1140" type="curve" smooth="yes"/>
      <point x="434" y="1140"/>
      <point x="400" y="1100"/>
      <point x="400" y="1058" type="curve" smooth="no"/>
      <point x="398" y="1059" type="line" smooth="no"/>
      <point x="398" y="1015"/>
      <point x="425" y="983"/>
      <point x="468" y="983" type="curve" smooth="yes"/>
      <point x="503" y="983"/>
      <point x="549" y="994"/>
      <point x="549" y="1016" type="curve" smooth="yes"/>
      <point x="549" y="1125" type="line" smooth="no"/>
      <point x="531" y="1132"/>
      <point x="503" y="1140"/>
    </contour>
    <contour>
      <point x="326" y="807" type="curve" smooth="yes"/>
      <point x="175" y="807"/>
      <point x="39" y="896"/>
      <point x="39" y="1046" type="curve" smooth="no"/>
      <point x="38" y="1044" type="line" smooth="no"/>
      <point x="38" y="1209"/>
      <point x="195" y="1282"/>
      <point x="360" y="1282" type="curve" smooth="yes"/>
      <point x="432" y="1282"/>
      <point x="495" y="1273"/>
      <point x="549" y="1254" type="curve" smooth="no"/>
      <point x="549" y="1287" type="line" smooth="yes"/>
      <point x="549" y="1368"/>
      <point x="497" y="1409"/>
      <point x="393" y="1409" type="curve" smooth="yes"/>
      <point x="323" y="1409"/>
      <point x="235" y="1339"/>
      <point x="235" y="1339" type="curve" smooth="no"/>
      <point x="105" y="1339" type="line" smooth="no"/>
      <point x="105" y="1571" type="line" smooth="no"/>
      <point x="155" y="1584" type="line" smooth="yes"/>
      <point x="223" y="1603"/>
      <point x="371" y="1624"/>
      <point x="463" y="1624" type="curve" smooth="yes"/>
      <point x="670" y="1624"/>
      <point x="883" y="1582"/>
      <point x="883" y="1374" type="curve" smooth="yes"/>
      <point x="883" y="1046" type="line" smooth="no"/>
      <point x="939" y="1046" type="line" smooth="no"/>
      <point x="939" y="821" type="line" smooth="no"/>
      <point x="591" y="821" type="line" smooth="no"/>
      <point x="554" y="909" type="line" smooth="no"/>
      <point x="511" y="854"/>
      <point x="419" y="807"/>
    </contour>
  </outline>
</glyph>
<glyph name="guillemotleft" format="1">
  <advance width="1314"/>
  <unicode hex="00ab"/>
  <outline>
    <contour>
      <point x="49" y="669" type="line" smooth="no"/>
      <point x="475" y="1073" type="line" smooth="no"/>
      <point x="666" y="849" type="line" smooth="no"/>
      <point x="351" y="534" type="line" smooth="no"/>
      <point x="666" y="219" type="line" smooth="no"/>
      <point x="475" y="-5" type="line" smooth="no"/>
      <point x="49" y="399" type="line" smooth="no"/>
    </contour>
    <contour>
      <point x="659" y="669" type="line" smooth="no"/>
      <point x="1085" y="1073" type="line" smooth="no"/>
      <point x="1276" y="849" type="line" smooth="no"/>
      <point x="961" y="534" type="line" smooth="no"/>
      <point x="1276" y="219" type="line" smooth="no"/>
      <point x="1085" y="-5" type="line" smooth="no"/>
      <point x="659" y="399" type="line" smooth="no"/>
    </contour>
  </outline>
</glyph>
<glyph name="logicalnot" format="1">
  <advance width="1137"/>
  <unicode hex="00ac"/>
  <outline>
    <contour>
      <point x="56" y="1092" type="line" smooth="no"/>
      <point x="1067" y="1092" type="line" smooth="no"/>
      <point x="1067" y="542" type="line" smooth="no"/>
      <point x="836" y="542" type="line" smooth="no"/>
      <point x="836" y="761" type="line" smooth="no"/>
      <point x="57" y="761" type="line" smooth="no"/>
    </contour>
  </outline>
</glyph>
<glyph name="uni00AD" format="1">
  <advance width="778"/>
  <unicode hex="00ad"/>
  <outline>
    <contour>
      <point x="713" y="836" type="line" smooth="no"/>
      <point x="713" y="537" type="line" smooth="no"/>
      <point x="66" y="537" type="line" smooth="no"/>
      <point x="66" y="836" type="line" smooth="no"/>
    </contour>
  </outline>
</glyph>
<glyph name="registered" format="1">
  <advance width="1770"/>
  <unicode hex="00ae"/>
  <outline>
    <contour>
      <point x="1006" y="970" type="curve" smooth="yes"/>
      <point x="1006" y="1031"/>
      <point x="963" y="1068"/>
      <point x="900" y="1068" type="curve" smooth="yes"/>
      <point x="832" y="1068" type="line" smooth="no"/>
      <point x="832" y="872" type="line" smooth="no"/>
      <point x="866" y="872" type="line" smooth="no"/>
      <point x="867" y="873" type="line" smooth="no"/>
      <point x="960" y="873"/>
      <point x="1006" y="905"/>
    </contour>
    <contour>
      <point x="994" y="611" type="line" smooth="yes"/>
      <point x="994" y="699"/>
      <point x="976" y="747"/>
      <point x="889" y="747" type="curve" smooth="yes"/>
      <point x="835" y="747" type="line" smooth="no"/>
      <point x="835" y="566" type="line" smooth="no"/>
      <point x="902" y="566" type="line" smooth="no"/>
      <point x="902" y="361" type="line" smooth="no"/>
      <point x="903" y="360" type="line" smooth="no"/>
      <point x="805" y="360"/>
      <point x="655" y="360"/>
      <point x="453" y="359" type="curve" smooth="no"/>
      <point x="453" y="562" type="line" smooth="no"/>
      <point x="538" y="562" type="line" smooth="no"/>
      <point x="538" y="1058" type="line" smooth="no"/>
      <point x="452" y="1058" type="line" smooth="no"/>
      <point x="452" y="1262" type="line" smooth="no"/>
      <point x="1016" y="1262" type="line" smooth="yes"/>
      <point x="1200" y="1262"/>
      <point x="1312" y="1193"/>
      <point x="1312" y="1011" type="curve" smooth="yes"/>
      <point x="1312" y="890"/>
      <point x="1223" y="828"/>
      <point x="1112" y="809" type="curve" smooth="no"/>
      <point x="1196" y="789"/>
      <point x="1266" y="757"/>
      <point x="1266" y="670" type="curve" smooth="yes"/>
      <point x="1266" y="618" type="line" smooth="yes"/>
      <point x="1266" y="564"/>
      <point x="1294" y="559"/>
      <point x="1358" y="559" type="curve" smooth="no"/>
      <point x="1358" y="360" type="line" smooth="no"/>
      <point x="1212" y="360" type="line" smooth="yes"/>
      <point x="1086" y="360"/>
      <point x="994" y="376"/>
      <point x="994" y="502" type="curve" smooth="yes"/>
    </contour>
    <contour>
      <point x="1549" y="788" type="curve" smooth="yes"/>
      <point x="1549" y="1162"/>
      <point x="1258" y="1446"/>
      <point x="883" y="1446" type="curve" smooth="yes"/>
      <point x="882" y="1446" type="line" smooth="yes"/>
      <point x="504" y="1446"/>
      <point x="216" y="1165"/>
      <point x="216" y="788" type="curve" smooth="yes"/>
      <point x="216" y="411"/>
      <point x="506" y="130"/>
      <point x="883" y="130" type="curve" smooth="yes"/>
      <point x="1258" y="130"/>
      <point x="1549" y="414"/>
    </contour>
    <contour>
      <point x="884" y="-18" type="curve" smooth="yes"/>
      <point x="412" y="-18"/>
      <point x="44" y="322"/>
      <point x="44" y="792" type="curve" smooth="yes"/>
      <point x="44" y="1262"/>
      <point x="413" y="1600"/>
      <point x="884" y="1600" type="curve" smooth="yes"/>
      <point x="1356" y="1600"/>
      <point x="1724" y="1262"/>
      <point x="1724" y="791" type="curve" smooth="yes"/>
      <point x="1724" y="320"/>
      <point x="1356" y="-18"/>
    </contour>
  </outline>
</glyph>
<glyph name="macron" format="1">
  <advance width="783"/>
  <unicode hex="00af"/>
  <outline>
    <contour>
      <point x="715" y="836" type="line" smooth="no"/>
      <point x="715" y="537" type="line" smooth="no"/>
      <point x="68" y="537" type="line" smooth="no"/>
      <point x="68" y="836" type="line" smooth="no"/>
    </contour>
  </outline>
</glyph>
<glyph name="degree" format="1">
  <advance width="808"/>
  <unicode hex="00b0"/>
  <outline>
    <contour>
      <point x="395" y="1496" type="curve" smooth="yes"/>
      <point x="276" y="1496"/>
      <point x="195" y="1411"/>
      <point x="195" y="1297" type="curve" smooth="yes"/>
      <point x="195" y="1182"/>
      <point x="278" y="1092"/>
      <point x="396" y="1092" type="curve" smooth="yes"/>
      <point x="518" y="1092"/>
      <point x="603" y="1180"/>
      <point x="603" y="1297" type="curve" smooth="yes"/>
      <point x="603" y="1413"/>
      <point x="516" y="1496"/>
    </contour>
    <contour>
      <point x="760" y="1300" type="curve" smooth="yes"/>
      <point x="760" y="1091"/>
      <point x="610" y="949"/>
      <point x="396" y="949" type="curve" smooth="yes"/>
      <point x="186" y="949"/>
      <point x="42" y="1089"/>
      <point x="42" y="1296" type="curve" smooth="yes"/>
      <point x="42" y="1501"/>
      <point x="186" y="1634"/>
      <point x="395" y="1634" type="curve" smooth="yes"/>
      <point x="607" y="1634"/>
      <point x="760" y="1506"/>
    </contour>
  </outline>
</glyph>
<glyph name="uni00B2" format="1">
  <advance width="805"/>
  <unicode hex="00b2"/>
  <outline>
    <contour>
      <point x="524" y="481" type="line" smooth="no"/>
      <point x="598" y="483"/>
      <point x="655" y="498"/>
      <point x="655" y="570" type="curve" smooth="no"/>
      <point x="759" y="570" type="line" smooth="no"/>
      <point x="759" y="286" type="line" smooth="no"/>
      <point x="71" y="286" type="line" smooth="no"/>
      <point x="67" y="465" type="line" smooth="no"/>
      <point x="207" y="521"/>
      <point x="397" y="618"/>
      <point x="397" y="800" type="curve" smooth="yes"/>
      <point x="397" y="851"/>
      <point x="364" y="904"/>
      <point x="315" y="904" type="curve" smooth="yes"/>
      <point x="264" y="904"/>
      <point x="234" y="869"/>
      <point x="234" y="819" type="curve" smooth="yes"/>
      <point x="234" y="791"/>
      <point x="247" y="765"/>
      <point x="272" y="742" type="curve" smooth="no"/>
      <point x="135" y="637" type="line" smooth="no"/>
      <point x="74" y="692"/>
      <point x="46" y="765"/>
      <point x="46" y="856" type="curve" smooth="yes"/>
      <point x="46" y="1207"/>
      <point x="707" y="1207"/>
      <point x="707" y="845" type="curve" smooth="yes"/>
      <point x="707" y="663"/>
      <point x="582" y="598"/>
      <point x="427" y="481" type="curve" smooth="no"/>
    </contour>
  </outline>
</glyph>
<glyph name="uni00B3" format="1">
  <advance width="769"/>
  <unicode hex="00b3"/>
  <outline>
    <contour>
      <point x="343" y="270" type="curve" smooth="yes"/>
      <point x="222" y="270"/>
      <point x="65" y="326"/>
      <point x="65" y="326" type="curve" smooth="no"/>
      <point x="65" y="526" type="line" smooth="no"/>
      <point x="136" y="470"/>
      <point x="207" y="441"/>
      <point x="281" y="441" type="curve" smooth="yes"/>
      <point x="344" y="441"/>
      <point x="412" y="465"/>
      <point x="412" y="528" type="curve" smooth="yes"/>
      <point x="412" y="600"/>
      <point x="339" y="626"/>
      <point x="266" y="626" type="curve" smooth="yes"/>
      <point x="247" y="626"/>
      <point x="205" y="614"/>
      <point x="191" y="614" type="curve" smooth="yes"/>
      <point x="187" y="614"/>
      <point x="179" y="619"/>
      <point x="179" y="619" type="curve" smooth="no"/>
      <point x="179" y="712" type="line" smooth="no"/>
      <point x="379" y="882" type="line" smooth="no"/>
      <point x="379" y="888" type="line" smooth="no"/>
      <point x="251" y="888" type="line" smooth="yes"/>
      <point x="189" y="888"/>
      <point x="171" y="806"/>
      <point x="171" y="806" type="curve" smooth="no"/>
      <point x="58" y="806" type="line" smooth="no"/>
      <point x="58" y="1071" type="line" smooth="no"/>
      <point x="684" y="1071" type="line" smooth="no"/>
      <point x="684" y="917" type="line" smooth="yes"/>
      <point x="684" y="916"/>
      <point x="628" y="870"/>
      <point x="517" y="779" type="curve" smooth="no"/>
      <point x="625" y="770"/>
      <point x="723" y="672"/>
      <point x="723" y="558" type="curve" smooth="yes"/>
      <point x="723" y="357"/>
      <point x="554" y="270"/>
    </contour>
  </outline>
</glyph>
<glyph name="acute" format="1">
  <advance width="754"/>
  <unicode hex="00b4"/>
  <outline>
    <contour>
      <point x="706" y="1443" type="line" smooth="no"/>
      <point x="152" y="1130" type="line" smooth="no"/>
      <point x="48" y="1271" type="line" smooth="no"/>
      <point x="522" y="1708" type="line" smooth="no"/>
    </contour>
  </outline>
</glyph>
<glyph name="uni00B5" format="1">
  <advance width="1466"/>
  <unicode hex="00b5"/>
  <outline>
    <contour>
      <point x="470" y="-278" type="line" smooth="no"/>
      <point x="147" y="-278" type="line" smooth="no"/>
      <point x="147" y="761" type="line" smooth="no"/>
      <point x="31" y="761" type="line" smooth="no"/>
      <point x="31" y="1032" type="line" smooth="no"/>
      <point x="634" y="1092" type="line" smooth="no"/>
      <point x="634" y="438" type="line" smooth="yes"/>
      <point x="634" y="378"/>
      <point x="668" y="318"/>
      <point x="724" y="318" type="curve" smooth="yes"/>
      <point x="787" y="318"/>
      <point x="827" y="372"/>
      <point x="827" y="436" type="curve" smooth="yes"/>
      <point x="827" y="761" type="line" smooth="no"/>
      <point x="728" y="761" type="line" smooth="no"/>
      <point x="728" y="1032" type="line" smooth="no"/>
      <point x="1314" y="1092" type="line" smooth="no"/>
      <point x="1314" y="305" type="line" smooth="no"/>
      <point x="1434" y="305" type="line" smooth="no"/>
      <point x="1434" y="0" type="line" smooth="no"/>
      <point x="828" y="0" type="line" smooth="no"/>
      <point x="828" y="156" type="line" smooth="no"/>
      <point x="765" y="59"/>
      <point x="668" y="-28"/>
      <point x="569" y="-28" type="curve" smooth="yes"/>
      <point x="536" y="-28"/>
      <point x="502" y="-19"/>
      <point x="470" y="4" type="curve" smooth="no"/>
    </contour>
  </outline>
</glyph>
<glyph name="paragraph" format="1">
  <advance width="1461"/>
  <unicode hex="00b6"/>
  <outline>
    <contour>
      <point x="114" y="1181" type="curve" smooth="yes"/>
      <point x="114" y="1541"/>
      <point x="399" y="1636"/>
      <point x="824" y="1636" type="curve" smooth="yes"/>
      <point x="1025" y="1636"/>
      <point x="1234" y="1623"/>
      <point x="1407" y="1623" type="curve" smooth="no"/>
      <point x="1407" y="1268" type="line" smooth="no"/>
      <point x="1256" y="1268" type="line" smooth="no"/>
      <point x="1256" y="363" type="line" smooth="no"/>
      <point x="1412" y="363" type="line" smooth="no"/>
      <point x="1412" y="0" type="line" smooth="no"/>
      <point x="1003" y="0" type="line" smooth="no"/>
      <point x="1003" y="1270" type="line" smooth="no"/>
      <point x="878" y="1270" type="line" smooth="no"/>
      <point x="878" y="0" type="line" smooth="no"/>
      <point x="421" y="0" type="line" smooth="no"/>
      <point x="421" y="363" type="line" smooth="no"/>
      <point x="607" y="363" type="line" smooth="no"/>
      <point x="607" y="738" type="line" smooth="no"/>
      <point x="315" y="739"/>
      <point x="114" y="930"/>
    </contour>
  </outline>
</glyph>
<glyph name="periodcentered" format="1">
  <advance width="670"/>
  <unicode hex="00b7"/>
  <outline>
    <contour>
      <point x="615" y="764" type="curve" smooth="yes"/>
      <point x="615" y="607"/>
      <point x="487" y="514"/>
      <point x="329" y="514" type="curve" smooth="no"/>
      <point x="327" y="513" type="line" smooth="no"/>
      <point x="172" y="513"/>
      <point x="50" y="609"/>
      <point x="50" y="764" type="curve" smooth="yes"/>
      <point x="50" y="918"/>
      <point x="171" y="1009"/>
      <point x="328" y="1009" type="curve" smooth="yes"/>
      <point x="489" y="1009"/>
      <point x="615" y="921"/>
    </contour>
  </outline>
</glyph>
<glyph name="cedilla" format="1">
  <advance width="512"/>
  <unicode hex="00b8"/>
  <outline>
    <contour>
      <point x="247" y="-272" type="curve" smooth="yes"/>
      <point x="247" y="-206"/>
      <point x="137" y="-119"/>
      <point x="137" y="-119" type="curve" smooth="no"/>
      <point x="137" y="0" type="line" smooth="no"/>
      <point x="316" y="-3" type="line" smooth="no"/>
      <point x="316" y="-122" type="line" smooth="no"/>
      <point x="405" y="-173"/>
      <point x="449" y="-228"/>
      <point x="449" y="-287" type="curve" smooth="yes"/>
      <point x="449" y="-423"/>
      <point x="234" y="-487"/>
      <point x="81" y="-487" type="curve" smooth="yes"/>
      <point x="60" y="-487" type="line" smooth="no"/>
      <point x="60" y="-374" type="line" smooth="no"/>
      <point x="155" y="-373"/>
      <point x="247" y="-350"/>
    </contour>
  </outline>
</glyph>
<glyph name="uni00B9" format="1">
  <advance width="535"/>
  <unicode hex="00b9"/>
  <outline>
    <contour>
      <point x="85" y="286" type="line" smooth="no"/>
      <point x="85" y="476" type="line" smooth="no"/>
      <point x="138" y="476" type="line" smooth="no"/>
      <point x="138" y="843" type="line" smooth="no"/>
      <point x="42" y="842" type="line" smooth="no"/>
      <point x="42" y="993" type="line" smooth="no"/>
      <point x="429" y="1091" type="line" smooth="no"/>
      <point x="429" y="476" type="line" smooth="no"/>
      <point x="489" y="476" type="line" smooth="no"/>
      <point x="489" y="286" type="line" smooth="no"/>
    </contour>
  </outline>
</glyph>
<glyph name="ordmasculine" format="1">
  <advance width="993"/>
  <unicode hex="00ba"/>
  <outline>
    <contour>
      <point x="498" y="859" type="curve" smooth="yes"/>
      <point x="408" y="859"/>
      <point x="394" y="775"/>
      <point x="394" y="685" type="curve" smooth="yes"/>
      <point x="394" y="562"/>
      <point x="428" y="500"/>
      <point x="495" y="500" type="curve" smooth="yes"/>
      <point x="563" y="500"/>
      <point x="597" y="562"/>
      <point x="597" y="685" type="curve" smooth="yes"/>
      <point x="597" y="775"/>
      <point x="589" y="859"/>
    </contour>
    <contour>
      <point x="945" y="688" type="curve" smooth="yes"/>
      <point x="945" y="426"/>
      <point x="762" y="271"/>
      <point x="498" y="271" type="curve" smooth="yes"/>
      <point x="234" y="271"/>
      <point x="52" y="426"/>
      <point x="52" y="688" type="curve" smooth="yes"/>
      <point x="52" y="952"/>
      <point x="232" y="1091"/>
      <point x="499" y="1091" type="curve" smooth="yes"/>
      <point x="768" y="1091"/>
      <point x="945" y="952"/>
    </contour>
  </outline>
</glyph>
<glyph name="guillemotright" format="1">
  <advance width="1311"/>
  <unicode hex="00bb"/>
  <outline>
    <contour>
      <point x="1265" y="399" type="line" smooth="no"/>
      <point x="839" y="-5" type="line" smooth="no"/>
      <point x="648" y="219" type="line" smooth="no"/>
      <point x="963" y="534" type="line" smooth="no"/>
      <point x="648" y="849" type="line" smooth="no"/>
      <point x="839" y="1073" type="line" smooth="no"/>
      <point x="1265" y="669" type="line" smooth="no"/>
    </contour>
    <contour>
      <point x="655" y="399" type="line" smooth="no"/>
      <point x="229" y="-5" type="line" smooth="no"/>
      <point x="38" y="219" type="line" smooth="no"/>
      <point x="353" y="534" type="line" smooth="no"/>
      <point x="38" y="849" type="line" smooth="no"/>
      <point x="229" y="1073" type="line" smooth="no"/>
      <point x="655" y="669" type="line" smooth="no"/>
    </contour>
  </outline>
</glyph>
<glyph name="onequarter" format="1">
  <advance width="1674"/>
  <unicode hex="00bc"/>
  <outline>
    <contour>
      <point x="1236" y="398" type="line" smooth="no"/>
      <point x="1236" y="536" type="line" smooth="no"/>
      <point x="1125" y="399" type="line" smooth="no"/>
    </contour>
    <contour>
      <point x="1504" y="170" type="line" smooth="no"/>
      <point x="1576" y="170" type="line" smooth="no"/>
      <point x="1576" y="1" type="line" smooth="no"/>
      <point x="1162" y="1" type="line" smooth="no"/>
      <point x="1162" y="170" type="line" smooth="no"/>
      <point x="1236" y="170" type="line" smooth="no"/>
      <point x="1236" y="247" type="line" smooth="no"/>
      <point x="923" y="247" type="line" smooth="no"/>
      <point x="923" y="405" type="line" smooth="no"/>
      <point x="1247" y="789" type="line" smooth="no"/>
      <point x="1505" y="788" type="line" smooth="no"/>
      <point x="1505" y="397" type="line" smooth="no"/>
      <point x="1638" y="398" type="line" smooth="no"/>
      <point x="1638" y="247" type="line" smooth="no"/>
      <point x="1504" y="247" type="line" smooth="no"/>
    </contour>
    <contour>
      <point x="347" y="0" type="line" smooth="no"/>
      <point x="838" y="1623" type="line" smooth="no"/>
      <point x="1202" y="1623" type="line" smooth="no"/>
      <point x="700" y="0" type="line" smooth="no"/>
    </contour>
    <contour>
      <point x="79" y="818" type="line" smooth="no"/>
      <point x="78" y="1008" type="line" smooth="no"/>
      <point x="131" y="1008" type="line" smooth="no"/>
      <point x="131" y="1375" type="line" smooth="no"/>
      <point x="35" y="1374" type="line" smooth="no"/>
      <point x="35" y="1525" type="line" smooth="no"/>
      <point x="422" y="1623" type="line" smooth="no"/>
      <point x="426" y="1008" type="line" smooth="no"/>
      <point x="482" y="1008" type="line" smooth="no"/>
      <point x="482" y="818" type="line" smooth="no"/>
    </contour>
  </outline>
</glyph>
<glyph name="onehalf" format="1">
  <advance width="1741"/>
  <unicode hex="00bd"/>
  <outline>
    <contour>
      <point x="1466" y="194" type="line" smooth="no"/>
      <point x="1540" y="196"/>
      <point x="1597" y="211"/>
      <point x="1597" y="283" type="curve" smooth="no"/>
      <point x="1701" y="283" type="line" smooth="no"/>
      <point x="1701" y="-1" type="line" smooth="no"/>
      <point x="1013" y="-1" type="line" smooth="no"/>
      <point x="1009" y="178" type="line" smooth="no"/>
      <point x="1149" y="234"/>
      <point x="1339" y="331"/>
      <point x="1339" y="513" type="curve" smooth="yes"/>
      <point x="1339" y="564"/>
      <point x="1306" y="617"/>
      <point x="1257" y="617" type="curve" smooth="yes"/>
      <point x="1206" y="617"/>
      <point x="1176" y="582"/>
      <point x="1176" y="532" type="curve" smooth="yes"/>
      <point x="1176" y="504"/>
      <point x="1189" y="478"/>
      <point x="1214" y="455" type="curve" smooth="no"/>
      <point x="1077" y="350" type="line" smooth="no"/>
      <point x="1016" y="405"/>
      <point x="988" y="478"/>
      <point x="988" y="569" type="curve" smooth="yes"/>
      <point x="988" y="920"/>
      <point x="1649" y="920"/>
      <point x="1649" y="558" type="curve" smooth="yes"/>
      <point x="1649" y="376"/>
      <point x="1524" y="311"/>
      <point x="1369" y="194" type="curve" smooth="no"/>
    </contour>
    <contour>
      <point x="342" y="0" type="line" smooth="no"/>
      <point x="833" y="1623" type="line" smooth="no"/>
      <point x="1197" y="1623" type="line" smooth="no"/>
      <point x="695" y="0" type="line" smooth="no"/>
    </contour>
    <contour>
      <point x="78" y="818" type="line" smooth="no"/>
      <point x="77" y="1008" type="line" smooth="no"/>
      <point x="130" y="1008" type="line" smooth="no"/>
      <point x="130" y="1375" type="line" smooth="no"/>
      <point x="34" y="1374" type="line" smooth="no"/>
      <point x="34" y="1525" type="line" smooth="no"/>
      <point x="421" y="1623" type="line" smooth="no"/>
      <point x="425" y="1008" type="line" smooth="no"/>
      <point x="481" y="1008" type="line" smooth="no"/>
      <point x="481" y="818" type="line" smooth="no"/>
    </contour>
  </outline>
</glyph>
<glyph name="threequarters" format="1">
  <advance width="1778"/>
  <unicode hex="00be"/>
  <outline>
    <contour>
      <point x="329" y="822" type="curve" smooth="yes"/>
      <point x="208" y="822"/>
      <point x="51" y="878"/>
      <point x="51" y="878" type="curve" smooth="no"/>
      <point x="51" y="1078" type="line" smooth="no"/>
      <point x="122" y="1022"/>
      <point x="193" y="993"/>
      <point x="267" y="993" type="curve" smooth="yes"/>
      <point x="330" y="993"/>
      <point x="398" y="1017"/>
      <point x="398" y="1080" type="curve" smooth="yes"/>
      <point x="398" y="1152"/>
      <point x="325" y="1178"/>
      <point x="252" y="1178" type="curve" smooth="yes"/>
      <point x="233" y="1178"/>
      <point x="191" y="1166"/>
      <point x="177" y="1166" type="curve" smooth="yes"/>
      <point x="170" y="1166"/>
      <point x="165" y="1171"/>
      <point x="165" y="1171" type="curve" smooth="no"/>
      <point x="165" y="1264" type="line" smooth="no"/>
      <point x="365" y="1434" type="line" smooth="no"/>
      <point x="365" y="1440" type="line" smooth="no"/>
      <point x="237" y="1440" type="line" smooth="yes"/>
      <point x="175" y="1440"/>
      <point x="157" y="1358"/>
      <point x="157" y="1358" type="curve" smooth="no"/>
      <point x="44" y="1358" type="line" smooth="no"/>
      <point x="44" y="1623" type="line" smooth="no"/>
      <point x="670" y="1623" type="line" smooth="no"/>
      <point x="670" y="1469" type="line" smooth="yes"/>
      <point x="670" y="1468"/>
      <point x="614" y="1422"/>
      <point x="503" y="1331" type="curve" smooth="no"/>
      <point x="611" y="1322"/>
      <point x="709" y="1224"/>
      <point x="709" y="1110" type="curve" smooth="yes"/>
      <point x="709" y="909"/>
      <point x="540" y="822"/>
    </contour>
    <contour>
      <point x="489" y="0" type="line" smooth="no"/>
      <point x="980" y="1621" type="line" smooth="no"/>
      <point x="1344" y="1621" type="line" smooth="no"/>
      <point x="842" y="0" type="line" smooth="no"/>
    </contour>
    <contour>
      <point x="1639" y="166" type="line" smooth="no"/>
      <point x="1711" y="166" type="line" smooth="no"/>
      <point x="1711" y="-1" type="line" smooth="no"/>
      <point x="1297" y="-1" type="line" smooth="no"/>
      <point x="1297" y="166" type="line" smooth="no"/>
      <point x="1371" y="166" type="line" smooth="no"/>
      <point x="1371" y="243" type="line" smooth="no"/>
      <point x="1058" y="243" type="line" smooth="no"/>
      <point x="1058" y="401" type="line" smooth="no"/>
      <point x="1382" y="785" type="line" smooth="no"/>
      <point x="1640" y="784" type="line" smooth="no"/>
      <point x="1640" y="393" type="line" smooth="no"/>
      <point x="1743" y="394" type="line" smooth="no"/>
      <point x="1743" y="243" type="line" smooth="no"/>
      <point x="1639" y="243" type="line" smooth="no"/>
    </contour>
    <contour>
      <point x="1371" y="394" type="line" smooth="no"/>
      <point x="1371" y="532" type="line" smooth="no"/>
      <point x="1260" y="395" type="line" smooth="no"/>
    </contour>
  </outline>
</glyph>
<glyph name="questiondown" format="1">
  <advance width="1288"/>
  <unicode hex="00bf"/>
  <outline>
    <contour>
      <point x="773" y="1252" type="curve" smooth="yes"/>
      <point x="612" y="1252"/>
      <point x="486" y="1340"/>
      <point x="486" y="1497" type="curve" smooth="yes"/>
      <point x="486" y="1653"/>
      <point x="616" y="1748"/>
      <point x="773" y="1748" type="curve" smooth="no"/>
      <point x="773" y="1747" type="line" smooth="no"/>
      <point x="929" y="1747"/>
      <point x="1050" y="1652"/>
      <point x="1050" y="1497" type="curve" smooth="yes"/>
      <point x="1050" y="1343"/>
      <point x="929" y="1252"/>
    </contour>
    <contour>
      <point x="652" y="340" type="curve" smooth="yes"/>
      <point x="582" y="340"/>
      <point x="556" y="403"/>
      <point x="556" y="471" type="curve" smooth="yes"/>
      <point x="556" y="590"/>
      <point x="952" y="828"/>
      <point x="952" y="828" type="curve" smooth="no"/>
      <point x="953" y="1180" type="line" smooth="no"/>
      <point x="606" y="1180" type="line" smooth="no"/>
      <point x="606" y="995" type="line" smooth="no"/>
      <point x="352" y="908"/>
      <point x="44" y="785"/>
      <point x="44" y="448" type="curve" smooth="yes"/>
      <point x="44" y="144"/>
      <point x="333" y="-16"/>
      <point x="645" y="-16" type="curve" smooth="yes"/>
      <point x="976" y="-16"/>
      <point x="1236" y="194"/>
      <point x="1254" y="502" type="curve" smooth="no"/>
      <point x="782" y="502" type="line" smooth="no"/>
      <point x="775" y="394"/>
      <point x="732" y="340"/>
    </contour>
  </outline>
</glyph>
<glyph name="AE" format="1">
  <advance width="2151"/>
  <unicode hex="00c6"/>
  <outline>
    <contour>
      <point x="967" y="769" type="line" smooth="no"/>
      <point x="967" y="1290" type="line" smooth="no"/>
      <point x="728" y="769" type="line" smooth="no"/>
    </contour>
    <contour>
      <point x="1808" y="969" type="line" smooth="no"/>
      <point x="1730" y="1269" type="line" smooth="no"/>
      <point x="1517" y="1269" type="line" smooth="no"/>
      <point x="1517" y="986" type="line" smooth="no"/>
      <point x="1722" y="986" type="line" smooth="no"/>
      <point x="1722" y="634" type="line" smooth="no"/>
      <point x="1517" y="634" type="line" smooth="no"/>
      <point x="1517" y="348" type="line" smooth="no"/>
      <point x="1736" y="348" type="line" smooth="no"/>
      <point x="1757" y="465"/>
      <point x="1812" y="685"/>
      <point x="1812" y="685" type="curve" smooth="no"/>
      <point x="2085" y="685" type="line" smooth="no"/>
      <point x="2085" y="-2" type="line" smooth="no"/>
      <point x="856" y="-2" type="line" smooth="no"/>
      <point x="855" y="374" type="line" smooth="no"/>
      <point x="975" y="374" type="line" smooth="no"/>
      <point x="996" y="483"/>
      <point x="984" y="538"/>
      <point x="939" y="538" type="curve" smooth="yes"/>
      <point x="664" y="538" type="line" smooth="yes"/>
      <point x="610" y="538"/>
      <point x="604" y="375"/>
      <point x="647" y="375" type="curve" smooth="yes"/>
      <point x="731" y="375" type="line" smooth="no"/>
      <point x="731" y="-1" type="line" smooth="no"/>
      <point x="50" y="-2" type="line" smooth="no"/>
      <point x="50" y="353" type="line" smooth="no"/>
      <point x="207" y="353"/>
      <point x="260" y="456"/>
      <point x="307" y="566" type="curve" smooth="yes"/>
      <point x="410" y="807"/>
      <point x="533" y="1039"/>
      <point x="647" y="1274" type="curve" smooth="no"/>
      <point x="435" y="1274" type="line" smooth="no"/>
      <point x="506" y="1623" type="line" smooth="no"/>
      <point x="2076" y="1623" type="line" smooth="no"/>
      <point x="2076" y="970" type="line" smooth="no"/>
    </contour>
  </outline>
</glyph>
<glyph name="Eth" format="1">
  <advance width="1746"/>
  <unicode hex="00d0"/>
  <unicode hex="0110"/>
  <outline>
    <contour>
      <point x="1115" y="815" type="curve" smooth="yes"/>
      <point x="1115" y="1055"/>
      <point x="1061" y="1269"/>
      <point x="820" y="1269" type="curve" smooth="yes"/>
      <point x="773" y="1269" type="line" smooth="no"/>
      <point x="773" y="921" type="line" smooth="no"/>
      <point x="859" y="921" type="line" smooth="no"/>
      <point x="859" y="712" type="line" smooth="no"/>
      <point x="774" y="712" type="line" smooth="no"/>
      <point x="774" y="350" type="line" smooth="no"/>
      <point x="808" y="350" type="line" smooth="no"/>
      <point x="806" y="347" type="line" smooth="no"/>
      <point x="1046" y="347"/>
      <point x="1115" y="576"/>
    </contour>
    <contour>
      <point x="1710" y="816" type="curve" smooth="yes"/>
      <point x="1710" y="317"/>
      <point x="1370" y="0"/>
      <point x="863" y="0" type="curve" smooth="yes"/>
      <point x="61" y="0" type="line" smooth="no"/>
      <point x="61" y="351" type="line" smooth="no"/>
      <point x="224" y="351" type="line" smooth="no"/>
      <point x="224" y="713" type="line" smooth="no"/>
      <point x="94" y="713" type="line" smooth="no"/>
      <point x="94" y="922" type="line" smooth="no"/>
      <point x="224" y="922" type="line" smooth="no"/>
      <point x="224" y="1270" type="line" smooth="no"/>
      <point x="57" y="1270" type="line" smooth="no"/>
      <point x="57" y="1622" type="line" smooth="no"/>
      <point x="887" y="1622" type="line" smooth="yes"/>
      <point x="1429" y="1622"/>
      <point x="1710" y="1352"/>
    </contour>
  </outline>
</glyph>
<glyph name="multiply" format="1">
  <advance width="810"/>
  <unicode hex="00d7"/>
  <outline>
    <contour>
      <point x="405" y="467" type="line" smooth="no"/>
      <point x="213" y="274" type="line" smooth="no"/>
      <point x="40" y="447" type="line" smooth="no"/>
      <point x="232" y="640" type="line" smooth="no"/>
      <point x="28" y="844" type="line" smooth="no"/>
      <point x="208" y="1024" type="line" smooth="no"/>
      <point x="405" y="820" type="line" smooth="no"/>
      <point x="602" y="1024" type="line" smooth="no"/>
      <point x="782" y="844" type="line" smooth="no"/>
      <point x="578" y="640" type="line" smooth="no"/>
      <point x="770" y="447" type="line" smooth="no"/>
      <point x="597" y="274" type="line" smooth="no"/>
    </contour>
  </outline>
</glyph>
<glyph name="Oslash" format="1">
  <advance width="1715"/>
  <unicode hex="00d8"/>
  <outline>
    <contour>
      <point x="856" y="311" type="line" smooth="no"/>
      <point x="1059" y="311"/>
      <point x="1066" y="572"/>
      <point x="1066" y="782" type="curve" smooth="yes"/>
      <point x="1066" y="929"/>
      <point x="1070" y="1079"/>
      <point x="1024" y="1178" type="curve" smooth="no"/>
      <point x="830" y="313" type="line" smooth="no"/>
      <point x="835" y="312"/>
      <point x="844" y="312"/>
      <point x="856" y="312" type="curve" smooth="no"/>
    </contour>
    <contour>
      <point x="859" y="1292" type="line" smooth="no"/>
      <point x="663" y="1292"/>
      <point x="647" y="1056"/>
      <point x="647" y="854" type="curve" smooth="yes"/>
      <point x="647" y="701"/>
      <point x="642" y="540"/>
      <point x="690" y="436" type="curve" smooth="no"/>
      <point x="888" y="1292" type="line" smooth="no"/>
      <point x="875" y="1293"/>
      <point x="865" y="1294"/>
      <point x="858" y="1294" type="curve" smooth="no"/>
    </contour>
    <contour>
      <point x="1676" y="808" type="curve" smooth="yes"/>
      <point x="1676" y="326"/>
      <point x="1337" y="-29"/>
      <point x="856" y="-29" type="curve" smooth="yes"/>
      <point x="821" y="-29"/>
      <point x="752" y="-23"/>
      <point x="752" y="-23" type="curve" smooth="no"/>
      <point x="714" y="-194" type="line" smooth="no"/>
      <point x="552" y="-155" type="line" smooth="no"/>
      <point x="592" y="10" type="line" smooth="no"/>
      <point x="283" y="112"/>
      <point x="37" y="408"/>
      <point x="37" y="807" type="curve" smooth="yes"/>
      <point x="37" y="1315"/>
      <point x="354" y="1653"/>
      <point x="857" y="1653" type="curve" smooth="yes"/>
      <point x="889" y="1653"/>
      <point x="968" y="1646"/>
      <point x="968" y="1646" type="curve" smooth="no"/>
      <point x="1005" y="1804" type="line" smooth="no"/>
      <point x="1158" y="1774" type="line" smooth="no"/>
      <point x="1122" y="1616" type="line" smooth="no"/>
      <point x="1451" y="1519"/>
      <point x="1676" y="1230"/>
    </contour>
  </outline>
</glyph>
<glyph name="Thorn" format="1">
  <advance width="1612"/>
  <unicode hex="00de"/>
  <outline>
    <contour>
      <point x="1057" y="1055" type="curve" smooth="yes"/>
      <point x="1057" y="1157"/>
      <point x="974" y="1207"/>
      <point x="873" y="1207" type="curve" smooth="yes"/>
      <point x="769" y="1207" type="line" smooth="no"/>
      <point x="769" y="894" type="line" smooth="no"/>
      <point x="830" y="894" type="line" smooth="yes"/>
      <point x="961" y="894"/>
      <point x="1057" y="931"/>
    </contour>
    <contour>
      <point x="1577" y="1066" type="curve" smooth="yes"/>
      <point x="1577" y="688"/>
      <point x="1299" y="559"/>
      <point x="918" y="559" type="curve" smooth="yes"/>
      <point x="871" y="559"/>
      <point x="821" y="562"/>
      <point x="768" y="569" type="curve" smooth="no"/>
      <point x="768" y="363" type="line" smooth="no"/>
      <point x="914" y="363" type="line" smooth="no"/>
      <point x="914" y="0" type="line" smooth="no"/>
      <point x="53" y="0" type="line" smooth="no"/>
      <point x="53" y="363" type="line" smooth="no"/>
      <point x="210" y="362" type="line" smooth="no"/>
      <point x="210" y="1487" type="line" smooth="no"/>
      <point x="59" y="1487" type="line" smooth="no"/>
      <point x="59" y="1842" type="line" smooth="no"/>
      <point x="769" y="1842" type="line" smooth="no"/>
      <point x="768" y="1542" type="line" smooth="no"/>
      <point x="1199" y="1542"/>
      <point x="1577" y="1497"/>
    </contour>
  </outline>
</glyph>
<glyph name="germandbls" format="1">
  <advance width="1692"/>
  <unicode hex="00df"/>
  <outline>
    <contour>
      <point x="888" y="1274" type="curve" smooth="yes"/>
      <point x="799" y="1274"/>
      <point x="746" y="1224"/>
      <point x="746" y="1131" type="curve" smooth="yes"/>
      <point x="747" y="350" type="line" smooth="no"/>
      <point x="747" y="350"/>
      <point x="881" y="349"/>
      <point x="898" y="350" type="curve" smooth="no"/>
      <point x="898" y="0" type="line" smooth="no"/>
      <point x="47" y="0" type="line" smooth="no"/>
      <point x="47" y="369" type="line" smooth="no"/>
      <point x="219" y="369" type="line" smooth="no"/>
      <point x="219" y="1092" type="line" smooth="yes"/>
      <point x="219" y="1488"/>
      <point x="463" y="1623"/>
      <point x="859" y="1623" type="curve" smooth="no"/>
      <point x="855" y="1619" type="line" smooth="no"/>
      <point x="1162" y="1619"/>
      <point x="1487" y="1529"/>
      <point x="1487" y="1235" type="curve" smooth="yes"/>
      <point x="1487" y="1078"/>
      <point x="1374" y="960"/>
      <point x="1261" y="897" type="curve" smooth="no"/>
      <point x="1466" y="831"/>
      <point x="1662" y="668"/>
      <point x="1662" y="426" type="curve" smooth="yes"/>
      <point x="1662" y="110"/>
      <point x="1362" y="-21"/>
      <point x="1036" y="-21" type="curve" smooth="no"/>
      <point x="1035" y="346" type="line" smooth="no"/>
      <point x="1132" y="401"/>
      <point x="1180" y="462"/>
      <point x="1180" y="530" type="curve" smooth="yes"/>
      <point x="1180" y="686"/>
      <point x="1004" y="748"/>
      <point x="822" y="748" type="curve" smooth="no"/>
      <point x="819" y="899" type="line" smooth="no"/>
      <point x="931" y="899"/>
      <point x="1034" y="1013"/>
      <point x="1034" y="1122" type="curve" smooth="yes"/>
      <point x="1034" y="1215"/>
      <point x="984" y="1274"/>
    </contour>
  </outline>
</glyph>
<glyph name="ae" format="1">
  <advance width="1921"/>
  <unicode hex="00e6"/>
  <outline>
    <contour>
      <point x="1236" y="611" type="line" smooth="no"/>
      <point x="1451" y="609" type="line" smooth="no"/>
      <point x="1452" y="632"/>
      <point x="1452" y="652"/>
      <point x="1450" y="669" type="curve" smooth="yes"/>
      <point x="1448" y="686"/>
      <point x="1444" y="706"/>
      <point x="1438" y="728" type="curve" smooth="yes"/>
      <point x="1432" y="750"/>
      <point x="1421" y="767"/>
      <point x="1405" y="779" type="curve" smooth="yes"/>
      <point x="1389" y="791"/>
      <point x="1369" y="797"/>
      <point x="1344" y="797" type="curve" smooth="yes"/>
      <point x="1308" y="797"/>
      <point x="1281" y="781"/>
      <point x="1263" y="749" type="curve" smooth="yes"/>
      <point x="1245" y="717"/>
      <point x="1236" y="681"/>
      <point x="1236" y="640" type="curve" smooth="yes"/>
    </contour>
    <contour>
      <point x="531" y="310" type="curve" smooth="no"/>
      <point x="532" y="308" type="line" smooth="no"/>
      <point x="532" y="278"/>
      <point x="541" y="254"/>
      <point x="558" y="235" type="curve" smooth="yes"/>
      <point x="575" y="216"/>
      <point x="598" y="207"/>
      <point x="627" y="207" type="curve" smooth="yes"/>
      <point x="648" y="207"/>
      <point x="668" y="211"/>
      <point x="687" y="220" type="curve" smooth="yes"/>
      <point x="706" y="229"/>
      <point x="718" y="236"/>
      <point x="723" y="241" type="curve" smooth="yes"/>
      <point x="735" y="253" type="line" smooth="no"/>
      <point x="735" y="400" type="line" smooth="no"/>
      <point x="721" y="405" type="line" smooth="yes"/>
      <point x="712" y="408"/>
      <point x="699" y="412"/>
      <point x="683" y="416" type="curve" smooth="yes"/>
      <point x="667" y="420"/>
      <point x="652" y="422"/>
      <point x="637" y="422" type="curve" smooth="yes"/>
      <point x="608" y="422"/>
      <point x="583" y="411"/>
      <point x="562" y="388" type="curve" smooth="yes"/>
      <point x="541" y="365"/>
      <point x="531" y="339"/>
    </contour>
    <contour>
      <point x="44" y="299" type="curve" smooth="no"/>
      <point x="41" y="292" type="line" smooth="no"/>
      <point x="41" y="343"/>
      <point x="54" y="390"/>
      <point x="79" y="432" type="curve" smooth="yes"/>
      <point x="104" y="474"/>
      <point x="137" y="508"/>
      <point x="178" y="534" type="curve" smooth="yes"/>
      <point x="219" y="560"/>
      <point x="265" y="580"/>
      <point x="316" y="594" type="curve" smooth="yes"/>
      <point x="367" y="608"/>
      <point x="420" y="615"/>
      <point x="475" y="615" type="curve" smooth="yes"/>
      <point x="572" y="615"/>
      <point x="657" y="602"/>
      <point x="730" y="577" type="curve" smooth="no"/>
      <point x="730" y="622" type="line" smooth="yes"/>
      <point x="730" y="733"/>
      <point x="660" y="788"/>
      <point x="519" y="788" type="curve" smooth="yes"/>
      <point x="424" y="788"/>
      <point x="352" y="756"/>
      <point x="304" y="693" type="curve" smooth="no"/>
      <point x="129" y="693" type="line" smooth="no"/>
      <point x="129" y="1007" type="line" smooth="no"/>
      <point x="196" y="1024" type="line" smooth="yes"/>
      <point x="241" y="1036"/>
      <point x="304" y="1048"/>
      <point x="385" y="1060" type="curve" smooth="yes"/>
      <point x="466" y="1072"/>
      <point x="542" y="1078"/>
      <point x="613" y="1078" type="curve" smooth="yes"/>
      <point x="658" y="1078"/>
      <point x="702" y="1074"/>
      <point x="745" y="1065" type="curve" smooth="yes"/>
      <point x="788" y="1056"/>
      <point x="822" y="1046"/>
      <point x="848" y="1035" type="curve" smooth="yes"/>
      <point x="874" y="1024"/>
      <point x="899" y="1012"/>
      <point x="922" y="998" type="curve" smooth="yes"/>
      <point x="945" y="984"/>
      <point x="960" y="974"/>
      <point x="967" y="969" type="curve" smooth="yes"/>
      <point x="974" y="964"/>
      <point x="979" y="960"/>
      <point x="982" y="957" type="curve" smooth="no"/>
      <point x="996" y="970" type="line" smooth="yes"/>
      <point x="1005" y="979"/>
      <point x="1019" y="989"/>
      <point x="1039" y="1001" type="curve" smooth="yes"/>
      <point x="1059" y="1013"/>
      <point x="1082" y="1025"/>
      <point x="1108" y="1037" type="curve" smooth="yes"/>
      <point x="1134" y="1049"/>
      <point x="1166" y="1059"/>
      <point x="1205" y="1068" type="curve" smooth="yes"/>
      <point x="1244" y="1077"/>
      <point x="1285" y="1081"/>
      <point x="1327" y="1081" type="curve" smooth="yes"/>
      <point x="1442" y="1081"/>
      <point x="1542" y="1057"/>
      <point x="1627" y="1008" type="curve" smooth="yes"/>
      <point x="1712" y="959"/>
      <point x="1775" y="895"/>
      <point x="1817" y="815" type="curve" smooth="yes"/>
      <point x="1859" y="735"/>
      <point x="1880" y="645"/>
      <point x="1880" y="545" type="curve" smooth="yes"/>
      <point x="1880" y="522"/>
      <point x="1878" y="496"/>
      <point x="1875" y="466" type="curve" smooth="no"/>
      <point x="1869" y="452"/>
      <point x="1865" y="444"/>
      <point x="1862" y="442" type="curve" smooth="yes"/>
      <point x="1859" y="440"/>
      <point x="1851" y="439"/>
      <point x="1838" y="439" type="curve" smooth="yes"/>
      <point x="1236" y="439" type="line" smooth="no"/>
      <point x="1236" y="377"/>
      <point x="1252" y="324"/>
      <point x="1284" y="280" type="curve" smooth="yes"/>
      <point x="1316" y="236"/>
      <point x="1359" y="214"/>
      <point x="1414" y="214" type="curve" smooth="yes"/>
      <point x="1462" y="214"/>
      <point x="1497" y="226"/>
      <point x="1519" y="249" type="curve" smooth="yes"/>
      <point x="1541" y="272"/>
      <point x="1553" y="308"/>
      <point x="1554" y="357" type="curve" smooth="no"/>
      <point x="1861" y="357" type="line" smooth="no"/>
      <point x="1861" y="119" type="line" smooth="no"/>
      <point x="1773" y="66"/>
      <point x="1687" y="29"/>
      <point x="1602" y="7" type="curve" smooth="yes"/>
      <point x="1517" y="-15"/>
      <point x="1421" y="-26"/>
      <point x="1314" y="-26" type="curve" smooth="yes"/>
      <point x="1188" y="-26"/>
      <point x="1077" y="17"/>
      <point x="982" y="104" type="curve" smooth="no"/>
      <point x="913" y="53"/>
      <point x="837" y="18"/>
      <point x="754" y="-1" type="curve" smooth="yes"/>
      <point x="671" y="-20"/>
      <point x="564" y="-29"/>
      <point x="433" y="-28" type="curve" smooth="yes"/>
      <point x="363" y="-27"/>
      <point x="299" y="-14"/>
      <point x="241" y="11" type="curve" smooth="yes"/>
      <point x="183" y="36"/>
      <point x="136" y="74"/>
      <point x="99" y="124" type="curve" smooth="yes"/>
      <point x="62" y="174"/>
      <point x="44" y="232"/>
    </contour>
  </outline>
</glyph>
<glyph name="eth" format="1">
  <advance width="1320"/>
  <unicode hex="00f0"/>
  <outline>
    <contour>
      <point x="556" y="566" type="curve" smooth="yes"/>
      <point x="556" y="413"/>
      <point x="593" y="336"/>
      <point x="667" y="336" type="curve" smooth="yes"/>
      <point x="687" y="336"/>
      <point x="704" y="345"/>
      <point x="718" y="362" type="curve" smooth="yes"/>
      <point x="732" y="379"/>
      <point x="742" y="401"/>
      <point x="748" y="428" type="curve" smooth="yes"/>
      <point x="754" y="455"/>
      <point x="758" y="479"/>
      <point x="760" y="500" type="curve" smooth="yes"/>
      <point x="762" y="521"/>
      <point x="763" y="540"/>
      <point x="763" y="558" type="curve" smooth="yes"/>
      <point x="763" y="703"/>
      <point x="730" y="775"/>
      <point x="665" y="775" type="curve" smooth="yes"/>
      <point x="592" y="775"/>
      <point x="556" y="705"/>
    </contour>
    <contour>
      <point x="1203" y="1585" type="line" smooth="no"/>
      <point x="1268" y="1426" type="line" smooth="no"/>
      <point x="1111" y="1363" type="line" smooth="no"/>
      <point x="1212" y="1214"/>
      <point x="1269" y="1009"/>
      <point x="1282" y="748" type="curve" smooth="yes"/>
      <point x="1283" y="735"/>
      <point x="1283" y="715"/>
      <point x="1283" y="688" type="curve" smooth="yes"/>
      <point x="1283" y="610"/>
      <point x="1276" y="537"/>
      <point x="1261" y="468" type="curve" smooth="yes"/>
      <point x="1246" y="399"/>
      <point x="1222" y="335"/>
      <point x="1189" y="275" type="curve" smooth="yes"/>
      <point x="1156" y="215"/>
      <point x="1115" y="163"/>
      <point x="1066" y="120" type="curve" smooth="yes"/>
      <point x="1017" y="77"/>
      <point x="957" y="43"/>
      <point x="885" y="18" type="curve" smooth="yes"/>
      <point x="813" y="-7"/>
      <point x="733" y="-19"/>
      <point x="644" y="-19" type="curve" smooth="yes"/>
      <point x="549" y="-19"/>
      <point x="462" y="-3"/>
      <point x="383" y="29" type="curve" smooth="yes"/>
      <point x="304" y="61"/>
      <point x="240" y="104"/>
      <point x="190" y="157" type="curve" smooth="yes"/>
      <point x="140" y="210"/>
      <point x="102" y="270"/>
      <point x="75" y="336" type="curve" smooth="yes"/>
      <point x="48" y="402"/>
      <point x="35" y="470"/>
      <point x="35" y="539" type="curve" smooth="yes"/>
      <point x="35" y="590"/>
      <point x="43" y="639"/>
      <point x="58" y="686" type="curve" smooth="yes"/>
      <point x="73" y="733"/>
      <point x="97" y="778"/>
      <point x="129" y="820" type="curve" smooth="yes"/>
      <point x="161" y="862"/>
      <point x="200" y="898"/>
      <point x="246" y="929" type="curve" smooth="yes"/>
      <point x="292" y="960"/>
      <point x="349" y="984"/>
      <point x="416" y="1002" type="curve" smooth="yes"/>
      <point x="483" y="1020"/>
      <point x="556" y="1029"/>
      <point x="635" y="1029" type="curve" smooth="yes"/>
      <point x="668" y="1029" type="line" smooth="no"/>
      <point x="652" y="1090"/>
      <point x="636" y="1137"/>
      <point x="620" y="1169" type="curve" smooth="no"/>
      <point x="369" y="1068" type="line" smooth="no"/>
      <point x="306" y="1225" type="line" smooth="no"/>
      <point x="486" y="1297" type="line" smooth="no"/>
      <point x="445" y="1313"/>
      <point x="396" y="1321"/>
      <point x="340" y="1321" type="curve" smooth="yes"/>
      <point x="288" y="1321"/>
      <point x="246" y="1317"/>
      <point x="215" y="1310" type="curve" smooth="no"/>
      <point x="215" y="1621" type="line" smooth="no"/>
      <point x="318" y="1643"/>
      <point x="416" y="1654"/>
      <point x="509" y="1654" type="curve" smooth="yes"/>
      <point x="706" y="1654"/>
      <point x="866" y="1602"/>
      <point x="989" y="1499" type="curve" smooth="no"/>
    </contour>
  </outline>
</glyph>
<glyph name="oslash" format="1">
  <advance width="1273"/>
  <unicode hex="00f8"/>
  <outline>
    <contour>
      <point x="501" y="545" type="curve" smooth="no"/>
      <point x="499" y="545" type="line" smooth="no"/>
      <point x="499" y="500"/>
      <point x="502" y="462"/>
      <point x="509" y="429" type="curve" smooth="no"/>
      <point x="699" y="768" type="line" smooth="no"/>
      <point x="682" y="777"/>
      <point x="661" y="781"/>
      <point x="637" y="781" type="curve" smooth="yes"/>
      <point x="608" y="781"/>
      <point x="584" y="775"/>
      <point x="565" y="762" type="curve" smooth="yes"/>
      <point x="546" y="749"/>
      <point x="532" y="730"/>
      <point x="523" y="705" type="curve" smooth="yes"/>
      <point x="514" y="680"/>
      <point x="508" y="656"/>
      <point x="505" y="632" type="curve" smooth="yes"/>
      <point x="502" y="608"/>
      <point x="501" y="579"/>
    </contour>
    <contour>
      <point x="38" y="547" type="curve" smooth="no"/>
      <point x="36" y="547" type="line" smooth="no"/>
      <point x="36" y="720"/>
      <point x="90" y="854"/>
      <point x="197" y="949" type="curve" smooth="yes"/>
      <point x="304" y="1044"/>
      <point x="451" y="1091"/>
      <point x="638" y="1091" type="curve" smooth="yes"/>
      <point x="722" y="1091"/>
      <point x="797" y="1082"/>
      <point x="865" y="1063" type="curve" smooth="no"/>
      <point x="938" y="1192" type="line" smooth="no"/>
      <point x="1025" y="1142" type="line" smooth="no"/>
      <point x="960" y="1027" type="line" smooth="no"/>
      <point x="1004" y="1006"/>
      <point x="1044" y="980"/>
      <point x="1079" y="949" type="curve" smooth="yes"/>
      <point x="1186" y="854"/>
      <point x="1240" y="720"/>
      <point x="1240" y="547" type="curve" smooth="yes"/>
      <point x="1240" y="430"/>
      <point x="1215" y="329"/>
      <point x="1164" y="243" type="curve" smooth="yes"/>
      <point x="1113" y="157"/>
      <point x="1042" y="92"/>
      <point x="952" y="48" type="curve" smooth="yes"/>
      <point x="862" y="4"/>
      <point x="758" y="-18"/>
      <point x="639" y="-18" type="curve" smooth="yes"/>
      <point x="549" y="-18"/>
      <point x="467" y="-5"/>
      <point x="394" y="20" type="curve" smooth="no"/>
      <point x="324" y="-104" type="line" smooth="no"/>
      <point x="237" y="-54" type="line" smooth="no"/>
      <point x="302" y="61" type="line" smooth="no"/>
      <point x="224" y="104"/>
      <point x="160" y="165"/>
      <point x="114" y="243" type="curve" smooth="yes"/>
      <point x="63" y="329"/>
      <point x="38" y="430"/>
    </contour>
    <contour>
      <point x="761" y="673" type="curve" smooth="no"/>
      <point x="562" y="320" type="line" smooth="no"/>
      <point x="582" y="303"/>
      <point x="607" y="294"/>
      <point x="636" y="294" type="curve" smooth="yes"/>
      <point x="727" y="294"/>
      <point x="773" y="378"/>
      <point x="773" y="545" type="curve" smooth="yes"/>
      <point x="773" y="579"/>
      <point x="772" y="608"/>
      <point x="769" y="632" type="curve" smooth="yes"/>
      <point x="767" y="646"/>
      <point x="765" y="659"/>
    </contour>
  </outline>
</glyph>
<glyph name="thorn" format="1">
  <advance width="1387"/>
  <unicode hex="00fe"/>
  <outline>
    <contour>
      <point x="595" y="404" type="line" smooth="no"/>
      <point x="592" y="401" type="line" smooth="no"/>
      <point x="593" y="394"/>
      <point x="597" y="385"/>
      <point x="603" y="375" type="curve" smooth="yes"/>
      <point x="609" y="365"/>
      <point x="616" y="355"/>
      <point x="625" y="344" type="curve" smooth="yes"/>
      <point x="634" y="333"/>
      <point x="647" y="324"/>
      <point x="664" y="317" type="curve" smooth="yes"/>
      <point x="681" y="310"/>
      <point x="700" y="306"/>
      <point x="721" y="306" type="curve" smooth="yes"/>
      <point x="753" y="306"/>
      <point x="780" y="313"/>
      <point x="803" y="327" type="curve" smooth="yes"/>
      <point x="826" y="341"/>
      <point x="843" y="360"/>
      <point x="855" y="384" type="curve" smooth="yes"/>
      <point x="867" y="408"/>
      <point x="875" y="433"/>
      <point x="880" y="459" type="curve" smooth="yes"/>
      <point x="885" y="485"/>
      <point x="888" y="513"/>
      <point x="888" y="542" type="curve" smooth="yes"/>
      <point x="888" y="671"/>
      <point x="834" y="736"/>
      <point x="725" y="736" type="curve" smooth="yes"/>
      <point x="704" y="736"/>
      <point x="686" y="733"/>
      <point x="670" y="726" type="curve" smooth="yes"/>
      <point x="654" y="719"/>
      <point x="641" y="712"/>
      <point x="632" y="704" type="curve" smooth="yes"/>
      <point x="623" y="696"/>
      <point x="615" y="686"/>
      <point x="608" y="675" type="curve" smooth="yes"/>
      <point x="601" y="664"/>
      <point x="597" y="657"/>
      <point x="596" y="653" type="curve" smooth="yes"/>
      <point x="595" y="649"/>
      <point x="594" y="646"/>
      <point x="593" y="643" type="curve" smooth="no"/>
      <point x="593" y="415" type="line" smooth="no"/>
    </contour>
    <contour>
      <point x="29" y="-398" type="line" smooth="no"/>
      <point x="30" y="-96" type="line" smooth="no"/>
      <point x="114" y="-96" type="line" smooth="no"/>
      <point x="114" y="1139" type="line" smooth="no"/>
      <point x="40" y="1139" type="line" smooth="no"/>
      <point x="40" y="1445" type="line" smooth="no"/>
      <point x="604" y="1445" type="line" smooth="no"/>
      <point x="604" y="954" type="line" smooth="no"/>
      <point x="614" y="954" type="line" smooth="no"/>
      <point x="657" y="999"/>
      <point x="701" y="1031"/>
      <point x="746" y="1051" type="curve" smooth="yes"/>
      <point x="791" y="1071"/>
      <point x="844" y="1081"/>
      <point x="905" y="1081" type="curve" smooth="yes"/>
      <point x="976" y="1081"/>
      <point x="1040" y="1066"/>
      <point x="1098" y="1036" type="curve" smooth="yes"/>
      <point x="1156" y="1006"/>
      <point x="1204" y="966"/>
      <point x="1241" y="915" type="curve" smooth="yes"/>
      <point x="1278" y="864"/>
      <point x="1307" y="807"/>
      <point x="1327" y="743" type="curve" smooth="yes"/>
      <point x="1347" y="679"/>
      <point x="1357" y="611"/>
      <point x="1357" y="540" type="curve" smooth="yes"/>
      <point x="1357" y="470"/>
      <point x="1347" y="403"/>
      <point x="1328" y="338" type="curve" smooth="yes"/>
      <point x="1309" y="273"/>
      <point x="1281" y="215"/>
      <point x="1245" y="163" type="curve" smooth="yes"/>
      <point x="1209" y="111"/>
      <point x="1161" y="69"/>
      <point x="1102" y="38" type="curve" smooth="yes"/>
      <point x="1043" y="7"/>
      <point x="977" y="-9"/>
      <point x="904" y="-9" type="curve" smooth="yes"/>
      <point x="835" y="-9"/>
      <point x="773" y="4"/>
      <point x="718" y="29" type="curve" smooth="yes"/>
      <point x="663" y="54"/>
      <point x="621" y="84"/>
      <point x="592" y="119" type="curve" smooth="no"/>
      <point x="592" y="-96" type="line" smooth="no"/>
      <point x="703" y="-96" type="line" smooth="no"/>
      <point x="703" y="-397" type="line" smooth="no"/>
    </contour>
  </outline>
</glyph>
<glyph name="dcroat" format="1">
  <advance width="1419"/>
  <unicode hex="0111"/>
  <outline>
    <contour>
      <point x="496" y="528" type="curve" smooth="yes"/>
      <point x="496" y="396"/>
      <point x="526" y="294"/>
      <point x="648" y="294" type="curve" smooth="yes"/>
      <point x="716" y="294"/>
      <point x="761" y="335"/>
      <point x="783" y="370" type="curve" smooth="no"/>
      <point x="783" y="679" type="line" smooth="no"/>
      <point x="666" y="813"/>
      <point x="496" y="739"/>
    </contour>
    <contour>
      <point x="1388" y="1187" type="line" smooth="no"/>
      <point x="1388" y="1071" type="line" smooth="no"/>
      <point x="1270" y="1071" type="line" smooth="no"/>
      <point x="1270" y="305" type="line" smooth="no"/>
      <point x="1387" y="305" type="line" smooth="no"/>
      <point x="1387" y="0" type="line" smooth="no"/>
      <point x="783" y="0" type="line" smooth="no"/>
      <point x="783" y="128" type="line" smooth="no"/>
      <point x="722" y="47"/>
      <point x="620" y="-18"/>
      <point x="488" y="-19" type="curve" smooth="no"/>
      <point x="184" y="-19"/>
      <point x="25" y="216"/>
      <point x="25" y="520" type="curve" smooth="yes"/>
      <point x="25" y="936"/>
      <point x="464" y="1139"/>
      <point x="783" y="930" type="curve" smooth="no"/>
      <point x="783" y="1071" type="line" smooth="no"/>
      <point x="576" y="1071" type="line" smooth="no"/>
      <point x="576" y="1187" type="line" smooth="no"/>
      <point x="783" y="1187" type="line" smooth="no"/>
      <point x="783" y="1282" type="line" smooth="no"/>
      <point x="629" y="1282" type="line" smooth="no"/>
      <point x="629" y="1495" type="line" smooth="no"/>
      <point x="1270" y="1560" type="line" smooth="no"/>
      <point x="1270" y="1187" type="line" smooth="no"/>
    </contour>
  </outline>
</glyph>
<glyph name="hbar" format="1">
  <advance width="1436"/>
  <unicode hex="0127"/>
  <outline>
    <contour>
      <point x="950" y="1089" type="curve" smooth="yes"/>
      <point x="1185.41" y="1089"/>
      <point x="1308" y="943.61"/>
      <point x="1308" y="702" type="curve" smooth="yes"/>
      <point x="1308" y="305" type="line" smooth="no"/>
      <point x="1394" y="305" type="line" smooth="no"/>
      <point x="1394" y="0" type="line" smooth="no"/>
      <point x="818" y="0" type="line" smooth="no"/>
      <point x="818" y="619" type="line" smooth="no"/>
      <point x="817" y="702"/>
      <point x="789" y="744"/>
      <point x="734" y="744" type="curve" smooth="yes"/>
      <point x="667" y="744"/>
      <point x="633" y="705"/>
      <point x="633" y="626" type="curve" smooth="yes"/>
      <point x="633" y="305" type="line" smooth="no"/>
      <point x="713" y="305" type="line" smooth="no"/>
      <point x="713" y="0" type="line" smooth="no"/>
      <point x="60" y="0" type="line" smooth="no"/>
      <point x="61" y="305" type="line" smooth="no"/>
      <point x="140" y="305" type="line" smooth="no"/>
      <point x="140" y="1133" type="line" smooth="no"/>
      <point x="56" y="1133" type="line" smooth="no"/>
      <point x="56" y="1262" type="line" smooth="no"/>
      <point x="140" y="1262" type="line" smooth="no"/>
      <point x="140" y="1332" type="line" smooth="no"/>
      <point x="56" y="1332" type="line" smooth="no"/>
      <point x="56" y="1640" type="line" smooth="no"/>
      <point x="629" y="1640" type="line" smooth="no"/>
      <point x="629" y="1262" type="line" smooth="no"/>
      <point x="804" y="1262" type="line" smooth="no"/>
      <point x="804" y="1133" type="line" smooth="no"/>
      <point x="629" y="1133" type="line" smooth="no"/>
      <point x="629" y="916" type="line" smooth="no"/>
      <point x="709.393" y="1005.33"/>
      <point x="782.383" y="1089"/>
    </contour>
  </outline>
</glyph>
<glyph name="dotlessi" format="1">
  <advance width="753"/>
  <unicode hex="0131"/>
  <outline>
    <contour>
      <point x="626" y="299" type="line" smooth="no"/>
      <point x="710" y="299" type="line" smooth="no"/>
      <point x="710" y="0" type="line" smooth="no"/>
      <point x="63" y="0" type="line" smooth="no"/>
      <point x="63" y="299" type="line" smooth="no"/>
      <point x="145" y="299" type="line" smooth="no"/>
      <point x="145" y="747" type="line" smooth="no"/>
      <point x="56" y="747" type="line" smooth="no"/>
      <point x="56" y="1072" type="line" smooth="no"/>
      <point x="626" y="1072" type="line" smooth="no"/>
    </contour>
  </outline>
</glyph>
<glyph name="IJ" format="1">
  <advance width="2234"/>
  <unicode hex="0132"/>
  <outline>
    <contour>
      <point x="1394" y="365" type="curve" smooth="yes"/>
      <point x="1276" y="365"/>
      <point x="1271" y="514"/>
      <point x="1271" y="633" type="curve" smooth="no"/>
      <point x="967" y="633" type="line" smooth="no"/>
      <point x="967" y="-13" type="line" smooth="no"/>
      <point x="1237" y="-13" type="line" smooth="no"/>
      <point x="1274" y="79" type="line" smooth="no"/>
      <point x="1333" y="6"/>
      <point x="1429" y="-30"/>
      <point x="1562" y="-30" type="curve" smooth="yes"/>
      <point x="1871" y="-30"/>
      <point x="2058" y="167"/>
      <point x="2058" y="475" type="curve" smooth="yes"/>
      <point x="2058" y="1240" type="line" smooth="no"/>
      <point x="2205" y="1240" type="line" smooth="no"/>
      <point x="2205" y="1593" type="line" smooth="no"/>
      <point x="1351" y="1593" type="line" smooth="no"/>
      <point x="1351" y="1240" type="line" smooth="no"/>
      <point x="1505" y="1240" type="line" smooth="no"/>
      <point x="1505" y="572" type="line" smooth="yes"/>
      <point x="1505" y="458"/>
      <point x="1489" y="365"/>
    </contour>
    <contour>
      <point x="904" y="1240" type="line" smooth="no"/>
      <point x="757" y="1240" type="line" smooth="no"/>
      <point x="757" y="359" type="line" smooth="no"/>
      <point x="898" y="359" type="line" smooth="no"/>
      <point x="898" y="0" type="line" smooth="no"/>
      <point x="36" y="0" type="line" smooth="no"/>
      <point x="36" y="359" type="line" smooth="no"/>
      <point x="183" y="359" type="line" smooth="no"/>
      <point x="183" y="1240" type="line" smooth="no"/>
      <point x="40" y="1240" type="line" smooth="no"/>
      <point x="40" y="1593" type="line" smooth="no"/>
      <point x="904" y="1593" type="line" smooth="no"/>
    </contour>
  </outline>
</glyph>
<glyph name="ij" format="1">
  <advance width="1490"/>
  <unicode hex="0133"/>
  <outline>
    <contour>
      <point x="1136" y="1137" type="curve" smooth="no"/>
      <point x="1134" y="1136" type="line" smooth="no"/>
      <point x="1055" y="1136"/>
      <point x="989" y="1159"/>
      <point x="936" y="1204" type="curve" smooth="yes"/>
      <point x="883" y="1249"/>
      <point x="857" y="1310"/>
      <point x="857" y="1387" type="curve" smooth="yes"/>
      <point x="857" y="1462"/>
      <point x="883" y="1522"/>
      <point x="935" y="1566" type="curve" smooth="yes"/>
      <point x="987" y="1610"/>
      <point x="1054" y="1632"/>
      <point x="1135" y="1632" type="curve" smooth="yes"/>
      <point x="1220" y="1632"/>
      <point x="1289" y="1610"/>
      <point x="1342" y="1566" type="curve" smooth="yes"/>
      <point x="1395" y="1522"/>
      <point x="1422" y="1462"/>
      <point x="1422" y="1387" type="curve" smooth="yes"/>
      <point x="1422" y="1310"/>
      <point x="1395" y="1249"/>
      <point x="1340" y="1204" type="curve" smooth="yes"/>
      <point x="1285" y="1159"/>
      <point x="1217" y="1137"/>
    </contour>
    <contour>
      <point x="347" y="1138" type="curve" smooth="no"/>
      <point x="345" y="1137" type="line" smooth="no"/>
      <point x="266" y="1137"/>
      <point x="200" y="1160"/>
      <point x="147" y="1205" type="curve" smooth="yes"/>
      <point x="94" y="1250"/>
      <point x="68" y="1311"/>
      <point x="68" y="1388" type="curve" smooth="yes"/>
      <point x="68" y="1463"/>
      <point x="94" y="1523"/>
      <point x="146" y="1567" type="curve" smooth="yes"/>
      <point x="198" y="1611"/>
      <point x="265" y="1633"/>
      <point x="346" y="1633" type="curve" smooth="yes"/>
      <point x="431" y="1633"/>
      <point x="500" y="1611"/>
      <point x="553" y="1567" type="curve" smooth="yes"/>
      <point x="606" y="1523"/>
      <point x="633" y="1463"/>
      <point x="633" y="1388" type="curve" smooth="yes"/>
      <point x="633" y="1311"/>
      <point x="606" y="1250"/>
      <point x="551" y="1205" type="curve" smooth="yes"/>
      <point x="496" y="1160"/>
      <point x="428" y="1138"/>
    </contour>
    <contour>
      <point x="1420" y="1072" type="line" smooth="no"/>
      <point x="58" y="1075" type="line" smooth="no"/>
      <point x="58" y="764" type="line" smooth="no"/>
      <point x="147" y="764" type="line" smooth="no"/>
      <point x="147" y="308" type="line" smooth="no"/>
      <point x="65" y="308" type="line" smooth="no"/>
      <point x="65" y="3" type="line" smooth="no"/>
      <point x="712" y="3" type="line" smooth="no"/>
      <point x="712" y="308" type="line" smooth="no"/>
      <point x="628" y="308" type="line" smooth="no"/>
      <point x="628" y="763" type="line" smooth="no"/>
      <point x="923" y="763" type="line" smooth="no"/>
      <point x="923" y="-6" type="line" smooth="yes"/>
      <point x="923" y="-31"/>
      <point x="911" y="-48"/>
      <point x="887" y="-58" type="curve" smooth="yes"/>
      <point x="863" y="-68"/>
      <point x="839" y="-72"/>
      <point x="815" y="-69" type="curve" smooth="no"/>
      <point x="817" y="-395" type="line" smooth="no"/>
      <point x="932" y="-395"/>
      <point x="1029" y="-384"/>
      <point x="1107" y="-363" type="curve" smooth="yes"/>
      <point x="1185" y="-342"/>
      <point x="1247" y="-309"/>
      <point x="1293" y="-264" type="curve" smooth="yes"/>
      <point x="1339" y="-219"/>
      <point x="1372" y="-165"/>
      <point x="1391" y="-102" type="curve" smooth="yes"/>
      <point x="1410" y="-39"/>
      <point x="1420" y="38"/>
      <point x="1420" y="129" type="curve" smooth="yes"/>
    </contour>
  </outline>
</glyph>
<glyph name="kgreenlandic" format="1">
  <advance width="1407"/>
  <unicode hex="0138"/>
  <outline>
    <contour>
      <point x="626" y="438" type="line" smooth="no"/>
      <point x="626" y="0" type="line" smooth="no"/>
      <point x="36" y="0" type="line" smooth="no"/>
      <point x="36" y="305" type="line" smooth="no"/>
      <point x="139" y="305" type="line" smooth="no"/>
      <point x="139" y="1222" type="line" smooth="no"/>
      <point x="35" y="1222" type="line" smooth="no"/>
      <point x="35" y="1495" type="line" smooth="no"/>
      <point x="626" y="1560" type="line" smooth="no"/>
      <point x="626" y="587" type="line" smooth="no"/>
      <point x="827" y="761" type="line" smooth="no"/>
      <point x="732" y="761" type="line" smooth="no"/>
      <point x="732" y="1072" type="line" smooth="no"/>
      <point x="1366" y="1072" type="line" smooth="no"/>
      <point x="1366" y="761" type="line" smooth="no"/>
      <point x="1195" y="761" type="line" smooth="no"/>
      <point x="1195" y="762"/>
      <point x="1023" y="618"/>
      <point x="1022" y="618" type="curve" smooth="yes"/>
      <point x="1229" y="305" type="line" smooth="no"/>
      <point x="1384" y="305" type="line" smooth="no"/>
      <point x="1384" y="0" type="line" smooth="no"/>
      <point x="911" y="0" type="line" smooth="no"/>
    </contour>
  </outline>
</glyph>
